<?xml version="1.0" encoding="UTF-8"?><svg xmlns="http://www.w3.org/2000/svg" xmlns:xlink="http://www.w3.org/1999/xlink" viewBox="0 0 147.4 419.5"><defs><clipPath id="uuid-0350df48-47cb-48fe-9e9f-0439e2bc61d2"><rect width="147.4" height="419.5" fill="none"/></clipPath><clipPath id="uuid-768fbe65-8f15-40ba-9e04-3b92c145da02"><rect x="-316.8" width="298.4" height="419.5" fill="none"/></clipPath><clipPath id="uuid-c3624fab-596d-4372-b9ac-9e7e402a6e85"><rect x="-482.4" width="147.9" height="419.5" fill="none"/></clipPath></defs><g id="uuid-9287920f-e93e-4ced-806d-ffd888ce50e5"><rect id="uuid-3e2b29ff-247a-4789-8a24-40882c98f144" width="147.4" height="419.5" fill="#f9f9e2"/><g id="uuid-20429761-8aaf-4aee-8419-31e3adef65d5"><g clip-path="url(#uuid-0350df48-47cb-48fe-9e9f-0439e2bc61d2)"><path d="M21.3,354.1c.6,28.7,47.8,55,88.7,55.1,39.2,0,87.8-23.8,88.7-55.1.8-28.6-38.5-53.8-71.6-58.8-49.2-7.4-106.4,26.7-105.7,58.8Z" fill="#ffe547" opacity=".6"/></g></g><text transform="translate(33.8 78.7) scale(1) skewX(-14.8)" font-family="SegoeScript, &apos;Segoe Script&apos;" font-size="11.3"><tspan x="0" y="0">Не</tspan><tspan x="13.8" y="0" letter-spacing=".2em">в</tspan><tspan x="21.1" y="0">еста очень </tspan><tspan x="-8.7" y="13.6">любит ц</tspan><tspan x="47.7" y="13.6" letter-spacing=".2em">в</tspan><tspan x="55" y="13.6">еты, но </tspan><tspan x="-5" y="27.2">после торжества </tspan><tspan x="11.7" y="40.8">мы </tspan><tspan x="37.5" y="40.8" letter-spacing=".1em">у</tspan><tspan x="46.2" y="40.8">езжаем. </tspan><tspan x="-.9" y="54.4">Ц</tspan><tspan x="9.1" y="54.4" letter-spacing=".2em">в</tspan><tspan x="16.4" y="54.4">еточкам бу</tspan><tspan x="90.3" y="54.4" letter-spacing=".2em">д</tspan><tspan x="97.9" y="54.4">ет </tspan><tspan x="16.8" y="68">очень одиноко</tspan></text><text transform="translate(17.3 40.4) scale(1.1 1) skewX(-14.8)" fill="#8d62a6" font-family="SegoeScript-Bold, &apos;Segoe Script&apos;" font-size="14" font-weight="700" text-decoration="underline"><tspan x="0" y="0">Еще к</tspan><tspan x="46.7" y="0" letter-spacing=".1em">о</tspan><tspan x="56" y="0">е-что..</tspan></text></g><g id="uuid-523b363d-a31f-41da-94d3-e8d116736410"><g id="uuid-61bdd3f9-6b34-4324-97c2-35001799469a"><g clip-path="url(#uuid-768fbe65-8f15-40ba-9e04-3b92c145da02)"><path d="M3.2,354.1c.6,28.7,47.9,55,88.9,55.1,39.3,0,88-23.8,88.9-55.1.8-28.6-38.6-53.8-71.8-58.8-49.4-7.4-106.7,26.7-106,58.8Z" fill="#ffe547" opacity=".6"/></g></g></g><g id="uuid-32764bd1-4109-44b0-842f-daf8821347ac"><g id="uuid-450acc00-fdf1-4491-a5a9-18ff6afc7107"><g clip-path="url(#uuid-c3624fab-596d-4372-b9ac-9e7e402a6e85)"><path d="M-16.4,354.1c.6,28.7,47.6,55,88.3,55.1,39,0,87.5-23.8,88.3-55.1.8-28.6-38.4-53.8-71.3-58.8-49.1-7.4-106,26.7-105.3,58.8Z" fill="#ffe547" opacity=".6"/></g></g></g></svg>