<?xml version="1.0" encoding="UTF-8"?><svg id="uuid-aed49e59-c360-4d5d-88b4-0c3ab7e1275d" xmlns="http://www.w3.org/2000/svg" xmlns:xlink="http://www.w3.org/1999/xlink" viewBox="0 0 198.43 311.81"><defs><clipPath id="uuid-94bb7cda-fb4e-4896-8748-ebaf4067cba3"><rect y="0" width="198.31" height="249.76" fill="none"/></clipPath></defs><g id="uuid-fecb7f3e-3804-494d-a7a3-c96c025295eb"><g clip-path="url(#uuid-94bb7cda-fb4e-4896-8748-ebaf4067cba3)"><path d="M30.11,32.38c.18.1.22.81.41,1.05.17.22.88.69,1.16.61.34-.1.86-.94,1.38-.43.38.38-.71,1.88-.9,1.08-.03-.13.17-.31.15-.46-.51.13-.34.78-.51,1.21-.32.83-1.66,1.37-2.42,1.84.2.14.96.2,1.16.11.12-.06,1.02-1.22,1.26-1.46.34-.35,1.51-1.25,1.67-1.53.12-.2-.07-.34-.04-.45.06-.21,1.17-1.32,1.47-1.39.38-.1.62.17.68.14.02,0-.16-.48.16-.46.55.03-.07.45-.05.48.16.27,1.1.06,1.13-.09.02-.07-.41-.47-.02-.65.5-.22.84.21.59.63.85.01,3.18.27,3.68.92.08.11.17.36.07.42-.08.04-1.35-.6-1.69-.67-.75-.14-.37.14-.65.54-.53-.17-.94-.39-1.52-.31-.31.04-.85.49-.92-.04-2.16.88-3.8,2.44-5.33,4,.31-.04.62.29.76.3.07,0,1.11-.38,1.29-.44.13-.05.21-.25.36-.25.14,0,.3.16.48.18.41.04,1.12-.33,1.97-.14.65.14,2.6.9,2.15,1.68-1.46-.34-3.31.01-4.74-.27-.33-.07-.43-.27-.48-.28-.13-.03-1.6.98-1.92,1.03-.14.02-.21-.08-.13-.17.19-.24,1.35-.61,1.54-.84.35-.43-.81.2-.89.25-.2.12-.5.27-.59.32-.42.27-1,1.03-1.47,1.28-.43.24-.82.1-.6-.33.12-.23,1.74-1.51,1.66-1.6-.35.08-1.54-.23-1.74-.18-.1.03-.53.86-1.3.74-.22-.03-.28-.41-.67-.06,1.41.95,3.2,2.61,3.9,4.05.51,1.05-.22,2.03-1.48,1.87-.32-.04-.92-.37-1.08-.32-.04.01-.37.49-.51.6-.54.43-.65.12-1.25.13-.27,0-.56.18-.83.21-.64.08-1.33.12-1.83-.36-.08.06-.17,1.64-.16,1.87.01.39.17.6.14,1.16-.04.82-.15,1.76-.44,2.51l.64.14c-.05-.45,1.21-3.01,1.52-3.02.06,0,.28.03.26.11-.32.31-1.46,2.87-1.35,3.01.28.38.57-.52.69-.71.22-.36.92-1.17,1.01-1.45.07-.22-.09-.42-.06-.68.06-.47.74-2.95,1.63-2.55.55.25-.09,1.4-.05,1.76.91-.7,2.1-1.2,3.35-1.25.79-1.28.88-2.71,1.27-4.1.08-.27.46-1.44.58-1.54.77-.61,1.18.94.91,1.43.41-.17.54-.32.87.1.21-.37,1.04-.94,1.51-.71.4.2.39.79.63,1.14.45.65,1.53.72.62,1.46-.6.5-1.69.53-2.46.8-1.12.39-2.25,1.14-3.39,1.55,2.02.66,3.4,2.22,5.1,3.32.61-.49-.27-1.86-.13-2.26.05-.13.42-.18.49-.33-.78-.27-1.68-.54-2.5-.66-.43-.06-.9.04-1.23-.02-.48-.09-.22-.44.22-.51.85-.13,3.23.33,3.89.85.6.49-.24.89-.28,1-.02.06.31,1.01.3,1.3-.01.85-.29,1.34-1.32.97-1.06-.72-1.99-1.75-3.05-2.46-.31-.21-1.62-.97-1.91-.98-.27,0-1.52.43-1.83.56-1.55.67-2.47,1.75-3.52,2.92.05.16.18.05.28.01,1.74-.7,3.01-.84,4.9-.05.72.3,3.03,1.84,3.02,2.56,0,.38-.37-.15-.46-.2-.62-.37-2.35-1.03-3.09-1.24-1.35-.38-2.58-.55-3.93-.28-.06.17.21.13.33.14.46.06.87.08,1.33.23.46.15.87.54,1.11.62.17.05.36-.01.61.08.62.23.75.77,1.15,1.19.04.5-.33.29-.71.22.31.35.21,1.36.37,1.62.08.12.37.18.55.36.31.31.87,1.73.89,2.15.05.98-.67,1.12-1.11.28-.17-.33-.14-.83-.42-1.13-.07.31-.2,1.75-.42,1.88-.07.04-.35-.18-.45-.18-.18,0-.41.45-.78.41-.77-.1-.11-1.09.07-1.39.31-.53,1.08-1.27,1.16-1.83.02-.15-.08-1.31-.14-1.38-.2-.26-.35.52-.69.59-.99.18-.49-1.01-.22-1.41.13-.2.45-.15.36-.49-.04-.16-.51-.66-.68-.79-1-.78-2.24-.59-3.41-.82-.13.26.24.23.28.55.03.23-.13.54-.08.66.02.06.24.11.25.23.01.25-.71,1.85-.83,2.28-.48,1.75-.38,3.68-.65,5.47,1.21,1.19,1.93,2.55,2.15,4.11.43,3.06-.55,5.15-1.18,7.99-.64,2.89-.94,6.29-1.73,9.08-.14.51-.72.86-.71,1.34,0,.05,1.18.05.32.56-.25.15-1.28.57-1.55.58-.55,0-1.19-.21-1.71-.26-2.77-.28-6.34-.48-8.49-2.37-.48-.43-.2-.59-.26-1-.02-.09-.19-.12-.18-.18.02-.24.32-.88.39-1.18.46-1.98.92-4.15,1.26-6.15.63-3.67.52-10,3.55-12.58.77-.65,1.98-.89,2.55-1.79.87-1.37,1.66-4.05,2.15-5.64.15-.49.06-1.32.49-1.7.07-.06.23-.05.3-.11.37-.36.36-.85,1.22-.45.23-.77-.24-1.02-1.02-1.11-.81-.1-.89,0-1.3.57-.17.23-.83,1.45-.85,1.65,0,.08.2.13.24.21.06.14-.52,2.83-.65,2.93-.26.21-.79-.1-.69-.46-.27.1-.5.63-.77.67-.12.02-.29-.2-.46-.25-1.02-.36-2.79.51-2.86,1.53.2-.03.27-.26.48-.39.41-.25,1.64-.49,2.13-.41,1.36.24-1.28.52-1.39.55-1,.26-1.15,1.11-1.55,1.82-.09.15.02.28-.28.17.22-.71-.04-1.24.22-1.98.36-1.05,1.59-1.73,2.84-1.65.66.04.73.63,1.09.27.98-.97-.79-1.31-1.65-1.4-.75-.08-1.43.17-2.1.19-.25,0-.13-.32-.07-.44.05-.09.87-.29,1.04-.32,1.14-.17,2.36.1,3.38.64.14-.43.15-.95.31-1.36.05-.13.23-.2.29-.34.22-.56.35-1.16.72-1.66-.22-.22-1.58.18-1.87.32-.17.08-.55.41-.6.41-.16,0-.26-.3-.33-.27-.06.02-.41.65-.8.81-.5.2-.78-.08-1.18-.02-.65.1-.85,1.09-2,.43-.26-.15-1.45-1.6-1.36-1.87.19-.54,2.97-1.88,3.62-2.22-.39-.05-.9.23-1.29.09-.32-.12-.46-.57-.73-.76-.23-.16-.75-.31-.91-.47-.06-.06-.1-1.41-.07-1.56.1-.46.65-.99,1.12-1.18.14-.06.39-.02.48-.08.05-.04-.01-.29.04-.43.33-.88.84-1.95,2.17-1.45.45.17.7.82.83.85.03,0,.35-.11.53-.11,1.95,0,1.17,3.02,1.16,4,0,.3.16.61.09.93.18.24,2.02,1.47,2.31,1.51.9.13.12-.7,0-.95-.74-1.48-.16-1.65.74-.32.16.23.71,1.64,1.08,1.43l.46-4.54c-.58-.14-1.11.6-1.59.42-.73-.27-.57-1.42-.65-1.51-.09-.09-1.14.06-1.7-.68-.21-.27-.24-.67-.4-.94-.21-.34-.64-.62-.83-1.03-.61-1.27.58-1.4,1.49-1.93l-4.38-1.77c-.05-.24-.04-.46.1-.67.56.37,1.17.24,1.76.39,1.16.3,2.18,1.1,2.94,1.92l1.89-.64c-1.28-.2-2.84-.75-1.1-1.63-.61-.36-1.94-.97-1.18-1.69.12-.11.69-.39.86-.47-.04-.18,0-.39-.06-.56-.2-.59-1.43-2.04-1.84-2.71-.62-1-1.3-2.18-1.5-3.3-.06-.34-.21-1.74.55-1.21.12.08,1.12,1.62,1.27,1.87.87,1.47,1.48,3.04,1.94,4.63.13-.09.3.04.32-.17.05-.53-.2-1.43-.19-2.05.01-.54.07-1.51.19-2,.05-.19.42-1.14.53-1.25.61-.57.75.99.76,1.29.05,1.22-.24,2.43-.31,3.64-.02.19-.39.25-.49.14-.1-.11.3-2.28.24-2.65l-.06-1.66c-.11.58-.3,1.15-.37,1.73-.05.39-.09,2.7.06,2.94.13.22.64.21.89.3.11-.32.06-1.03.54-1.05.37-.01,2.22.43,2.46.68.58.59.44,2.61.38,3.34-.04.43-.33.89-.02,1.33.12-.1.15-.36.17-.51.32-2.16.31-5.26,1.42-7.14.24-.4,1.56-2.19,2.09-1.31.47.79-1.23,2.75-1.58,3.5.57.7,1.6.31,2.15.61ZM29.19,28.59c-.18-.29-1.17.95-1.25,1.05-.43.61-.76,1.3-.9,2.02.27.09.36-.12.48-.26.25-.29,1.76-2.67,1.67-2.82ZM17.85,26.87c-.08-.11-.22-.18-.29-.3-.09.55.27,1.37.54,1.93.54,1.13,1.44,2.26,2.16,3.32-.18-.74-.49-1.53-.82-2.23-.38-.81-1.04-2-1.59-2.72ZM30,33.68c-.14-.18-.19-.75-.36-.83-.13-.06-.69.04-.99-.04-.35-.08-.76-.36-1.06-.54-.18.39-.58.67-.68,1.09-.05.18.02.38-.02.57-.23,1.03-.36,2.06-.58,3.09.26-.12.64-.18.85-.36.41-.35,1.65-2.44,1.92-2.53.15-.05.21-.01.26.11.17.37-1.62,2.14-1.6,2.44,0,.07.14.28.2.31.12.07.51-.29.62-.38.56-.45,1.53-1.49,2.06-1.82.06-.04.84-.14.66-.41-.04-.06-1.01-.38-1.27-.71ZM24.18,32.41l-1.18-.26c-.12.36.02.72-.23,1.04.34.21,1.55-.6,1.41-.77ZM25.24,37.28c-.17-.19.51-4.06-.38-4.62-.21-.13-.48.71-.69.77-.82.69-2.06.12-2.16.17-.02.01-.07.37-.13.49-.32.6-1.37.35-1.92.68.09.48,1.46,1.01,1.49,1.34.03.32-.98.68-.85.83,1.21.37,2.47.31,3.7.53l-1.81-1.69c-.17-.37-.77-.6-.62-1.02.51-.27,2.09,1.82,2.47,2.15.31.26.9.78,1.31.52-.03-.13-.33-.07-.4-.15ZM31.57,35.05c-.33-.18-.35.36-.43.39-.09.04-.4-.14-.51-.21l-2.26,2.06c.11.17,3.31-1.64,3.2-2.25ZM37.16,38.18c-.42-.62-2.17-.99-2.83-.73-.17.07-.18.3-.26.44l3.08.29ZM22.26,41.96l3.11-3.55c.21-.52-2.04-.56-2.43-.5-.32.05-.97.29-1.31.41-.98.34-1.92.83-2.87,1.23.13.3,1.67.76,1.7.84.13.31-.36,1.24.84.96.14-.03,1.05-1.15,1.27-1.36.49-.48,1.06-1.08,1.61-1.48.29-.21.57-.54.96-.35l-3.43,3.33.56.47ZM32.38,43.61c-.15-.37,1.52-2.66.67-3.38-.41-.1-.98,3.19-1.07,3.57-.09.33-.34.63-.34,1.01.08.17.14-.05.19-.11.13-.16.73-.92.71-1.01,0-.02-.13-.04-.15-.08ZM26.28,39.1c-.09.51.67,2.74.53,3.02-.15.31-.47.14-.52-.18l-.62-3.17c-.5,1.72-1.73,3.19-1.56,5.06,1.23.84,1.49-.62,2.42-.86.4-.1,1.03-.03,1.44.07.21-.09-1.35-3.66-1.7-3.94ZM28.37,42.83s.69-.23,1.28.25c.19.16.42.73.55.12.2-.88-2.32-3.36-3.17-3.92l1.05,2.44c.12.16.25,1.08.29,1.12ZM31.88,45.2c1.6-.83,3.02-1.7,4.86-2.13-.49-.48-1.09-.94-.98-1.65-.59.06-.96.47-1.33.82-.94.9-1.75,1.95-2.55,2.95ZM22.89,43.19l2.08-3.78-2.51,2.77.43,1.02ZM33.75,42.36l-.41-.19-.47,1.08.87-.89ZM19.63,40.6c-.03-.07-.66-.33-.77-.49-.17.1.62.98.7,1.14.07-.08.09-.62.07-.66ZM29.24,43.35c-.41-.35-.95.18-1.35.26-.91.18-1.71.07-2.37.87.25.07.49-.07.75-.03.44.07.64.46,1.09.04.2-.19.38-.73.68-.78.1-.02,1.1.35,1.41.26-.06-.11-.17-.58-.22-.62ZM21.8,44.03c.29.29.67-.79.29-1.36-.53-.8-.94-.48-1.68-.73-.29-.1-.39-.26-.65-.35-.17,1.12,1.34.71,1.81,1.32.13.16.18,1.06.23,1.11ZM18.34,45.43c0-.72.23-1.52-.08-2.23-.53-1.2-1.09-.15-1.52-.32-.28-.11-.54-1.05-1.11-1.13-.6-.08-1.16,1.36-1.12,1.81,1.32.91,2.35,2.13,3.84,2.85.13-.7-.16-.53-.53-.91-.51-.52-.61-1.13-.65-1.78.05-.12.37-.11.44-.05.07.07.14,1.62.73,1.75ZM17.25,46.28c-.36-.11-.68-.37-.95-.59-.46-.37-1.44-1.45-1.8-1.66-.12-.07-.28.11-.4.06-.14-.06-.13-.78-.71-.35-.09.06-.48.56-.52.65-.14.33.11.56.11.89,0,.18-.16.49-.11.6.02.05.66.31.82.42.2.14.5.55.59.58.13.05,1.39-.3,1.69-.34.17-.02,1.48.02,1.29-.26ZM17.79,47.88c-.88.38-1.52,1.15-2.23,1.67-.09.07-.21.18-.34.12-.07-.07-.21-.2-.2-.28.02-.17,1.33-1.17,1.58-1.37.2-.16,1.35-.86,1.38-.94.04-.15-.19-.13-.28-.14-.1-.01-.65-.02-.68-.01-.01,0,.03.14-.05.22-.2.19-1.51,1.48-1.63,1.46-.12-.02-.14-.26.03-.32l1.09-1.21c-.9.49-1.85.91-2.69,1.47-.24.16-1.33.86-1.26,1.1.04.14,1.12,1.32,1.28,1.35.14.02.75-.46,1.04-.51.39-.07.75.11,1.03.06.6-.11,1.63-2.16,1.95-2.68ZM32.84,51.45c-1.34-1.49-3.64-2.37-5.7-1.99-.26.05-2.12.65-1.94.97,2.55-1.18,5.21-.21,7.64,1.02ZM20.51,48.79c-.73-.19-1.28-.72-1.89-1.11l-1.28,2.19c.65-.45,1.4-.65,2.25-.66.53,0,.61.25.91-.41ZM31.36,57.05c.05-.64-.33-1.37-.69-1.93.1.64.34,1.35.69,1.93ZM20.1,59.17c-.58-.09-.89.48-1.29.75-.3.19-.68.33-.96.53-1.25.86-1.82,2.03-2.47,3.29.46.36,1,.67,1.62.77-.03-.72.38-1.36.77-1.96.14-.21.36-.34.5-.55.62-.94,1.22-1.89,1.84-2.83ZM25.45,67.88c-1.03-.06-2.05,0-3.08-.11-1.73-.19-4.94-1.04-6.5-1.79-.53-.25-.99-.59-1.49-.88-.43,2.77-.7,5.56-1.4,8.28.85.09,1.04.67,1.76.98.24.1.76.27,1.03.34,2.57.73,5.45.94,7.96.27.37-2.41.99-4.78,1.73-7.1Z" fill="#7a7b7b"/><path d="M20.44,33.55c0,.17-.13.25-.32.22-.5-.08-2.7-1.68-3.1-1.48,0,.27.29.82-.3.63-.39-.13-.6-.85-.22-1.04.82-.41,3.13,1.36,3.95,1.68Z" fill="#7a7b7b"/><path d="M30.33,48.12c-.1.08-1.06-.14-1.32-.15-.48-.03-.9.13-1.25.13-.15,0-.3-.04-.3-.17,0-.39,1.3-.4,1.61-.37.18.02,1.64.27,1.27.57Z" fill="#7a7b7b"/><path d="M38.81,32.2c-.53.29-1.22-.81-.33-.65.38.07.74.43.33.65Z" fill="#7a7b7b"/><path d="M40.07,32.09c-.63.35-.87-.8-.18-.69.44.07.5.51.18.69Z" fill="#7a7b7b"/></g></g><text transform="translate(22.09 111.47) scale(.98) skewX(-10)" font-family="SegoeScript, &apos;Segoe Script&apos;" font-size="12"><tspan x="0" y="0">Приглашаем вас стать </tspan><tspan x="8.97" y="14">частью дня, когда д</tspan><tspan x="142.74" y="14" letter-spacing=".18em">в</tspan><tspan x="150.48" y="14">е </tspan><tspan x="7.86" y="28">истории с</tspan><tspan x="78.53" y="28" letter-spacing=".15em">о</tspan><tspan x="86.53" y="28">единятся в </tspan><tspan x="70.71" y="42">одну. </tspan><tspan x="7.25" y="56">Мы очень хотим, чтобы </tspan><tspan x="13.95" y="70">вы были рядом с нами, </tspan><tspan x="22.51" y="84">когда мы откр</tspan><tspan x="124.73" y="84" letter-spacing=".15em">о</tspan><tspan x="132.72" y="84">ем её </tspan><tspan x="35.47" y="98">первую страницу.</tspan></text><text transform="translate(168.37 258.52) rotate(28.97)" fill="#e3131d" font-family="SegoeScript, &apos;Segoe Script&apos;" font-size="10"><tspan x="0" y="0">г</tspan><tspan x="5.57" y="0" letter-spacing=".18em">д</tspan><tspan x="12.29" y="0">е?</tspan></text><text transform="translate(43.04 63.95)" fill="#e52629" font-family="Georgia, Georgia" font-size="16"><tspan x="0" y="0">Олег и Наташа,</tspan><tspan x="9.79" y="19.2">Стас и Дима!</tspan></text><path d="M45.05,249.76c6.09,12.69,17.03,22.78,29.73,28.86,5.69,2.72,12.05,4.71,18.26,3.62" fill="none"/><path d="M209.7,252.14c-7.19,9.94-14.67,20.16-25.18,26.49-.63-2.5-.31-5.23.89-7.51-.39,3-.58,6.03-.57,9.06,3.4.03,6.8-1.1,9.52-3.16" fill="none"/><path d="M168.45,255.19c-2.2-1.51-4.53-2.82-6.96-3.93-1.77-.81-3.61-1.24-5.55-1.22-1.53.02-3.04.3-4.5.74l.15.25c.69-.88,1.58-1.55,2.63-1.94l-.15-.25c-.8.76-1.5,1.62-2.09,2.55-.04.07-.02.17.05.21,1.19.61,2.38,1.21,3.57,1.82.17.09.32-.17.15-.26-1.19-.61-2.38-1.21-3.57-1.82l.05.21c.58-.92,1.26-1.75,2.04-2.49.1-.1,0-.3-.15-.25-1.1.41-2.04,1.09-2.76,2.02-.08.11-.01.3.15.25,2.25-.68,4.65-.96,6.97-.51s4.45,1.66,6.47,2.8c1.14.64,2.26,1.34,3.34,2.08.16.11.31-.15.15-.26h0Z" fill="#e3131d"/><path d="M16.13,282.04c1.73,1.69,3.53,3.33,5.75,4.35s4.6,1.42,6.99,1.57c5.65.34,11.23-.87,16.84-1.29,3.26-.24,6.53-.24,9.79,0,.15.01.2-.21.08-.28-1.11-.66-2.22-1.32-3.33-1.98l-.15.26c1.24.58,2.41,1.28,3.48,2.14l.07-.25c-1.34.55-2.68,1.1-4.02,1.65-.18.07-.1.36.08.29,1.34-.55,2.68-1.1,4.02-1.65.09-.04.16-.17.07-.25-1.09-.88-2.27-1.6-3.54-2.19-.17-.08-.32.16-.15.26,1.11.66,2.22,1.32,3.33,1.98l.08-.28c-2.8-.21-5.62-.24-8.43-.09s-5.58.52-8.37.85c-5.07.6-10.55,1.22-15.47-.51-2.72-.96-4.85-2.8-6.88-4.79-.14-.14-.35.08-.21.21h0Z" fill="#e3131d"/><text/><text transform="translate(40.84 250.38)" font-family="SegoeScript, &apos;Segoe Script&apos;"><tspan font-size="11"><tspan x="0" y="0" fill="#c1292e">Р</tspan><tspan x="8.59" y="0" fill="#e52629">есторан «Заря»</tspan></tspan><tspan fill="#e52629" font-size="8"><tspan x="17.95" y="9.6">ул. Октябрьско </tspan></tspan><tspan fill="#e52629" font-size="8"><tspan x="3.99" y="19.2" letter-spacing=".15em">р</tspan><tspan x="10.14" y="19.2">еволюции, 301, эт.4.</tspan></tspan><tspan fill="#e52629" font-size="11"><tspan x="19.44" y="42">30 ап</tspan><tspan x="55.15" y="42" letter-spacing=".15em">р</tspan><tspan x="63.61" y="42">еля </tspan></tspan></text><text transform="translate(7.02 284.31) rotate(-35.15)" fill="#e3131d" font-family="SegoeScript, &apos;Segoe Script&apos;" font-size="10"><tspan x="0" y="0">когда?</tspan></text><path d="M38.05,221.06c6.09,12.69,17.03,22.78,29.73,28.86,5.69,2.72,12.05,4.71,18.26,3.62" fill="none"/></svg>