<?xml version="1.0" encoding="UTF-8"?><svg id="uuid-1b0de7dc-d668-4a2e-9776-b9bbefe2aac0" xmlns="http://www.w3.org/2000/svg" xmlns:xlink="http://www.w3.org/1999/xlink" viewBox="0 0 198.43 311.81"><defs><symbol id="uuid-bdec9dfa-1046-490d-a51f-4a8cc6baaff9" viewBox="0 0 47.36 47.37"><rect x="2.26" y="2.08" width="43.01" height="43.1" fill="none"/><path d="M45.96,20.88c-3.74-2.09-14.34.99-18.07,2.18.03.24.07.48.07.73,0,.28-.04.55-.08.82,12.78,3.57,18.02.22,18.02.22,3.26-1.92.06-3.96.06-3.96Z" fill="#dfd9c3"/><path d="M43.95,21.26c-3.32-1.73-12.75.82-16.07,1.81.03.2.06.4.06.61,0,.23-.03.46-.07.68,11.36,2.96,16.02.18,16.02.18,2.89-1.59.05-3.28.05-3.28Z" fill="#fcf8ea"/><path d="M43.3,22.48c-3.19-.86-12.23.41-15.41.89.03.1.06.2.06.3,0,.12-.03.23-.07.34,10.89,1.46,15.37.09,15.37.09,2.78-.79.05-1.63.05-1.63Z" fill="#fff"/><path d="M37.49,5.98c-4.13,1.16-9.46,10.82-11.27,14.3.2.15.39.29.57.47.2.2.37.42.52.64,11.57-6.48,12.93-12.56,12.93-12.56.95-3.66-2.75-2.85-2.75-2.85Z" fill="#dfd9c3"/><path d="M36.34,7.66c-3.58,1.12-8.46,9.57-10.11,12.62.16.12.33.24.47.39.16.17.3.35.43.53,10.13-5.92,11.48-11.17,11.48-11.17.93-3.17-2.28-2.36-2.28-2.36Z" fill="#fcf8ea"/><path d="M36.73,8.99c-2.87,1.64-8.38,8.91-10.29,11.5.09.05.18.1.26.17.08.08.14.18.19.29,8.75-6.65,10.95-10.78,10.95-10.78,1.41-2.52-1.11-1.19-1.11-1.19Z" fill="#fff"/><path d="M20.98,1.39c-2.11,3.73.93,14.34,2.11,18.08.24-.03.48-.07.74-.07.28,0,.55.04.82.08,3.63-12.76.3-18.02.3-18.02-1.91-3.26-3.96-.08-3.96-.08Z" fill="#dfd9c3"/><path d="M21.34,3.4c-1.75,3.32.77,12.75,1.74,16.08.2-.03.4-.06.61-.06.23,0,.46.04.68.08,3.01-11.35.25-16.02.25-16.02-1.58-2.9-3.28-.07-3.28-.07Z" fill="#fcf8ea"/><path d="M22.56,4.06c-.87,3.18.35,12.23.83,15.41.1-.03.2-.06.3-.06.12,0,.23.03.34.07,1.51-10.89.15-15.36.15-15.36-.78-2.78-1.62-.06-1.62-.06Z" fill="#fff"/><path d="M6.04,9.8c1.14,4.13,10.78,9.51,14.25,11.33.15-.19.29-.39.47-.57.2-.2.42-.36.64-.52C14.97,8.44,8.9,7.06,8.9,7.06c-3.66-.97-2.86,2.74-2.86,2.74Z" fill="#dfd9c3"/><path d="M7.72,10.96c1.1,3.58,9.54,8.49,12.58,10.16.12-.16.24-.32.39-.47.17-.16.35-.3.53-.43-5.88-10.16-11.13-11.53-11.13-11.53-3.17-.94-2.37,2.27-2.37,2.27Z" fill="#fcf8ea"/><path d="M9.04,10.57c1.63,2.87,8.88,8.41,11.46,10.34.05-.09.1-.18.17-.25.08-.08.18-.14.29-.19-6.61-8.78-10.73-11-10.73-11-2.51-1.42-1.19,1.1-1.19,1.1Z" fill="#fff"/><path d="M1.38,26.3c3.72,2.12,14.35-.87,18.09-2.03-.03-.24-.07-.48-.06-.73,0-.28.04-.55.09-.82-12.74-3.68-18.02-.37-18.02-.37-3.27,1.89-.09,3.96-.09,3.96Z" fill="#dfd9c3"/><path d="M3.4,25.94c3.31,1.76,12.75-.72,16.08-1.67-.03-.2-.06-.4-.06-.61,0-.23.03-.46.08-.68-11.33-3.05-16.02-.32-16.02-.32-2.91,1.57-.08,3.28-.08,3.28Z" fill="#fcf8ea"/><path d="M4.06,24.72c3.18.88,12.23-.3,15.42-.77-.03-.1-.06-.2-.06-.3,0-.12.03-.23.07-.34-10.88-1.55-15.36-.22-15.36-.22-2.78.76-.06,1.62-.06,1.62Z" fill="#fff"/><path d="M9.73,41.27c4.14-1.12,9.55-10.74,11.39-14.21-.19-.15-.39-.29-.56-.47-.2-.2-.36-.42-.52-.64-11.63,6.39-13.03,12.45-13.03,12.45-.98,3.65,2.73,2.87,2.73,2.87Z" fill="#dfd9c3"/><path d="M10.9,39.6c3.59-1.09,8.53-9.51,10.21-12.54-.16-.12-.32-.24-.47-.39-.16-.17-.3-.35-.43-.53-10.18,5.84-11.58,11.08-11.58,11.08-.95,3.16,2.26,2.38,2.26,2.38Z" fill="#fcf8ea"/><path d="M10.52,38.27c2.88-1.62,8.45-8.84,10.38-11.42-.09-.05-.18-.1-.25-.18-.08-.08-.14-.18-.19-.29-8.8,6.58-11.04,10.69-11.04,10.69-1.43,2.5,1.1,1.19,1.1,1.19Z" fill="#fff"/><path d="M26.21,45.99c2.14-3.72-.81-14.35-1.96-18.1-.24.03-.48.06-.73.06-.28,0-.55-.04-.82-.09-3.73,12.73-.45,18.02-.45,18.02,1.88,3.28,3.96.11,3.96.11Z" fill="#dfd9c3"/><path d="M25.86,43.98c1.77-3.3-.66-12.76-1.61-16.09-.2.03-.4.06-.61.05-.23,0-.46-.04-.68-.08-3.1,11.32-.38,16.02-.38,16.02,1.56,2.91,3.28.09,3.28.09Z" fill="#fcf8ea"/><path d="M24.65,43.31c.9-3.18-.25-12.23-.7-15.42-.1.03-.2.05-.3.05-.12,0-.23-.03-.34-.07-1.6,10.87-.28,15.36-.28,15.36.75,2.78,1.62.07,1.62.07Z" fill="#fff"/><path d="M41.22,37.71c-1.11-4.14-10.7-9.6-14.16-11.45-.15.19-.29.38-.48.56-.2.2-.42.36-.64.51,6.34,11.65,12.4,13.08,12.4,13.08,3.65,1,2.88-2.72,2.88-2.72Z" fill="#dfd9c3"/><path d="M39.55,36.53c-1.07-3.59-9.47-8.57-12.49-10.27-.12.16-.24.32-.39.47-.17.16-.35.29-.54.42,5.79,10.21,11.03,11.62,11.03,11.62,3.16.97,2.39-2.25,2.39-2.25Z" fill="#fcf8ea"/><path d="M38.22,36.91c-1.61-2.89-8.81-8.49-11.38-10.43-.05.09-.1.18-.18.25-.08.08-.18.14-.29.19,6.54,8.83,10.64,11.08,10.64,11.08,2.5,1.44,1.2-1.09,1.2-1.09Z" fill="#fff"/><path d="M44.24,32.48c-2.17-3.7-12.87-6.4-16.7-7.26-.09.22-.18.45-.31.67-.14.24-.31.46-.48.67,9.21,9.54,15.44,9.31,15.44,9.31,3.78-.01,2.05-3.39,2.05-3.39Z" fill="#dfd9c3"/><path d="M42.32,31.78c-1.99-3.17-11.41-5.74-14.78-6.57-.07.19-.15.37-.25.56-.12.2-.26.38-.4.55,8.3,8.29,13.73,8.26,13.73,8.26,3.3.09,1.7-2.8,1.7-2.8Z" fill="#fcf8ea"/><path d="M41.14,32.5c-2.32-2.35-10.75-5.83-13.74-7.02-.03.1-.05.2-.1.29-.06.1-.14.18-.23.26,8.66,6.77,13.21,7.85,13.21,7.85,2.79.73.86-1.37.86-1.37Z" fill="#fff"/><path d="M41.14,32.5c-2.32-2.35-10.75-5.83-13.74-7.02-.03.1-.05.2-.1.29-.06.1-.14.18-.23.26,8.66,6.77,13.21,7.85,13.21,7.85,2.79.73.86-1.37.86-1.37Z" fill="#fff"/><path d="M42.88,11.8c-4.28-.3-12.56,7-15.43,9.66.13.2.27.41.38.63.12.25.21.52.28.78,13.08-2.21,16.41-7.47,16.41-7.47,2.13-3.12-1.63-3.61-1.63-3.61Z" fill="#dfd9c3"/><path d="M41.22,12.99c-3.75-.15-11.19,6.17-13.77,8.47.11.17.23.33.32.52.1.21.16.43.22.65,11.54-2.16,14.58-6.65,14.58-6.65,1.94-2.67-1.35-2.99-1.35-2.99Z" fill="#fcf8ea"/><path d="M41.15,14.37c-3.25.58-10.89,5.57-13.56,7.36.07.08.14.16.18.25.05.1.07.22.08.33,10.48-3.31,13.94-6.46,13.94-6.46,2.18-1.89-.64-1.49-.64-1.49Z" fill="#fff"/><path d="M25.06,1.15c-2.72,3.32-1.54,14.29-1.02,18.18.24,0,.49.02.73.06.28.05.54.13.79.22C31.33,7.65,28.95,1.9,28.95,1.9c-1.32-3.54-3.89-.75-3.89-.75Z" fill="#dfd9c3"/><path d="M25.08,3.19c-2.29,2.97-1.42,12.69-1.04,16.14.2,0,.4,0,.61.05.23.04.44.11.66.19,4.9-10.67,2.99-15.75,2.99-15.75-1.06-3.13-3.22-.62-3.22-.62Z" fill="#fcf8ea"/><path d="M26.17,4.05c-1.41,2.99-1.74,12.11-1.82,15.33.1-.01.21-.02.31,0,.11.02.21.07.32.12,3.35-10.47,2.78-15.11,2.78-15.11-.29-2.87-1.59-.33-1.59-.33Z" fill="#fff"/><path d="M11.24,5.22c-.15,4.28,7.43,12.3,10.2,15.08.2-.14.4-.28.62-.4.25-.13.51-.22.77-.31C20.16,6.6,14.79,3.46,14.79,3.46c-3.2-2.02-3.55,1.76-3.55,1.76Z" fill="#dfd9c3"/><path d="M12.49,6.83c-.02,3.75,6.55,10.96,8.95,13.47.16-.12.33-.24.51-.33.21-.11.42-.18.64-.25-2.56-11.45-7.16-14.34-7.16-14.34-2.74-1.85-2.94,1.45-2.94,1.45Z" fill="#fcf8ea"/><path d="M13.87,6.86c.69,3.23,5.94,10.69,7.83,13.3.08-.07.15-.14.24-.19.1-.05.21-.08.33-.09-3.67-10.36-6.94-13.71-6.94-13.71-1.97-2.11-1.47.7-1.47.7Z" fill="#fff"/><path d="M3.42,16.24c2.41,3.55,13.26,5.54,17.14,6.14.08-.23.15-.46.27-.69.12-.25.28-.48.44-.7C11.44,12.08,5.25,12.73,5.25,12.73c-3.77.26-1.82,3.51-1.82,3.51Z" fill="#dfd9c3"/><path d="M5.39,16.8c2.2,3.04,11.76,4.98,15.17,5.58.06-.19.12-.38.22-.57.1-.21.23-.39.37-.58-8.83-7.73-14.25-7.34-14.25-7.34-3.3.13-1.51,2.91-1.51,2.91Z" fill="#fcf8ea"/><path d="M6.52,16.01c2.47,2.2,11.11,5.12,14.18,6.1.02-.1.04-.2.08-.3.05-.1.13-.19.21-.27-9.08-6.18-13.7-6.96-13.7-6.96-2.84-.54-.77,1.43-.77,1.43Z" fill="#fff"/><path d="M5.45,35.01c4.26.45,12.8-6.54,15.77-9.1-.13-.21-.25-.42-.35-.65-.11-.26-.19-.52-.25-.79-13.15,1.73-16.67,6.87-16.67,6.87-2.24,3.04,1.5,3.66,1.5,3.66Z" fill="#dfd9c3"/><path d="M7.15,33.87c3.74.29,11.4-5.76,14.07-7.97-.11-.17-.21-.34-.3-.54-.09-.21-.15-.43-.2-.65-11.61,1.74-14.81,6.12-14.81,6.12-2.04,2.6,1.24,3.04,1.24,3.04Z" fill="#fcf8ea"/><path d="M7.28,32.49c3.27-.46,11.09-5.17,13.82-6.87-.06-.08-.13-.16-.17-.26-.04-.11-.06-.22-.07-.33-10.59,2.93-14.17,5.95-14.17,5.95-2.25,1.81.59,1.51.59,1.51Z" fill="#fff"/><path d="M36.18,41.65c.14-4.29-7.45-12.29-10.23-15.06-.2.14-.4.28-.62.4-.25.13-.51.23-.77.31,2.68,12.99,8.06,16.12,8.06,16.12,3.2,2.01,3.55-1.77,3.55-1.77Z" fill="#dfd9c3"/><path d="M34.93,40.03c.02-3.75-6.57-10.95-8.97-13.45-.16.12-.33.24-.51.33-.2.11-.42.18-.63.25,2.58,11.45,7.18,14.33,7.18,14.33,2.74,1.84,2.94-1.46,2.94-1.46Z" fill="#fcf8ea"/><path d="M33.55,40.01c-.7-3.23-5.96-10.68-7.86-13.28-.08.07-.15.14-.24.19-.1.05-.21.08-.33.1,3.69,10.35,6.96,13.7,6.96,13.7,1.97,2.11,1.46-.7,1.46-.7Z" fill="#fff"/><path d="M36.73,8.7c-2.85,1.67-8.27,9.01-10.15,11.63.09.05.18.1.26.17.08.08.14.18.2.28,8.67-6.75,10.82-10.91,10.82-10.91,1.38-2.53-1.12-1.17-1.12-1.17Z" fill="#fff"/><path d="M8.83,11.79c1.94,2.67,9.76,7.38,12.54,9,.04-.1.08-.19.15-.27.07-.09.16-.16.26-.22-7.54-7.99-11.88-9.74-11.88-9.74-2.65-1.13-1.06,1.23-1.06,1.23Z" fill="#fff"/><path d="M5.32,26.88c3.29.25,11.94-2.68,14.97-3.75-.05-.09-.1-.19-.11-.29-.02-.11-.01-.23,0-.34-10.97.59-15.11,2.77-15.11,2.77-2.58,1.29.25,1.61.25,1.61Z" fill="#fff"/><path d="M12.27,37.82c2.67-1.94,7.36-9.77,8.98-12.55-.1-.04-.19-.08-.27-.15-.09-.07-.16-.16-.22-.26-7.98,7.56-9.72,11.9-9.72,11.9-1.13,2.65,1.23,1.06,1.23,1.06Z" fill="#fff"/><path d="M26.08,42.74c.61-3.25-1.33-12.16-2.06-15.3-.1.04-.19.07-.3.08-.11,0-.23-.01-.34-.04-.63,10.97,1.08,15.33,1.08,15.33,1,2.71,1.62-.07,1.62-.07Z" fill="#fff"/><polygon points="28.46 22.98 27.43 21.13 26.55 19.71 24.32 18.94 23.62 19.33 22.79 19.1 20.83 20.03 19.5 20.89 18.62 23.08 18.81 23.66 18.91 24.62 20.06 26.37 20.82 27.58 23.09 28.43 23.62 28.41 24.6 27.87 26.67 27.49 27.5 26.23 28.51 24.43 28.48 23.66 28.46 22.98" fill="#c29a55"/><polygon points="27.83 23.08 26.52 21.84 26.39 20.06 24.34 19.51 23.72 20.78 23.04 19.94 21.58 20.91 20.03 21.16 19.19 23.14 19.89 23.66 19.95 24.42 21.24 25.49 21.3 27.06 23.25 27.94 23.72 27.78 24.39 26.44 26.47 27.13 26.7 25.6 28 24.34 27.74 23.66 27.83 23.08" fill="#f9c56f"/><path d="M25.92,24.95c0,.36-.3.64-.68.64s-.68-.28-.68-.64.3-.64.68-.64.68.29.68.64Z" fill="#c29a55"/><path d="M26.6,24.52c0,.35-.3.64-.68.64s-.68-.29-.68-.64.3-.64.68-.64.68.29.68.64Z" fill="#c29a55"/><path d="M26.6,23.24c0,.35-.3.64-.68.64s-.68-.29-.68-.64.3-.64.68-.64.68.29.68.64Z" fill="#c29a55"/><path d="M25.7,21.32c0,.35-.3.64-.68.64s-.68-.29-.68-.64.3-.64.68-.64.68.29.68.64Z" fill="#c29a55"/><path d="M24.34,22.39c0,.36-.3.64-.68.64s-.68-.29-.68-.64.3-.64.68-.64.68.29.68.64Z" fill="#c29a55"/><path d="M24.34,24.1c0,.36-.3.64-.68.64s-.68-.29-.68-.64.3-.64.68-.64.68.29.68.64Z" fill="#c29a55"/><path d="M23.66,26.02c0,.35-.3.64-.68.64s-.68-.29-.68-.64.3-.64.68-.64.68.29.68.64Z" fill="#c29a55"/><path d="M22.31,24.54c0,.36-.3.64-.68.64s-.68-.29-.68-.64.3-.64.68-.64.68.29.68.64Z" fill="#c29a55"/><path d="M21.73,23.2c0,.35-.3.64-.68.64s-.68-.29-.68-.64.3-.64.68-.64.68.29.68.64Z" fill="#c29a55"/><path d="M22.83,20.97c0,.35-.3.64-.68.64s-.68-.29-.68-.64.3-.64.68-.64.68.29.68.64Z" fill="#c29a55"/></symbol></defs><text transform="translate(43.97 20.85)" fill="#7c170f" font-family="Georgia, Georgia" font-size="16"><tspan x="0" y="0">Еще кое-что...</tspan></text><a xlink:href="https://andreich1310.github.io/wedding/qr_code.html"><use width="47.36" height="47.37" transform="translate(78.74 260.75)" xlink:href="#uuid-bdec9dfa-1046-490d-a51f-4a8cc6baaff9"/></a><text transform="translate(150.84 266.89) rotate(28.56) skewX(-.75)" fill="#e20d1c" font-family="SegoeScript, &apos;Segoe Script&apos;" font-size="12.04"><tspan x="0" y="0">жми</tspan></text><path d="M158.67,279.37c-3.14,1.89-6.63,3.31-10.33,3.47-1.45.06-2.87-.12-4.3-.3-1.9-.24-3.8-.38-5.72-.12-2.14.29-4.19,1.02-6.07,2.07l.55.42c.38-1.03,1.03-1.88,1.88-2.57l-.59-.45c-.54,1-.96,2.04-1.24,3.14-.05.18.06.43.26.46,1.34.2,2.68.39,4.02.59.47.07.68-.65.2-.72-1.34-.2-2.68-.39-4.02-.59l.26.46c.27-1.04.65-2.02,1.16-2.96.21-.39-.27-.71-.59-.45-.96.77-1.65,1.75-2.08,2.9-.12.32.28.57.55.42,1.73-.97,3.61-1.65,5.57-1.95s3.9-.14,5.83.11c1.43.18,2.86.36,4.3.3,1.52-.06,3.03-.33,4.49-.75,2.19-.64,4.27-1.64,6.22-2.82.41-.25.04-.9-.38-.65h0Z" fill="#e3131d"/><text transform="translate(27.71 37.3) scale(.97) skewX(-14.78)" fill="#010101" font-family="SegoeScript, &apos;Segoe Script&apos;" font-size="12"><tspan x="0" y="0" xml:space="preserve">       </tspan><tspan x="33.59" y="0" xml:space="preserve">Наша семья очень     </tspan><tspan x="-3.1" y="13" xml:space="preserve">          любит ц</tspan><tspan x="104.56" y="13" letter-spacing=".18em">в</tspan><tspan x="112.3" y="13">еты! </tspan><tspan x="146.89" y="13">Но </tspan><tspan x="4.29" y="26" xml:space="preserve">     че</tspan><tspan x="41.31" y="26" letter-spacing=".15em">р</tspan><tspan x="50.54" y="26">ез несколько дней </tspan><tspan x="-4.99" y="39" xml:space="preserve" letter-spacing=".34em">   </tspan><tspan x="21.5" y="39">после</tspan><tspan x="57.01" y="39" letter-spacing=".34em"> </tspan><tspan x="65.84" y="39">торжества,</tspan><tspan x="146.25" y="39" letter-spacing=".34em"> </tspan><tspan x="155.08" y="39" xml:space="preserve">мы  </tspan><tspan x="-1.83" y="52">улетаем</tspan><tspan x="55.59" y="52" letter-spacing="2.05em"> </tspan><tspan x="85.02" y="52">в</tspan><tspan x="90.6" y="52" letter-spacing="2.05em"> </tspan><tspan x="120.04" y="52">сва</tspan><tspan x="140.55" y="52" letter-spacing=".18em">д</tspan><tspan x="148.62" y="52">ебн</tspan><tspan x="167.63" y="52" letter-spacing=".15em">о</tspan><tspan x="175.62" y="52">е </tspan><tspan x="1.34" y="65">путешествие</tspan><tspan x="90.05" y="65" letter-spacing=".04em"> </tspan><tspan x="95.3" y="65">и</tspan><tspan x="103.56" y="65" letter-spacing=".04em"> </tspan><tspan x="108.81" y="65">не</tspan><tspan x="122.69" y="65" letter-spacing=".04em"> </tspan><tspan x="127.94" y="65">сможем </tspan><tspan x="4.5" y="78">полностью</tspan><tspan x="78.02" y="78" letter-spacing="1.44em"> </tspan><tspan x="100.06" y="78">насладиться </tspan><tspan x="7.67" y="91">вашими</tspan><tspan x="64.08" y="91" letter-spacing="3.75em"> </tspan><tspan x="113.86" y="91">красивыми </tspan><tspan x="67.31" y="104" xml:space="preserve">букетами.  </tspan></text><text transform="translate(20.77 167.81) scale(.97) skewX(-14.78)" fill="#010101" font-family="SegoeScript, &apos;Segoe Script&apos;" font-size="12"><tspan x="0" y="0">Мы</tspan><tspan x="20.67" y="0" letter-spacing="1.58em"> </tspan><tspan x="44.47" y="0">с</tspan><tspan x="50.72" y="0" letter-spacing=".18em">д</tspan><tspan x="58.79" y="0">елали</tspan><tspan x="96.96" y="0" letter-spacing="1.58em"> </tspan><tspan x="120.75" y="0">ссылку, </tspan><tspan x="3.17" y="13">пе</tspan><tspan x="17" y="13" letter-spacing=".15em">р</tspan><tspan x="26.23" y="13">ейдя</tspan><tspan x="54.88" y="13" letter-spacing=".36em"> </tspan><tspan x="63.99" y="13">по</tspan><tspan x="78.98" y="13" letter-spacing=".36em"> </tspan><tspan x="88.08" y="13">которой,</tspan><tspan x="149.55" y="13" letter-spacing=".36em"> </tspan><tspan x="158.66" y="13">вы </tspan><tspan x="6.34" y="26">сможете</tspan><tspan x="67.58" y="26" letter-spacing="3.23em"> </tspan><tspan x="111.18" y="26">оставить </tspan><tspan x="9.51" y="39">сумму,</tspan><tspan x="60.41" y="39" letter-spacing=".29em"> </tspan><tspan x="68.69" y="39">отложенную</tspan><tspan x="156.27" y="39" letter-spacing=".29em"> </tspan><tspan x="164.55" y="39">на </tspan><tspan x="12.68" y="52">букет</tspan><tspan x="51.25" y="52" letter-spacing=".64em"> </tspan><tspan x="63.73" y="52">не</tspan><tspan x="77.21" y="52" letter-spacing=".18em">в</tspan><tspan x="84.95" y="52">есте.</tspan><tspan x="116.77" y="52" letter-spacing=".64em"> </tspan><tspan x="129.24" y="52">Далее</tspan><tspan x="165.36" y="52" letter-spacing=".64em"> </tspan><tspan x="177.83" y="52">с </tspan><tspan x="15.84" y="65">нами</tspan><tspan x="53.42" y="65" letter-spacing="-.06em"> </tspan><tspan x="57.55" y="65">свяжется</tspan><tspan x="122.85" y="65" letter-spacing="-.06em"> </tspan><tspan x="126.98" y="65">магазин </tspan><tspan x="19.01" y="78">и</tspan><tspan x="27.28" y="78" letter-spacing=".41em"> </tspan><tspan x="36.98" y="78">уточнит,</tspan><tspan x="107.3" y="78" letter-spacing=".41em"> </tspan><tspan x="117.01" y="78">когда</tspan><tspan x="152.19" y="78" letter-spacing=".41em"> </tspan><tspan x="161.89" y="78">нам </tspan><tspan x="22.18" y="91">удобнее</tspan><tspan x="67.24" y="91" letter-spacing=".33em"> </tspan><tspan x="76" y="91">получить</tspan><tspan x="142.91" y="91" letter-spacing=".33em"> </tspan><tspan x="151.67" y="91" xml:space="preserve">букет.  </tspan></text><path d="M22.32,78.04c-.33.12-.65.2-.97.35-.18.08-1.86,1.25-1.73.48.05-.29,1.71-1.23,2.11-1.27.02-.19-.27-.1-.4-.1-.85.04-2.06.86-2.81,1.33-.39.25-1.37,1.23-1.22.29l1.95-1.31c-1.13-.06-1.99,1.01-3.03,1.12-.05-.22.1-.27.25-.37.28-.2,1.81-.76,1.86-.85.05-.07-.1-.37-.08-.56.03-.31.32-.57.34-.76.06-.37.17-.8.21-1.13.07-.59-.07-2.72.36-3.04.08-.06.27-.05.31-.09.09-.11-.12-.39.18-.66.46-.4,1.24-.23,1.29-.28.02-.02,0-.39.09-.6.05-.11.5-.39.54-.53.16-.45.32-2.66.34-3.25.01-.28-.03-.56-.03-.84-2.62.52-1.62-1.68.14-2.05-.02-.46.03-3.05-.4-3.14-.99.04-1.94.21-2.94.23-1.78.03-4.15-.24-5.5-1.51-1.45-1.37-2.24-5.33-2.6-7.3-.07-.39-.47-2.73-.35-2.85h.34c.01.3,0,.61.06.92.34,1.69.98,3.87,1.5,5.54.29.94.87,2.84,1.59,3.46.43.37,2.7,1.14,3.23,1.12l4.15-.15c-.28-.72-.3-1.5-.48-2.24-.41-1.76-1.07-3.46-1.47-5.22-.24-1.07-.55-2.43-.39-3.5l-5.74.21s-.22-.28-.16.05c.18.92.44,1.82.55,2.75-.31.1-.33-.36-.4-.57-.23-.74-.29-1.57-.39-2.34-.53,0-1.14-.04-1.65-.17-.12-.03-.58-.12-.47-.31l6.88-.14s-.31-.47-.36-.49c-.2-.11-3.1.04-3.59.07-.27.02-.51.13-.78.15-.58.05-2.29,0-2.71.31-.12.09-.09.51-.33.55-.27.04-1.09-.26-.83-.73.08-.15,1.3-.61,1.46-.62l1.65-.06-6.67-.43c-.32-.08-2.48.34-2.07-.38.14-.25,2.12-.74,2.53-.82,1.79-.39,3.87-.63,5.66-.18.54.14,1.1.44,1.64.59.11.03.37.14.34-.07-2.41-.84-4.38-2.51-6.35-4.06-.16-.13-.39-.16-.52-.27-.5-.42-.37-1.49-.42-2.07-.51.12-.24.39-.37.69-.1.26-.57.8-.56.98.02.53,1.58,1.07.38,1.96.55-.27,2.44-.96,1.67.28-.84,1.35-3,.79-4.24.29-.91-.36-1.2-.79-.75-1.73.18-.38.81-.79.83-1.08,0-.15-.5-1.06-.57-1.46-.28-1.64.6-1.99,2.07-1.63.34.08.71.33.99.35.84.08,1.56-.77,2.27.26.65.95-.38,2.84.07,3.55,1.35,1.08,2.81,2.17,4.36,2.95.35.18,1.21.63,1.53.71.06.02.19.02.17-.06-.62-.58-1.31-1.28-1.73-2.02-.26-.45-1.28-2.79-.32-2.82.26.04.41.38.55.59.52.8,1.01,1.77,1.44,2.62.15-.07.21-.2.39-.24.82-.18,3.93,1.24,4.07,1.09-.18-.48-.58-1.03-.91-1.42-.06-.08-1.43-1.28-.61-.98.24.09.55.53.78.69l1.32,1.81c-.11-1.39-.4-2.78-.43-4.15-2.28-1.86-4.89-4.25-5.86-7.09-.3-.87-.59-1.67.65-1.63.77.03,2.89,2.02,3.45,2.65l1.56,2.14-1.46-5.59c-.41.28-1.04-.31-1.37-.59-1.79-1.53-2.18-3.9-3.3-5.84.09-.1.12-.18.28-.18.29,0,1.57,1.39,1.8,1.71l2.33,4.12c0-.54-.1-1.08-.19-1.61-.09-.55-.49-3.06-.67-3.36-.08-.13-.34-.01-.53-.16-.1-.08-.78-1.46-.8-1.62-.04-.31.15-.69-.04-1.06.26-.04.42.22.56.39l1.12,2.25-.02-.56.23.22c.01-1.05.32-2.1.45-3.13.06-.48-.26-1.52.4-1.71.33-.09.48.74.5.95.06.06,1.14-1.38,1.12-.34,0,.37-.33.38.25.46.12.52-1.09,1.77-1.49,1.9-.19.06-.27.09-.27-.14,0-.52.73-.9-.03-1.07-.16,1.36-.9,2.8-.42,4.19l-.34-.1c0,1.45.34,2.87.49,4.31.95.28.23.52.19.79-.01.1.08.5.11.66.31,1.92,1.02,3.77,1.44,5.66.2.02.1-.26.09-.38-.07-.52-.16-.93-.16-1.48-.01-1.96.52-6.05,1.31-7.83.06-.14.36-.62.45-.23.04.15-.58,2.24-.67,2.65-.4,2-.75,4.39-.71,6.43,0,.17.08.75.26.83.77-2.68,1.23-5.44,1.41-8.23.06-.94-.18-2.15.29-3l-.07,5.75c.88-.3.55-.54.67-1.18.25-1.42,1.1-.6,1.2-.69.05-.61.45-1.12.74-1.64.05-.08.22-.08.22-.16,0-.16-.14-.36-.15-.55-.03-.51.64-.62.96-.91.69-.64.83-1.76,1.84-2.07.81-.25.95.55,1.05.54.15,0,.38-.22.66-.26,1.13-.16,1.98-.2,1.93,1.17,2.39-.98,1.64,1.32,1.41,2.64-.02.14.07.32.04.49-.2,1.09-.67,1.9-1.89,1.97-.13,0-.37-.11-.39-.1-.03.02-.13.41-.25.53-.54.54-1.48-.06-1.89.16-.6.32-1.05,3.44-1.21,4.17.65-.85,2.24-3.03,3.36-3.06.24,0,.2.07.19.28-.05.62-1.31,1.88-1.73,2.43-.42.56-2.19,2.75-2.31,3.2-.11.42-.06,1.06-.02,1.5.07.76,1.04,5.28.66,5.56-.41.29-.74-.65-.61-.99l-.09.68c-.76.04-.47-.28-.66-.76-.1-.26-.55-.61-.71-.88-.05.32-.21,1.72-.52,1.81-.58.16-.38-.72-.42-.75-.04-.03-.24,0-.34-.05-.28-.18-.28-1.28-.29-1.63l-.27,1.11c-.12.31.14,1.37-.38,1.39-.48.02-.24-1.28-.2-1.6.04-.36.28-1.75.46-1.97.75-.92.91,1.28.87,1.72l.54-.87c-.33-.65-1.81-4.17-1.19-4.63.37-.27.95.5,1.11.74.86,1.33,1.04,2.96,1.71,4.14.07.12.18.27.32.3-.07-.34-.05-1.8-.19-2.02-.02-.04-.28.34-.44-.52-.09-.48.05-1.02,0-1.3-.02-.1-.18-.21-.2-.35-.31-1.93-.67-3.81-1.69-5.52-.2,0-.1.49-.09.62.23,1.74,1.16,3.61,1.67,5.3-.13,0-.24.07-.35-.06-.12-.14-.48-1.09-.58-1.35-.49-1.26-.85-2.6-1.09-3.93-.19.1-.21.37-.37.58-.57.73-1.05,1.2-1.76.29-.02.44-.61,2.65-.84,2.83-.09.07-.29.01-.31.04-.05.05.42,1.18.48,1.42.26,1.05.59,2.31.8,3.36.08.37.16,1.85.22,1.94.02.03.64-.05.69.14.07.27-.01.35-.28.3-.33-.06-.19-.31-.41-.33l-.05.34c-.54-1.21-.61-2.63-.94-3.92-.74-2.92-1.73-5.06-3.91-7.19-.25-.24-1.43-1.33-1.65-1.4-.06-.02-.06.23-.23.32-.2.11-.59.13-.83.17.64,1.97,2.26,3.87,3.78,5.28.35.33,2.26,1.74,2.36,1.94.1.22-.05.39-.01.59.24,1.21.69,2.42.68,3.67h-.34s-.13-.32-.13-.32c-.08.7.16,1.25.3,1.91-.25.31-.82-1.33-1.04-1.29l-4.22-.89c-.18.1.01.2.06.28.21.34.65.77.78,1.04.08.16,0,.33-.1.34-.27.02-.98-1.07-1.18-1.32l-1.88-3.08c.27,1.48,1.21,2.91,2.24,3.99.2.21.53.13.31.43.33-.03,2.21.57,2.29.48.04-.05,0-.65.39-.79.87-.29,1.19.98,1.83,1.05.48.05.86-.14,1.26-.17.3-.02.57.13.9.08.35-.05.54-.36,1.02-.38.5-.02.85.3,1.27.31.32,0,.59-.14.9-.16.93-.04,1.86-.05,2.79-.1-.08-.37.03-.72.05-1.07.09-1.91,1.69-6.16,2.76-7.82.15-.23.5-.32.6-.65-.44.05-.37.02-.53-.38-.3-.01-.53.59-.99.48-.06-.02-.87-.83-.87-.92,0-.34.65-.83.97-.93.37-.12,1.3,0,1.36-.05.16-.12.68-1.98,1-2.02.27-.03.08.28.05.37-.1.32-.3.59-.37.96-.13.68.02,1.5-.17,2.18.19-.07.82.09.9.21.01.02.02.5,0,.52-.09.15-1.02.71-1.06.76-.08.12-.45,2.28-.66,2.82-.55,1.4-2.19,3.31-2.38,4.67-.02.11-.08.52.12.49.19-.87,1.26-1.03,1.76-1.48.6-.53,1.28-1.53,1.92-2.15,1.33-1.3,2.86-2.39,4.2-3.65.11-.1.48-.15.2-.35-.58-.42-1.84-.2-2.3-.62-.72-.66.03-1.97-.14-2.72-.08-.36-.68-.27-.62-1.33.02-.45.55-1.61,1.02-1.68.55-.07,1.15.8,1.22.75.09-.41.56-1.83,1.08-1.21l.38.82,1.06-2.34c.36-.54,1.3.15,1.59.51.09.11.13.36.14.37.15.1,2.26-1.46,2.69.46.28,1.24-.02,1.9-.17,3.01-.05.35.06.72,0,1.09-.13.95-1.05.51-1.15.68-.09.17-.14.85-.26,1.17-.5,1.35-1.32.62-1.81-.3l-.22.06c-2.42,2.02-5.09,3.86-7.29,6.13-.2.21-1.32,1.42-1.19,1.57l.45-.19c.49.26-.93,1.25-1.17,1.32-.64.18-.35-.55-.67-.4-.04.02-.59.6-.6.64-.09.23.16.15.29.16,2.9.1,5.99-.64,8.75-.55,1.11.03.55.72.14,1.33l-4.78.55-1.06,10.29-.28.12-.03-.96,1.13-9.46c-.21.04-.18.24-.23.39-.41,1.37-.34,2.85-.4,4.26l-.45-.16.62-4.47-3.52.24c.1,1.71.22,3.41.3,5.12.02.4.17.76.17,1.23,0,.41-.13,2.02-.55,2.1-.28.06-.21-.66-.21-.84.02-1.08.13-2.19.11-3.26-.01-1.45-.14-2.9-.16-4.34l-.91.04.38.94.56,9.17c.31.11.25-.34.38-.35.35-.03-.04.88-.13,1.02,1.56-.08,3.07-.57,4.64-.62.32-1.46.83-2.86,1.13-4.34.34-1.65.36-3.87.8-5.36.13-.43.56-1.13.67-.37.25,1.72.13,3.31-.05,5.03l-.35-.16c.09-1.43.3-2.98.18-4.41-.01-.14.07-.42-.13-.39-.31,3.35-.39,6.81-1.92,9.88,1.95-.02,2.86-1.11,3.34-2.86.58-2.12.82-4.98.95-7.19.01-.22-.12-.41-.08-.6.12-.58.63-.35.65.26.03.79-.21,1.81-.26,2.61-.03.58.09,1.2.05,1.79-.13,2.05-.94,5.49-3.15,6.24l-6.58,1.07c.03.5,0,1.02.05,1.52.06.56.38,1.45.38,1.93,0,.32-.32.55-.56.13-.44-.76-.27-2.57-.22-3.46l-5.56.54c.46,1.18.38,2.24.36,3.48.29-.08.53.18.75.2.38.04,1.44.08,1.82.06.63-.03,1.9-.47,2.37-.44.18.01.39.2.3.33-.31.44-4.19.54-4.86.33-.53-.17-.53-.57-1.23-.23-.11.05-.78.6-.81.67-.28.93,1.33.2,1.71.25.48.06.63.54.99.59.71.1,1.06-.5,1.57-.52.41-.01.56.47,1.03.42.66-.07.61-.87,1.05-1.01.38-.12.72.52,1.19.24.44-.27.32-.58.39-.96.14-.76.77.05.3.93-.36.68-.55.29-.45,1.43.1,1.14.59,2.14,1.14,3.11-.7.74-1.34-1.23-1.42-1.76-.08-.55.05-1.6-.08-2-.03-.11-.46-.14-.58-.16l.6,3.87c-.02.28-.39.58-.61.31-.43-.55-.52-3.67-.51-4.49-.16.23-.53.47-.65.71-.25.51-.03,2.33.05,2.98.04.38.62,1.79-.36,1.21-.55-.33-.5-2.64-.52-3.32-.01-.63.36-1.04-.66-1.16l.35,4.95c.43.28,3.19-.66,3.9-.59.64.06.94.83.5,1.21-.56.47-2.92.87-3.7.94-1.53.13-2.91-.13-4.38-.49-.48-.12-.62-.51-1.11-.11-.7.57.24.92.75,1.07,1.75.51,6.9-.18,8.79-.66.15-.04,1.17-.42,1.2-.47.03-.05-.62-1.4.15-.68.74.69-.25,1.19-.8,1.44-1.97.87-4.39.76-6.52.86-1.37.06-3.01.43-4.28-.46-.19-.14-.17-.36-.36-.38-.47,1.41.99,1.65,2.07,1.71,1.21.07,4.18.02,5.33-.17.31-.05.27-.67.91-.41.17.07.31.29.44.31.65.07,2-.51,2.62-.49.37.01.47.46-.1.56-.71.13-2,.15-2.58.32-.1.03-.13.25-.25.34-.42.3-.55-.12-.91-.18-.32-.05-1.5.04-1.78.18-.17.09-.18.42-.59.42-.51,0-.27-.38-.3-.39-.34-.19-.99.22-1.21.25-.13.02-.31-.18-.55-.19-.64-.04-1.48.15-2.15.19-.26-.35-.64-.52-1.01-.74l-.28,1.7c.95.06,1.83.23,2.8.13,1.05-.11,2.19-.57,3.27-.69,1.33-.14,2.72.09,3.99-.03.91-.09,1.96-.4,2.88-.56.07-.11-.74-1.87-.74-2.2,0-.16.09-.27.25-.26.19.04.62,2.1.86,2.48.18.3.7.38.64.85-.14,1.11-2.29.72-3.05.79-1.59.15-3.36.71-4.97.97-.6.1-1.48.07-2.04.19-.05,0-.63.51-.71.59.57-.2,2.27-1,2.27-.08.28-.2,1.23-.59,1.36-.11.05.2-1.21.67-1.29.66-.17-.01-.15-.47-.24-.44-.39.15-2.06.83-2.35.75-.54-.15.06-.61.24-.78ZM16.65,31.89c.05-.06-.66-.94-.77-1.11-.89-1.48-1.55-3.19-2.85-4.39.77,2.06,1.63,4.31,3.61,5.51ZM28.07,27.5s-.58.32-.64.34c-1,.38.05-1.85-.58-1.92-.03,0-.59.09-.61.11-.22.19-.13,1.73-.34,2.03-.05.07-.66.4-.87.61-.16.15-.89,1.09-.71,1.25.73.11,1.42-.25,2.09-.31.18-.02.56.13.61.09.22-.17.64-1.41.82-1.7.06-.09.12-.17.21-.23.21.26.59.25.82.41.33.24,1.19,2,1.6,1.81.55-.26.95-2.4.59-2.85-.41-.51-.97.5-1.36.41-.71-.15-.41-1.1-.5-1.18-1.04-.25-.83.81-1.13,1.14ZM23.92,28.36l.3.55c.49-.69,1.44-1,1.35-1.96-.6.44-.82,1.29-1.65,1.42ZM28.58,28.66c-.07-.04-.26-.04-.31,0-.08.06-.55,1.3-.75,1.48,1.58-.57,1.05.3,1.58.95.53.65,1.41.1,1.51-.61-1.03.38-1.58-1.59-2.02-1.82ZM25.81,30.32c-.89.07-1.87.6-2.13-.6-.23.15-.71,1.01-.69,1.21.07.56,2.61.06,2.81-.61ZM28.43,30.57c-.13-.1-.7.08-.89.14.11.24.46.13.36.55-.41.03-.69.12-.86-.31-.21.15-.48.7-.32.92.52.27,1.93.47,1.99-.36,0-.07-.24-.9-.27-.93ZM23.37,32.11s-.33.03-.52-.09c-.2-.13-.54-1.24-.82-.77-.41.69.53.84.65,1.19.08.25.02.56.05.82.64.23.82-.98.63-1.15ZM24.67,39.5c.09-2.42.79-4.8,1.43-7.13l-.36-1.14c-.68.48-1.21.58-2.03.41.21.57.22,1.25-.18,1.74-.77.94-1.9-.89-2.44-.19-.61.79.61.75.67.95.05.18-.52.74-.66,1.01-.08.15-.39.76-.29.87.51-.4.85-.64,1.03-1.28l.41.21c0-.16-.04-.41.09-.52.55-.44,1.32,1.62,1.47,1.95l.88,3.1ZM38.12,34.36c.24-.66,1.43-3.1.07-3.26-.24-.03-.15.09-.21.24-.42,1.02-1,2.05-.74,3.18l.89-.16ZM41.44,34.37c.27-1.61.12-3.83-1.89-2.11l-.74,1.87c1.02-.17,1.68-.22,2.63.24ZM34.74,34.13c-.3-.27-.48-1.45-1.12-.49-.24.36-.35.92-.16,1.33.13.27.42.29.51.43.4.61-.29,1.93.05,2.6.11.21.86.21,1.16.28.52.14.8.49,1.4.27.45-.16,1.43-1.24.56-1.55-.76,1.08-1.57.79-2.33-.09-1.2-1.38.23-1.67.8-2.85-.11-.1-.21.16-.4.18-.13.02-.38-.04-.48-.13ZM36.26,35.91c1.29-.69.21-.88.08-1.44-.07-.3.06-.53.06-.82-.21.11-.24.46-.38.68-.21.32-1.23,1.38-1.25,1.58-.06.94,1.9,2.17,2.18.42.21-.15.67.59.87.61.42.03.78-.71,1-.67.3.06.06.49.14.67.02.05.55.76.63.85.39.47.31-.66.39-1,.31-1.3,1.14-.56,1.29-.72.02-.68-.11-1.37-.9-1.44-.16-.01-1.03.02-1.07.05-.02.02-.06.37-.17.55-.67,1.09-1.68-.01-1.76.07-.05.74-.7,1.36-1.47,1.16-.98-.25,1.12-2.52.36-.55ZM28.69,34.39c-.08-.07-1.04.72-1.16.83-.6.55-1.77,1.95-2.04,2.7-.08.22-.1.41-.06.65l3.26-4.18ZM38.94,34.69s-1.08.15-1.12.38c.51.27,1.09.33,1.12-.38ZM7.36,42.39c.05-.64.45-2.8-.23-3.09-.4-.17-.72.14-1.08.2-1.06.17-1.58-.43-2.4-.36-1.46.12-.16,1.76-.18,2.55-.02.6-.32.51-.54.81-.81,1.09-.58,1.36.72,1.69,1.15.29.47-.08.8-.39.15-.14,1.08-.32.99-.7-1.21-1.04-.95-1.18-.2-2.28.19-.27.51-1.32.96-.64.11-.07.24-.45.33-.46.32-.03.11,2.53.84,2.67ZM30.44,38.61c-.25-.04-.3.17-.39.35-.65,1.22-1.52,3.15-2.03,4.44-.16.41-.34.86-.42,1.3,1.27-1.87,2.61-3.77,2.85-6.08ZM24.51,44.46c-.22-1.04-.67-2.02-1.08-3l-.9-1.44c.07.88.47,1.77.84,2.56.29.62.7,1.38,1.15,1.88ZM14.11,47.29c-.31.19-2.31-.6-2.84-.71-2.19-.44-4.21-.06-6.36.4-.02.15.22.17.32.18,2.27.28,5.27.03,7.36.44.1.02.04.2.25.22,1.22.11,2.78-.24,4.04-.16l-2.59-.58c-.17-.05-.14.18-.18.2ZM37.34,46.81c-1.42.08-2.83.38-4.24.5-2.05.17-4.13.16-6.14.21-1.08.03-2.2,0-3.24.29l.74.45c2.9-.35,5.85-.41,8.75-.75.72-.08,3.61.13,4.03-.31.13-.14.12-.22.1-.4ZM17.81,48.09c.26.39.67.72,1.03.24.08-.39-.84-.25-1.03-.24ZM26.71,48.67l-1.81.18c.44,1.21.16,2.67-1.38,2.64l1.33,8.3c-.15.04-.27-.04-.35-.15-.18-.23-.73-3.66-.83-4.26-.17-1.01-.2-3.27-.67-4.09-.05-.09-.61-.45-.64-.43.05.92-1.37,3.14-2.26,1.88-.69-.98.92-2.81-1.08-3l2.44,10.5,6.56-.68c.09-.43-.42-.11-.56-.22-.35-.27-.56-5.34-.58-6.12-.04-1.39.26-2.98-.2-4.32-.03-.08.03-.15.04-.23ZM23.97,48.9c-.08-.04-.64-.02-.66,0-.02.02.03.34,0,.48-.14.49-.36.64-.73.96l.29.27c.13-.22-.11-.59.32-.46.17.05.15.62.2.67.07.06.77-.04.87-.17.24-.3-.05-1.62-.28-1.75ZM22.86,49.04c-.66-.14-.54.25-.88.55-.18.16-.44.1-.45.29.6,0,1.47-.05,1.33-.84ZM20.59,52.39c.65.28,1.34-1.68,1.29-1.9-.05-.19-.6-.16-.84-.27-.42-.19-.51-.81-1.01-.74,1.04.78.39,1.82.56,2.91ZM23.64,70.49l-.14-3.72s-.36-.35-.47-.38l.02,3.78c-.6.9-.61-.42-.61-.88,0-1,.08-2.04.12-3.05,0-.15.05-.26.1-.39l-.45.02c.24,1.26.1,2.71-.12,3.98-.1.56-.17.3-.51.67.75.3,1.48.34,2.29.25,0-.12-.22-.2-.24-.27ZM24.66,70.23c-.21-1.19.03-2.76-.15-4-.12.09-.44.25-.5.36-.11.19.02,2.65.05,3.1.03.38.23.66.04,1.06l.8-.03s-.23-.41-.25-.5ZM29.44,70.45c-2.46.7-5.42,1.34-7.89.4-.17-.05.02.41.35.56,1.38.64,3.66.38,5.12.13.38-.07,2.42-.46,2.55-.65.05-.08-.14-.32-.13-.44ZM32.47,75.53c.03-.24-.08-.44-.32-.52-1.25.08-2.5.67-3.72.78-1.31.13-2.63-.17-3.98.04-1.03.15-2.15.69-3.16.79-.59.06-1.6-.22-1.93-.16-.1.02-.18.46-.28.58.55.09,1.15-.16,1.64-.18,1.16-.03,2.35.1,3.53-.01,1.89-.18,3.75-.9,5.54-1.1.88-.1,1.81.06,2.66-.21Z" fill="#7c170f"/><path d="M35.93,44.86s-.14.74-.11.77l3.26.45-1.09-.36c-.18-.05-1.22-.07-1.26-.12-.02-.02,0-.25-.01-.34.38-.22,2.1.34,2.17.26.08-.1-.14-.55.49-.47.34.04.57.58.81.53.29-.06.79-1.1,1.91-1.08,1.46.02.61,1.54.98,2.01.15.19.97-.02,1.09.36.12.37-.36,1-.37,1.12,0,.23.94,1.17.83,2.1-.1.83-.63.54-1.14.7-.16.05-.29.25-.49.31-1.07.29-1.71-.43-2.19-1.25-.27,0-.65.81-1.32.81-.95,0-.65-1.47-.72-2.14-.03-.29-.29-.65-.24-.87.08-.41,1.1-.77,1.49-.81.19.43-1.02.52-1.02.88.51.66.29,1.54.52,2.3,1.89-1.79,1.52.37,2.75.64.65.14.62-.18.99-.3.33-.1.76.1.82-.34.12-.85-1.08-1.71-.83-2.28.09-.2.5-.33.37-.69-.56-.1-.95.31-1.47.17.06.19.3.19.47.37.41.46.41.75.15,1.28-.4.15-.69-.39-.98-.41-.3-.02-1.18.7-1.19-.46-.02-1.22,1.49.26,1.93.33.08-.1-.2-.47-.3-.55-.39-.33-.99-.13-.66-.76-1.86-.25-3.7-.69-5.57-.91-.32-.04-.54.11-.76.1-.12,0-1.51-.36-1.57-.41-.43-.37.22-.54.55-.64-.49-.62-.88-2.03.14-2.32.2-.06.4.09.61.03.36-.1.35-.68,1.09-.3.76.4,1.02,1.53.32,2.13-.14.12-.39.16-.43.2ZM36.11,44.15c.04-.33,0-1.29-.55-1.11-.25.08-.06,1.09-.02,1.13.04.03.44-.03.57-.02ZM34.71,43.41h-.34c-.12.76.27,1.22.43,1.89l.43.12c-.06-.28.16-.71.09-.95-.02-.07-.93-.24-.62-1.06ZM42.58,46.85c.19-2.18-.48-2.42-1.85-.78.55.4,1.22.56,1.85.78Z" fill="#7c170f"/><path d="M35.54,25.45c.69-.46,1.43-.91,2.29-.99.38-.03,2.5.11,2.14.71-.08.14-2.68.65-3.18.83-.49.17-2.1.8-2.4,1.11-.32.33-1.29,2.24-1.55,2.76-.08.17-.22.33-.19.53.31-.36,2.29-2.03,2.66-1.79.08.06.1.38.05.52-.32.95-2.69,2.39-3.44,3.38-.35.46-.4.95-.81,1.21-.55-.56.4-1.31.65-1.8.33-.66.61-2.06.96-2.92.62-1.53,1.41-2.54,2.14-3.91.29-.54.99-2.62,1.35-2.89.15-.11.38-.15.35.1-.05.48-.61.92-.63,1.43,1.28-1.16,2.26-2.25,4.18-2.06.42.04,1.67.64,1.31,1.19-.24.37-.95-.27-1.29-.4-1.81-.67-3.08.8-4.06,2.11-.09.12-.62.78-.54.86ZM38.47,24.89c-.78-.02-1.41.04-2.11.4-.13.06-.45.23-.48.37l2.59-.77ZM34.65,29.32c-.4.16-.83.45-1.17.72-.15.12-1.07.9-.93,1.05.75-.51,1.51-1.08,2.1-1.77Z" fill="#7c170f"/><path d="M13.99,40c.03-.38.31-.51.67-.48-.12.5.23,1.32.17,1.74-.11.79-1.76.41-1.27-.71.02-.03.52-.32-.09-.53-.21-.07-.32.57-.48.75-.45.51-1.43.3-1.33-.23.1-.48.37-1.18.81-1.44,0-.15-2.21-1.6-2.54-1.74-.5-.21-2.85-.79-3.21-.57-.03.02-.12.28-.31.42-.26.2-1.85,1-1.73.36.75-.78,1.1-1.39,2.28-1.38,1.11.01,2.71.31,3.68.88.96.56,1.51,1.41,2.51,1.79.78.3.21.83.84,1.13Z" fill="#e52521"/><path d="M18.37,60.25c-.29.06-.2-.04-.29-.21-.26-.52-.52-1.48-.7-2.07-.22-.73-1.83-6.17-1.61-6.42.03-.04.34-.03.4.1.96,2.8,1.31,5.78,2.19,8.6Z" fill="#e52521"/><path d="M13.66,34.15c.17-.18,1.12.97,1.22,1.09,1.09,1.26,2.42,3.11,3.15,4.6.08.16.28.12,0,.35l-4.37-6.04Z" fill="#e52521"/><path d="M31.32,53.35c.18.2-.57,4.64-.78,5.21-.05.14-.12.53-.32.46-.23-.07-.1-.26-.08-.39.17-1.37.41-3.02.7-4.37.02-.09.22-1.21.48-.92Z" fill="#e52521"/><path d="M15.26,59.13c-.33.34-.64-.75-.71-.94-.46-1.38-.99-3.55-1.26-4.99-.03-.19-.14-.27.08-.43l1.88,6.36Z" fill="#e52521"/><path d="M31.36,40.88c-.05.04,0,.27-.2.19-.54-.21.47-.92.71-1.08.39-.25,1.67-.86,2.08-.92.41-.06.52.21.13.45-.86.53-1.77.61-2.72,1.36Z" fill="#e52521"/><path d="M28.68,77.23c.07.05,1.81-.57.69.5-.47.07-1.08.11-1.55.1-.73-.02-.36-.74.24-.87.64-.15.47.17.62.28Z" fill="#e52521"/><path d="M26.01,60.54c.44-.53.64,2.1.67,2.27.03.17.57,1.65-.15.98-.1-.09-.44-1.05-.44-1.17l-.08-2.08Z" fill="#e52521"/><path d="M13.67,38.4c-.76.84-1.81-1.28-.55-1.26.14,0,.53.06.6.16.13.17.1.94-.05,1.11Z" fill="#e52521"/><path d="M18.43,27.54c.3.28-.5,1.49-.9,1.5-.81.01-.36-1.22.21-1.42.13-.05.64-.12.69-.08Z" fill="#e52521"/><path d="M28.01,40.5c.06.05.02.4-.09.51-.14.15-.69.27-.94.44-.13.09-.38.72-.69.12-.38-.72,1.64-1.16,1.73-1.08Z" fill="#e52521"/><path d="M23.1,62.05c-.06-.32-.35-.73-.38-1.11-.02-.24.22-.24.33-.17.09.06.41,1.61.42,1.83,0,.25-.06,1.07-.3,1.2-.07-.55.03-1.22-.06-1.75Z" fill="#e52521"/><path d="M16.09,32.25c.12.41-.53,1.42-.99,1.12-.55-.37.43-1.34.99-1.12Z" fill="#e52521"/><path d="M44.36,33.47c-.71-.19-.41-1.67,0-1.69.41-.02,0,.79,0,.87-.02.24.17.52,0,.82Z" fill="#e52521"/><path d="M20.46,42c.08.06.29-.01.31,0,.23.18-.22.25-.23.3-.01.18.18.4.14.6-.31.36-1.05-1.56-.57-1.56.19,0,.27.59.33.64Z" fill="#e52521"/><text transform="translate(137.25 148.63) scale(.97) skewX(-14.78)" fill="#e52521" font-family="SegoeScript, &apos;Segoe Script&apos;" font-size="18"><tspan x="0" y="0">НО</tspan></text></svg>