<?xml version="1.0" encoding="UTF-8"?><svg id="uuid-84c2344b-e43d-4d64-82fa-f14f324ee7c0" xmlns="http://www.w3.org/2000/svg" xmlns:xlink="http://www.w3.org/1999/xlink" viewBox="0 0 198.43 311.81"><defs><clipPath id="uuid-fb32a53d-856e-41e4-9a8d-9f8f300c871d"><rect x=".1" y=".72" width="198.43" height="368.5" fill="none"/></clipPath></defs><g id="uuid-e4641abf-ec23-49b7-9730-8299be7a63d7"><g clip-path="url(#uuid-fb32a53d-856e-41e4-9a8d-9f8f300c871d)"><g id="uuid-bcf2f208-8137-4ddd-904a-aa8c39f1256d"><path d="M4.42,8.03s-.05.05-.08.08c-.13.02-.23-.02-.33-.09-.17-.13-.32-.27-.5-.4-.13-.08-.25-.18-.35-.3-.08-.1-.18-.19-.15-.34.02-.02.05-.05.07-.07.44.37.89.75,1.33,1.12Z" fill="#f9f0ef"/><path d="M2.15,28.24s-.05-.04-.07-.06c0-.05,0-.11.02-.16.03-.05.06-.1.1-.15.12-.13.24-.27.44-.27.02.02.05.04.07.06-.19.19-.37.38-.56.57Z" fill="#f7f4f3"/><path d="M1.2,5.92s.09.08.14.12c.2.01.26.23.47.23.28.05.29.45.64.41h0c.17.09.26.27.47.32.11.1.24.18.33.3-.07.24-.3.22-.47.28-.39.06-.54-.27-.81-.39-.34-.16-.68-.32-1.02-.49-.06-.05-.09-.11-.09-.19,0-.12.02-.24.05-.36.02-.05.05-.09.08-.13.06-.06.13-.09.21-.09Z" fill="#f9e9e2"/><path d="M.96,6.17c.04.09.04.19,0,.3-.57.13-1.12-.23-1.25-.83.05-.1.13-.16.24-.18.4-.16.61.09.86.27.06.07.06.16.05.24,0,.09.02.16.1.2Z" fill="#f9e5dd"/><path d="M2.45,6.68c-.5.25-.36-.32-.63-.38,0-.05.01-.07.07-.06.19.15.37.3.56.45Z" fill="#eebcb4"/><path d="M.73,5.97c.02-.08.05-.16.07-.25.19-.02.28.11.4.2-.05.05-.11.11-.16.16-.14.04-.29.08-.31-.11Z" fill="#f7cbc5"/><path d="M2.85,7.01c-.28.05-.32-.16-.4-.33.24-.03.33.15.47.26,0,.05-.01.08-.07.07Z" fill="#f4ccc6"/><path d="M1.89,6.24s-.04.04-.07.06c-.25.05-.33-.16-.49-.26.24-.04.35.18.55.19Z" fill="#f2c3ba"/><path d="M2.85,7.01s.05-.04.07-.07c.03.01.06.03.09.04.1.09.2.18.31.27,0,.05-.02.08-.08.08-.13-.11-.26-.22-.39-.33Z" fill="#f0afa3"/><path d="M6.58,11.21c.08.16.17.31.1.5-.08.15-.17.08-.26.05,0,0-.01,0-.01,0,0,0,.03.01.03.02.08.12.13.24.2.36.04.12.05.24-.14.25-.16.01-.32.02-.48,0-.32-.55-.94-.96-.8-1.74.03-.15-.08-.25-.23-.28-.12-.06-.18-.16-.21-.29-.01-.12-.05-.25.09-.35.23-.04.42.28.67,0,.04-.03.09-.05.14-.06.09.1.26.16.24.34-.07.12.07.18.08.27.06.11.12.22.23.29.07.08.18.13.15.27,0,.07-.02.14-.05.2-.02.05-.1.11-.06.16.02.04.09,0,.13-.01.07-.02.13,0,.19,0Z" fill="#f8e6df"/><path d="M7.52,14.79c.07.58.2,1.16.15,1.76-.17.23-.24.52-.45.73-.13.11-.26.11-.38.02-.1-.09-.15-.21-.15-.35.02-.11.08-.2.14-.28.26-.24.2-.51.18-.77,0-.22.04-.45-.06-.64-.16-.17-.21-.4-.34-.59-.11-.13-.19-.27-.28-.42-.06-.16-.21-.29-.08-.5.05-.02.11-.02.16,0,.12.04.21.12.28.22.07.11.15.21.28.27.13.09.22.21.36.28.08.08.17.16.19.28Z" fill="#f7ded2"/><path d="M6.85,20.76c-.05.18-.15.33-.3.46-.48.4-.78.9-.99,1.44-.14.08-.28.16-.44.18-.08,0-.16,0-.24-.04-.21-.14-.28-.3-.06-.53.52-.22.34-.66.47-1.01.33-.26.78-.3,1.06-.63.18,0,.38-.03.5.13Z" fill="#f6ded3"/><path d="M3.24,7.34s.05-.06.08-.08c.03.12.12.18.24.21.12.21.29.36.53.44.08.07.17.13.25.2.17.26.58.31.64.67-.12.03-.2-.01-.28-.07-.05-.04-.07-.1-.09-.16-.02.06-.04.13-.09.18-.11.09-.22.16-.35.17-.47-.16-.69-.56-.96-.92-.15-.13-.42-.13-.46-.38,0-.02.02-.05.03-.07.13-.15.32-.12.47-.19Z" fill="#f8eae4"/><path d="M5.1,23.74c-.11.33-.24.65-.48.93-.14.04-.25,0-.34-.08-.06-.13-.12-.27-.26-.37-.16.04-.15.27-.33.3-.14.05-.27.06-.39-.02-.11-.23.04-.42.19-.6.29-.24.57-.51.97-.53.05,0,.1.02.14.05.12.17-.16.32-.08.49.11-.2.08-.57.5-.37.06.05.08.12.08.2Z" fill="#f5dbcf"/><path d="M7.59,17.37c.08.27-.04.54-.1.82-.32.27-.3.63-.4.96-.07.23-.08.5-.44.55-.12-.02-.17-.1-.21-.19-.01-.05-.01-.1,0-.14.25-.12.15-.34.22-.51.11-.24.12-.48.12-.72-.01-.4.14-.72.57-.9.13-.03.22,0,.24.13Z" fill="#f6ded3"/><path d="M6.62,19.68c.28-.14.31-.37.37-.62.07-.32.02-.72.5-.87-.34.84-.31,1.73-.64,2.57-.17.02-.36.06-.47-.1-.17-.1-.04-.21.02-.32.19-.17.18-.39.19-.6.01-.02.02-.04.04-.07Z" fill="#f8e4d9"/><path d="M3.97,25.77c-.15.35-.34.68-.64.94-.21.04-.38,0-.5-.16-.08-.12-.11-.26-.1-.41,0-.1.08-.21,0-.3-.2-.06-.53,0-.37-.37.03-.04.06-.08.11-.11.12-.07.25-.1.38-.05.42.08.66.48,1.14.45Z" fill="#f5d9cc"/><path d="M6.35,13.81s-.05-.04-.08-.07c-.09.01-.16-.02-.22-.08-.04-.43-.45-.82,0-1.3.13-.13.27-.17.43-.08.04.02.09.04.1-.04,0-.03-.03-.05-.05-.08,0-.16.06-.3.24-.39.13.22.33.41.16.71,0,.05-.02.09-.06.13-.26.14-.3.38-.38.6-.05.12,0,.2.07.29.04.05.07.11.07.19-.05.13-.16.11-.26.11Z" fill="#f9e4db"/><path d="M5.59,9.76c-.32.72-.48.04-.71,0-.52,0-.57-.33-.51-.73.1-.17.23-.28.44-.25.11.03.18.11.25.19.07.13.2.23.22.39.02.02.04.03.07.05.1.11.24.18.24.36Z" fill="#f8ebe4"/><path d="M3.97,25.77c-.16,0-.29.05-.38.19-.05.08-.18.08-.17.06.1-.49-.53-.34-.63-.64,0-.09.05-.14.13-.18.14-.03.25.02.38.03.05,0,.1,0,.15.02.08.01.14.05.22.07-.06-.04-.12-.09-.12-.18.03-.11.1-.18.2-.24.28-.06.46.03.55.27-.04.23-.16.44-.33.62Z" fill="#f4dbcf"/><path d="M6.59,13.71c-.05-.04-.1-.09-.16-.13.02-.13-.1-.23-.08-.36.16-.21-.02-.64.48-.64.23.02.18.23.25.36,0,.09,0,.19-.01.28,0,.5-.04.55-.48.5Z" fill="#f8ebe6"/><path d="M6.59,13.71c.41.05.37-.29.48-.5.16.03.23.12.17.28-.06.08-.02.16-.02.24,0,.1.01.2.15.2.1.13-.02.29,0,.44,0,.09-.06.15-.16.17-.25.06-.18-.2-.31-.26-.08-.07-.16-.13-.24-.2-.1-.09-.21-.18-.31-.26.08-.03.16-.07.24-.1Z" fill="#f9e8de"/><path d="M2.23,28.01s-.06.06-.08.08c-.33-.07-.2-.4-.32-.59.11-.2.44-.21.45-.48.01-.05.03-.09.05-.14.26-.34.4.02.6.03.09.05-.05.16.03.21.02.14-.09.22-.18.31-.32.08-.4.35-.55.57Z" fill="#f6dbcf"/><path d="M4.31,25.15c-.16-.08-.32-.17-.48-.25-.09-.07-.13-.15-.09-.27.18-.2.37-.27.56-.07.11.04.21.08.32.12.01.22-.21.32-.31.48Z" fill="#f3d6cb"/><path d="M5.1,23.74c-.05-.04-.11-.09-.16-.13-.03-.23-.26-.13-.39-.18h0c-.13-.06-.07-.17-.03-.26.11-.2.25-.37.51-.37.05,0,.11-.01.16-.02.09.15,0,.35.09.51-.01.17-.05.32-.18.46Z" fill="#f5dbcf"/><path d="M7.59,17.37c-.07-.05-.14-.09-.24-.05-.1,0-.15-.04-.15-.13.14-.22.1-.55.47-.64.07.27-.06.55-.07.82Z" fill="#f9e6dc"/><path d="M5.27,23.28c-.32-.09-.18-.31-.09-.51.11-.11.24-.15.38-.12-.07.21-.1.45-.29.62Z" fill="#f4d4c9"/><path d="M2.87,26.47c.16.08.31.16.47.24-.03.03-.05.06-.08.09-.11.01-.18.15-.31.1-.16-.05-.3-.13-.34-.3,0-.09.06-.16.15-.21.07-.02.11,0,.12.08Z" fill="#f6dbcf"/><path d="M2.23,28.01c.11-.25.08-.62.55-.57-.05.06-.1.11-.14.17-.13.13-.27.27-.41.4Z" fill="#f1cfc3"/><path d="M6.75,11.78c-.04.15-.11.28-.24.39-.15-.1-.09-.29-.15-.43.11-.01.21-.02.32-.03.02.02.05.05.07.07Z" fill="#f8ebe4"/><path d="M5.59,9.76c-.1-.1-.27-.16-.24-.36.21-.02.32.08.33.27-.03.03-.06.05-.09.08Z" fill="#f4d0c9"/><path d="M5.28,9.35c-.1-.1-.27-.16-.25-.35-.01-.06.01-.08.08-.08.16.1.25.22.17.43Z" fill="#f6d3cc"/><path d="M7.21,14.53c.05-.06.11-.11.16-.17.11.12.18.25.15.42-.1-.08-.2-.17-.3-.25Z" fill="#f6dace"/><path d="M6.23,10.58c-.26.07-.19-.2-.32-.27.06-.09.12-.12.17-.01.08.08.17.15.15.28Z" fill="#eec4bc"/><path d="M7.36,13.93c-.33.19-.25-.03-.24-.2.06-.04.12-.05.18-.02.02.07.04.15.06.22Z" fill="#f4d0c7"/><path d="M6.58,11.21s-.09,0-.14.01c-.15,0-.22-.07-.23-.2.06-.06.11-.11.17-.17.07.12.14.24.21.35Z" fill="#f5d1ca"/><path d="M5.11,8.92s-.05.06-.08.08c-.08-.07-.16-.13-.23-.2-.12-.03-.23-.07-.07-.21.08.06.16.12.24.19.05.05.09.09.14.14Z" fill="#f3b3ab"/><path d="M7.3,13.71c-.06,0-.12.01-.18.02,0-.09-.11-.21.11-.24.02.07.05.14.07.22Z" fill="#f1c4bc"/><path d="M6.08,10.3c-.06,0-.11,0-.17.01,0-.1-.2-.18,0-.3.08.08.18.15.16.28Z" fill="#f2cec6"/><path d="M7.08,12.94c-.08-.12-.16-.24-.25-.36.03-.03.05-.06.08-.08.16.1.23.24.17.44Z" fill="#f1cdc6"/><path d="M3.02,26.9c.07-.06.13-.12.23-.1-.1.11-.2.22-.3.33-.2-.01-.03-.09-.01-.15-.01-.06.02-.09.08-.08Z" fill="#edc7bb"/><path d="M-.71,29.86c-.18.05-.37.09-.55.14-.23-.04-.41-.2-.66-.2-.19-.2.09-.47-.03-.7-.04-.07.08-.17.18-.17.39.03.69-.3,1.06-.34.05,0,.1,0,.15,0,.13.12.31.17.49.22.06.04.1.09.11.17-.05.14-.16.2-.3.23-.14.03-.27.03-.39-.01-.09.02.02.02,0,.03.19.21-.23.42-.06.62Z" fill="#f5d5c9"/><path d="M-.71,29.86c-.29-.16-.29-.16-.04-.37.16-.13.03-.2-.03-.29,0-.05.02-.08.08-.08.13.01.26.02.39.03.28.03.47-.04.38-.36.01-.18.09-.29.3-.3.14.07.27.14.31.3-.03.24-.07.47-.36.59-.3.26-.71.26-1.03.47Z" fill="#f4d8cd"/><path d="M.64,28.76c-.1-.04-.28,0-.23-.2.27-.24.57-.45.88-.63.36.17.47.41.15.76-.19.22-.45.33-.72.43-.19-.07-.04-.24-.08-.36Z" fill="#f3d6cb"/><path d="M1.44,28.7c.12-.29.08-.54-.16-.73.02-.11.09-.22.11-.33.03-.12.08-.24.2-.31.21-.05.3.02.25.22.35.04.08.44.31.56-.02.03-.05.06-.07.09-.22.16-.33.45-.63.51Z" fill="#f4d3c5"/><path d="M.64,28.76c.13.09.04.24.08.36-.12.11-.2.27-.4.26.24-.16.15-.44.32-.62Z" fill="#f6ded3"/><path d="M4.09,7.91c-.3-.02-.46-.18-.53-.44.18.15.35.3.53.44Z" fill="#f1b9af"/><path d="M.96,6.61c.71.14,1.24.56,1.81.92h0c0,.08-.05.15-.11.21-.12.09-.25.11-.39.1-.48-.15-.93-.34-1.12-.83-.04-.09-.19.01-.25-.06-.09-.07-.13-.15-.08-.26.04-.05.08-.07.14-.08Z" fill="#f9e4da"/><path d="M.96,6.61s-.05.05-.08.08c-.18.1-.36.1-.52.01-.1-.06-.2-.12-.32-.14-.25-.01-.36-.3-.64-.26-.05,0-.1,0-.15,0-.32-.06-.33-.3-.35-.55.04-.08.09-.13.18-.14.11-.05.21-.06.32-.03-.03.08-.11.18-.09.23.06.12.14,0,.2-.05.08-.08.16-.16.28-.15.25.44.58.79,1.18.84,0,.05,0,.1,0,.15Z" fill="#f7dcd1"/><path d="M.73,5.97c.1.04.21.08.31.11-.03.03-.05.06-.08.08-.33.19-.28,0-.23-.2Z" fill="#f7dcd1"/><path d="M6.04,12.37c-.21.45.11.82.07,1.25-.06.16-.15.3-.34.35-.08-.01-.13-.05-.18-.1-.05-.08-.08-.16-.08-.26.02-.17.17-.33.12-.51-.01-.04-.02-.08-.03-.13.06-.42-.12-.76-.31-1.1-.25-.34-.33-.75-.38-1.17-.01-.13-.06-.27.11-.37.16-.13.36-.1.32.06-.23.86.52,1.3.69,1.98Z" fill="#f7dcd0"/><path d="M5.03,10.33c0,.54.12,1.05.38,1.51-.16.03-.26-.05-.37-.12-.28-.24-.47-.53-.48-.91-.06-.37-.09-.77-.65-.75-.04-.02-.08-.05-.1-.09-.01-.07,0-.14,0-.21-.04-.21-.23-.33-.34-.5-.1-.15-.21-.31-.08-.52.05-.03.11-.05.17-.04.35.09.54.36.7.63.16.28.47.44.6.73.05.09.1.19.16.28Z" fill="#f7d8cc"/><path d="M4.88,10.05c-.58-.34-.83-.99-1.41-1.33-.34.12-.5-.06-.65-.28-.05-.14,0-.27.1-.39.09-.09.2-.1.32-.11.05-.02.1-.04.14-.07.06.49.53.67.8,1,.06.04.14.05.2.1.03.03.04.06.03.1.05.3.15.57.47.69,0,.1,0,.2,0,.29Z" fill="#f9e5da"/><path d="M6.21,11.02c.08.07.16.13.23.2-.07.23-.3.22-.38.15-.12-.11.06-.24.15-.34Z" fill="#f8eae4"/><path d="M6.11,11.77s0-.12.03-.17c.06-.09.13-.06.16.01.02.05.11.1.02.17-.06.05-.13.07-.21,0Z" fill="#f9e2da"/><path d="M6.72,16.94c.05.09.1.19.16.28,0,.11-.06.19-.16.25-.05.02-.1.02-.15,0-.12-.1-.25-.19-.36-.31-.03-.03-.06-.11-.09-.09-.14.11-.06.23-.03.35.12.29,0,.51-.31.68-.12.03-.29-.05-.31.17-.03.04-.06.08-.1.11-.17.1-.28.25-.39.4-.07.09-.14.2-.04.28.09.08.2-.05.31-.06.05,0,.1,0,.14.03.28.13.07.56.4.67.04.19,0,.36-.18.49-.06,0-.11,0-.16-.02-.12-.05-.21-.13-.3-.22-.02-.02-.06-.06-.08-.06-.67.33-.63-.18-.75-.52-.07-.2-.13-.39-.1-.62.01-.07.04-.14.08-.2.09-.11.07-.27.2-.36.17.04.06-.07.08-.12.03-.07.07-.12.14-.16.09-.04.21-.03.07-.17-.23-.23-.55-.38-.68-.69.15-.51.5-.11.74-.22.05-.01.1-.02.14-.03.1.01.17-.02.18-.13-.02-.07.13-.21-.08-.2-.19,0-.4.05-.52-.13.16-.47.62-.44.98-.59.16.1.15.28.16.44.01.04,0,.09.02.13,0-.05-.04-.09-.01-.15.16-.19.35-.19.48-.05.16.17.25.36.54.42.2.04-.06.28,0,.41Z" fill="#f6d5ca"/><path d="M6.72,16.94c-.01-.39-.63-.31-.61-.76,0-.13-.27-.07-.41.05h0c-.18-.09-.15-.27-.15-.43,0-.09-.12-.12-.1-.22.02-.04.05-.07.09-.1.13,0,.19-.11.26-.19.18-.12.33-.1.47.02.01.04.01.09,0,.13.17.15.53-.09.62.22.02.04.03.08.01.13-.2.19.04.2.11.27.15.2-.06.42-.05.63-.08.08-.16.16-.24.24Z" fill="#f4cbbe"/><path d="M6.18,15.45s.05-.05.08-.08c0-.03-.02-.07-.04-.09q-.55-.5.25-.77c.11-.02.17.09.28.07.17.18.1.51.39.62,0,.05-.03.09-.08.11-.3-.1-.57.22-.87.13Z" fill="#f3c8ba"/><path d="M6.64,17.47c.08-.08.16-.16.24-.24.11.08.21.07.32-.03.05.04.1.09.15.13-.38.19-.44.5-.44.84,0,.26,0,.52-.13.77-.09,0-.15-.02-.21-.07-.08-.1-.06-.23-.05-.35.05-.34.15-.69.11-1.03Z" fill="#f5d6ca"/><path d="M5.8,13.94c.1-.11.14-.28.32-.33.05.04.1.09.16.13.05.14.1.28.16.43,0,.1-.07.15-.17.18-.17.02-.32-.03-.47-.06-.37-.07-.3-.21,0-.35Z" fill="#f5d0c3"/><path d="M6.96,16.7c-.19-.18.12-.4,0-.59-.16-.06-.07-.13,0-.21.03,0,.05-.01.08-.02.18.27.19.54-.09.82Z" fill="#f6d5ca"/><path d="M7.05,15.28s.05-.05.08-.08c-.04.22.12.45-.08.67,0,0,0,0,0,0-.1,0-.15-.04-.16-.13h0c-.06-.18-.13-.36.16-.46Z" fill="#f6dace"/><path d="M6.27,14.33c.05-.05.11-.11.16-.16.1.14.21.27.31.41-.1.04-.17,0-.24-.05-.12.01-.19-.03-.23-.13,0-.02,0-.05,0-.07Z" fill="#f6dace"/><path d="M6.66,14.07c.18-.04.26.03.24.2-.18.04-.26-.03-.24-.2Z" fill="#f8e2d7"/><path d="M5.52,20.09s.05.04.08.07c.04.2-.16.36-.15.55,0,.08.02.2.11.2.09,0,.14-.11.2-.18.17-.26.25-.59.63-.68.18.04.18.16.15.31-.08.09-.19.18-.16.31-.18.47-.63.51-1.03.62-.14.04-.2.22-.37.19-.22,0-.49.34-.68,0-.04-.23.17-.39.24-.58.02-.03.05-.04.09-.05.06-.01.07-.03.03-.02-.29.02-.57.02-.38-.39.16-.06.33-.03.47-.14.04-.02.09-.04.13-.06.21-.03.41-.13.62-.15Z" fill="#f5d3c5"/><path d="M5.02,22.79c-.17.1-.3.24-.4.41-.28,0-.41-.15-.46-.39.22-.62.45-.8.92-.77.05.12,0,.2-.14.24-.28.24-.1.37.07.51Z" fill="#f2ccbe"/><path d="M4.95,22.28c.06-.07.11-.14.08-.23.05-.23-.29-.39-.07-.66.13-.04.26-.08.39-.11-.03.36.26.8-.4,1Z" fill="#f4d8cd"/><path d="M3.23,7.93c-.07.07-.14.12-.24.1-.33.09-.46-.02-.39-.33.05-.05.11-.11.16-.16.07.23.42.15.47.39Z" fill="#f9e7df"/><path d="M4.41,9.06s-.05-.04-.08-.07c-.05-.14-.03-.25.16-.31.05-.12.11-.22.24-.09-.04.1.02.15.07.21-.16.05-.29.13-.39.26Z" fill="#f8d3cf"/><path d="M4.49,8.69c-.05.1-.11.21-.16.31-.13.04-.19,0-.16-.13.09-.09.17-.2.32-.18Z" fill="#f9e7de"/><path d="M4.24,22.72c.05.22.23.34.39.48-.06.07-.11.14-.08.23-.37.08-.66.3-.95.54-.12-.02-.14-.12-.16-.22-.02-.26-.12-.54.21-.76.05-.01.1,0,.15.02.04.03.06.07.08.11.02.04.04.12.06.11.08-.06-.02-.09-.03-.15-.02-.13.03-.23.12-.33.07-.05.14-.05.22-.02Z" fill="#f4d5c9"/><path d="M4.3,24.56c-.2-.03-.39-.03-.55.13.03.14,0,.24-.19.26-.19.02-.37.06-.55.08-.17-.02-.34-.07-.31-.27.03-.24.24-.26.42-.28.05,0,.1.01.14.03.13.1.27.06.41-.04.03-.03.05-.06.08-.08.15-.09,0-.44.29-.34.17.06.42.21.26.5Z" fill="#f2d2c5"/><path d="M3.28,24.59s-.05-.04-.08-.07c-.08,0-.14-.02-.17-.08-.03-.11.06-.25-.06-.35-.03-.03-.04-.07-.06-.11-.02-.16-.1-.31.04-.47.38-.25.46.03.57.25.03.07.05.14.08.21-.16.16-.26.33-.24.54,0,.05-.03.07-.08.08Z" fill="#f6cfc3"/><path d="M4.55,23.43c.21-.07.4-.1.39.18-.27-.14-.22.13-.3.23.21.02.22.13.08.27-.05.05-.14.07-.2.02-.1-.09-.16-.22-.11-.36.03-.11.18-.2.14-.33Z" fill="#f6e1d6"/><path d="M3.28,24.59s.05-.05.08-.08c.11-.01.21-.02.32-.03-.08.3-.22.27-.4.12Z" fill="#f3cdbf"/><path d="M5.83,20.79c-.07.17-.26.37-.36.26-.1-.1-.46-.25-.11-.54.11-.09.16-.24.24-.36.05-.15.11-.31.16-.46,0-.14-.1-.24-.15-.36-.04-.1-.06-.22.05-.27.15-.07.21.06.26.16.05.06.09.13.19.21-.11-.11-.17-.19-.13-.31.19.01.28-.11.35-.26.09-.07.19-.07.3-.08.05.04.1.09.16.13-.11.16-.08.38-.32.47-.31.43-.56.89-.64,1.39Z" fill="#f3cec1"/><path d="M5.83,20.79c-.13-.38.24-1.18.64-1.39.02.02.05.04.07.07-.03.14-.16.28-.08.43,0,.07,0,.14-.08.18-.26.19-.36.48-.56.72Z" fill="#f0c6b8"/><path d="M6.39,19.92c-.35-.24.01-.32.16-.46.03.07.05.14.08.21,0,0,0,0,0,0-.06.1-.14.18-.24.25Z" fill="#f3cec1"/><path d="M6.39,19.92c.03-.12.11-.2.24-.25.09.22.2.45-.08.67-.05-.09-.1-.19-.15-.28,0-.05,0-.1,0-.15Z" fill="#f6dbcf"/><path d="M1.44,27.65c.19.19-.01.24-.16.31-.22.3-.5.51-.87.6-.18,0-.26.08-.24.25,0,.09-.06.14-.16.16-.05-.04-.1-.09-.15-.13-.05-.05-.07-.11-.09-.17-.02-.09-.04-.18.02-.27.47-.03.63-.54,1.06-.67.21-.07-.04-.18-.05-.28-.01-.15.1-.27.15-.4.03-.09.07-.18.14-.26.16-.15.29-.34.55-.24.03,0,.03.06.08.04.01,0,0-.05,0-.08q.09-.86.71-1.01c-.08.44.38.07.47.25-.08.25-.25.45-.48.61-.45.25,0,.41,0,.61h0c-.05.19-.17.27-.37.24-.16-.02-.33-.02-.48.07-.13.11-.09.25-.1.38Z" fill="#f3cdbf"/><path d="M1.6,26.6c-.23-.14-.27.24-.47.2-.09.02-.14-.02-.18-.09-.04-.13-.07-.27-.08-.41.02-.05.06-.08.11-.1.24.21.25-.12.38-.18.03-.27-.08-.56.25-.77.11-.21.26-.33.51-.24.13.13.33.19.37.4-.03.03-.05.06-.07.08-.64.18-.47.71-.64,1.09-.05.05-.11.02-.16.02Z" fill="#eec1b0"/><path d="M2.48,25.41c-.15-.09-.37-.11-.39-.33-.02-.19.32-.13.27-.34.12-.29-.37-.52,0-.84.25-.09.51-.22.61.13h0c0,.13.05.24.08.36.05.04.1.09.16.13-.1.15-.35.02-.41.21-.06.19.17.16.24.25-.04.07-.08.15-.08.23-.05.05-.11.11-.16.16-.11.01-.21.02-.32.03Z" fill="#f3cdbf"/><path d="M2.32,26.31c.22-.16.29-.45.56-.57.15.14.03.26-.08.38-.09.11,0,.2,0,.29-.05.05-.11.11-.16.16-.18-.01-.43.06-.31-.26Z" fill="#f1c8b9"/><path d="M2.79,26.41c-.05-.09-.32-.16,0-.29.03.12.05.24.08.36-.03-.02-.05-.04-.08-.07Z" fill="#f3d0c3"/><path d="M6.35,13.22c.12.09.23.19.08.36-.12-.09-.23-.19-.08-.36Z" fill="#f9e8de"/><path d="M2.95,25.21c-.14-.11-.04-.17.08-.23.17-.29.56.04.71-.29.06.06.11.12.08.21-.08.08-.16.16-.24.25-.05.16-.22.1-.32.18-.15.05-.23-.05-.32-.12Z" fill="#f4d6ca"/><path d="M3.27,25.33c.03-.2.23-.09.32-.18.08.06.15.13.29.24-.26-.03-.43-.04-.6-.06Z" fill="#f2d2c5"/><path d="M2.32,26.31c.02.17.25.14.31.26.13.11.26.22.39.33-.03.03-.05.06-.08.08-.13-.04-.29.01-.4-.14-.08-.1-.1.07-.15.12-.55-.33-.56-.39-.07-.66Z" fill="#f4d5c9"/><path d="M1.44,27.21c.2-.17.44-.21.64-.12.18.08.21-.06.3-.12.03.37-.22.51-.56.57-.03-.12-.11-.18-.24-.2-.1,0-.15-.04-.16-.13Z" fill="#f7d7cb"/><path d="M.81,27.42c.16.05.44.07.35.27-.1.23-.39.3-.64.18-.06.23.17.15.16.31-.25.2-.61.15-.91.3-.02.14-.14.15-.25.19-.02,0-.04,0-.07,0-.03-.02-.05-.04-.08-.06,0-.02-.02-.04-.03-.06-.02-.14-.1-.24-.2-.33-.02-.04-.03-.09-.03-.14.03-.07.08-.13.16-.17.14-.06.28-.09.43-.07.21.04-.01-.12.08-.13.15-.13.31-.23.48-.32.18.02.36.03.54.04Z" fill="#f0c5b5"/><path d="M.01,28.97c.05-.05.11-.11.16-.16.25.58-.36.31-.53.48,0-.02-.02-.03,0-.05.02-.03.04-.06.06-.09.11-.06.21-.12.32-.18Z" fill="#f6ded3"/><path d="M1.44,27.21c.05.04.1.09.16.13-.05.1-.11.21-.16.31-.14-.13-.14-.28,0-.44Z" fill="#f3c6b7"/><path d="M.95,6.91c.08.04.23-.1.27.06.02.06,0,.19.02.19.42.08.63.49,1.05.57.06.12.15.23.05.39-.11.16-.2.34-.41.4-.16-.08-.3-.18-.37-.35.14-.21-.01-.27-.13-.4-.21-.24-.16.12-.26.09-.11,0-.18-.04-.23-.12-.03,0,0-.08-.05-.04-.01,0,0,.06-.05.09-.11.05-.21.01-.3-.03-.17-.12-.44-.2-.2-.49.19-.15.36-.33.61-.36Z" fill="#f4cbbe"/><path d="M.95,6.91c-.16.17-.31.35-.55.42-.13.02-.27.06-.21-.14.14-.13.11-.28.11-.43,0-.07.02-.14.11-.17.13.13.32.05.47.1-.03.09.02.16.08.22Z" fill="#f5d4c6"/><path d="M2.21,8.11c.14-.12.04-.25.08-.38.11.03.21.02.32-.03.04.2.17.31.39.33-.05.1-.11.21-.16.31-.27.05-.53.05-.63-.23Z" fill="#f7dcd1"/><path d="M-.7,6.26s.05-.05.08-.08c.24.14.55.24.43.62-.06.19.05.05.09.05.18,0,.38,0,.33.26-.21.1-.42.2-.61.33-.1.01-.18,0-.26-.05-.04-.02-.06-.06-.11-.06.02.05.09.08.06.16-.04.11-.12.18-.22.23-.23.06-.39-.01-.51-.16-.04-.06-.07-.13-.08-.21-.02-.09-.04-.19-.04-.29.01-.1.04-.19.1-.28.23-.19.59-.22.74-.53Z" fill="#f0c3b7"/><path d="M.16,7.13s0-.05,0-.05c-.5-.11-.5-.62-.79-.9.36-.13.42.29.71.3.13.07.16.23.31.26-.05.15.21.37-.16.46-.04,0-.06,0-.07-.03-.01-.02-.01-.03,0-.04Z" fill="#f6cfc1"/><path d="M.4,6.74c-.22.03-.32-.06-.31-.26.15-.05.23.04.31.12,0,.05,0,.1,0,.15Z" fill="#f4c5ba"/><path d="M5.1,11.58c.1.09.21.18.31.26.25.33.38.71.31,1.15.01.22-.28.11-.32.28-.11.12-.24.18-.4.2-.21-.11-.5-.17-.15-.5.11-.1-.03-.18-.06-.26-.06-.08-.11-.16-.12-.25,0-.05.03-.1.07-.14.11-.11.28-.07.4-.16.11-.21-.65-.28-.04-.57Z" fill="#f3cbbe"/><path d="M5.8,13.94c-.02.08-.37.25.01.23.22-.02.33.07.46.17h0c-.24.28-.56.16-.84.26-.12,0-.24,0-.36-.03-.1-.08-.24-.14-.24-.29.03-.1.09-.17.17-.23.04-.03.09-.05.14-.06.21.1.31-.2.5-.17.05.04.11.09.16.13Z" fill="#f2c7b9"/><path d="M5.64,13.81c-.08.1-.17.19-.24.29-.05.07-.06.19-.17.17-.13-.03-.01-.18-.06-.26-.22,0-.3-.23-.51-.23-.08-.07-.1-.16-.06-.27.16-.25.3-.07.45-.04.18.04.34.1.52.13.06.06.11.12.08.21Z" fill="#f4cdc1"/><path d="M5.56,13.59c-.23.17-.38.11-.47-.1,0-.02.02-.04.03-.06.13-.06.25-.14.37-.23.13,0,.2-.13.32-.15.02.21-.08.38-.24.54Z" fill="#f6d5c9"/><path d="M5.8,13.05c-.09.09-.17.2-.32.18-.05.02-.07.01-.08-.01,0-.02,0-.04,0-.05.05-.16.26-.04.32-.18.03.02.05.04.08.07Z" fill="#f3c0b3"/><path d="M5.1,11.58c-.03.08-.24.17-.07.21.25.06.38.3.33.4-.1.23-.38.11-.58.15-.13-.09-.21-.29-.46-.09-.12.1-.29.17-.46.13-.22-.13-.24-.34-.17-.57.13-.11.27-.03.4-.07.06-.04.09-.09.11-.15.03-.13-.05-.17-.17-.18-.23-.02-.3-.17-.31-.37.02-.08.07-.14.14-.18.25-.16.53.18.76-.12.16.27.18.63.47.84Z" fill="#f0c8ba"/><path d="M3.38,8.8c.21.32.42.65.62.97-.39.08-.78.05-1.16.01-.1-.04-.17-.1-.19-.2.23-.28-.16-.21-.19-.34-.04-.22.11-.39.26-.55.28-.17.43.09.65.11Z" fill="#f1c2b6"/><path d="M3.92,10.88c-.05.05-.1.11-.16.16-.25.03-.45-.05-.64-.17-.04-.23-.71-.23-.21-.66.31-.08.55-.53.94-.28.03.02.05.04.08.06.65.28.65.41,0,.89Z" fill="#f2c0b3"/><path d="M3.92,10.88c0-.05,0-.13.03-.15.52-.32.28-.53-.02-.74.64-.03.7.03.7.74-.18.55-.47.11-.71.15Z" fill="#f2cabd"/><path d="M3.85,9.93c-.36-.12-.53.38-.87.31-.08.01-.14-.02-.19-.08-.05-.11-.05-.23-.01-.35.03-.05.07-.07.12-.08.38-.09.75-.06,1.11.04-.05.05-.1.11-.16.16Z" fill="#f2cabd"/><path d="M3.38,8.8c-.24.08-.4-.13-.63-.09-.02,0-.05,0-.07,0-.14-.06-.26-.19-.45-.08-.05.02-.1.02-.15.02-.07-.03-.12-.08-.12-.16.08-.13.16-.26.24-.39.21.08.42.15.63.23.19.15.35.35.63.38-.03.03-.05.05-.08.08Z" fill="#f5d4c7"/><path d="M5.47,15.59c.06.06.11.12.08.21-.29.23-.73.19-.95.54.02.23.35.29.31.56-.12.1-.24.19-.37.04-.13-.16-.28-.08-.42.04-.11.16-.22.14-.33.04,0-.16.11-.29.19-.42.11-.09.1-.25.13-.27-.04.04-.13.19-.3.27-.16.05-.31.07-.42-.06-.05-.53.46-.61.78-.85.15-.04.26-.13.34-.26.07-.08.15-.15.26-.17.18.01.25.13.31.26.07.21.26.05.39.07Z" fill="#f6c5b9"/><path d="M6.63,18.79c-.07.07-.14.12-.24.1-.24.15-.45.14-.6-.07-.1-.03.06-.26-.16-.19-.15-.02-.28-.06-.29-.23,0-.02.02-.05.03-.07.03-.03.05-.05.08-.08.1-.08.2-.15.32-.18.06-.2.46-.36.16-.61.14-.08,0-.39.32-.33.14.05.35.03.31.26.07.29.04.6-.08.88-.11.24.07.17.15.22,0,.1,0,.2,0,.3Z" fill="#f2cabd"/><path d="M3.8,17.02c.1.03.21.02.32-.03.34.3.73.55.97.94-.13.15-.23-.06-.35.03-.28.07-.38-.11-.49-.27-.2-.08-.35.07-.51.16-.12.03-.21,0-.29-.06-.12-.11-.21-.22-.08-.39.02-.1.24.09.18-.12-.03-.11-.06-.22.02-.34.12-.05.2-.03.22.1Z" fill="#f4c3b7"/><path d="M4.42,19.31c.08.21.16.42.24.64.18-.07.3-.73.54-.13,0,.22-.05.4-.32.47h0c-.18.06-.34.03-.5,0-.12,0-.25,0-.36-.05.04-.25-.07-.35-.32-.39-.12-.02-.19-.14-.15-.28.03-.04.07-.07.12-.08.14-.01.26.05.4,0,.13-.04.19-.2.34-.2Z" fill="#f6d1c5"/><path d="M5.84,18.73c.12.2.36.14.55.17-.09.16-.2.27-.4.26,0,.09-.06.15-.16.16-.03-.07-.07-.14-.1-.21-.32.26.45.32.02.59-.3-.01-.32-.02-.27-.28.03-.15-.21-.18-.12-.34.13-.15.28-.28.48-.34Z" fill="#f5d3c5"/><path d="M4.35,17.62c.06.19.23.25.39.33-.05.05-.11.11-.16.16,0,.06-.01.09-.08.08-.04.12.05.26-.08.38-.56-.08-.63-.18-.46-.65.08,0,.29-.17.39-.31Z" fill="#f5cec1"/><path d="M4.03,17.95c-.28.46.22.44.39.63-.05.05-.1.11-.16.16-.13.05-.24.01-.36-.02-.16-.06-.29-.15-.38-.27-.02-.22-.04-.44-.07-.66.02-.05.05-.08.11-.08.07.05.14.09.24.05.15,0,.22.06.24.2Z" fill="#f4c1b6"/><path d="M5.29,19c-.15.1-.24.39-.46.22-.18-.14-.22-.38.06-.53.19-.1.11-.52.48-.37h0c-.02.18-.12.36-.08.54,0,.04,0,.09,0,.14Z" fill="#f7dcd1"/><path d="M4.91,16.9c.02-.25-.63-.14-.31-.56.26-.04.53.11.79-.16.04.24-.14.38-.16.54-.09,0-.16.06-.24.1-.03.03-.05.05-.08.08Z" fill="#f8d1c6"/><path d="M6.63,18.5c-.2.04-.32,0-.27-.22.07-.29.13-.58.2-.88.03.02.05.04.08.07.32.31.02.69,0,1.03Z" fill="#f4d2c4"/><path d="M3.95,18.62c.11.04.21.08.32.12.05.19.1.38.15.57-.13.09-.07.34-.32.33-.21-.23-.05-.59-.23-.83-.01-.07-.01-.15.08-.19Z" fill="#f5cec1"/><path d="M6.25,17.14c-.2.03-.12.3-.32.33,0-.12-.04-.24-.02-.35.03-.12.02-.33.22-.31.17.02.16.19.11.34Z" fill="#f2c7ba"/><path d="M5.29,19s-.05-.04-.08-.07c.05-.25.3-.25.48-.34.32-.23.06.14.16.13-.08.21-.25.31-.48.34l-.08-.07Z" fill="#f7dace"/><path d="M4.88,20.3c.11-.16.21-.32.32-.47.1.09.21.18.31.26-.17.21-.39.26-.63.21Z" fill="#f7d8cd"/><path d="M5.77,18.07c-.06.14-.09.33-.32.18-.05-.07-.22-.11-.1-.23.16-.15.3-.06.41.05Z" fill="#f8dbcf"/><path d="M5.7,16.23c.1.02.21.03.34.06-.16.19-.31.19-.48.12.04-.06.09-.12.13-.17h0Z" fill="#f6cfc3"/><path d="M4.99,16.82c.05-.12.1-.22.24-.1.07.08.14.17-.02.24-.15.07-.17-.06-.22-.14Z" fill="#f6c9bf"/><path d="M4.5,18.2s.05-.05.08-.08c.09.03.22-.08.29.03.01.01-.01.07-.04.09-.13.09-.24.04-.33-.03Z" fill="#f8dbcf"/><path d="M4.99,15.64c-.04-.14-.11-.26-.23-.35.06-.26.32-.25.5-.34.37-.07.19-.24.13-.39,0-.02,0-.05,0-.07.29-.05.58-.11.87-.16.08.07.16.13.23.2-.08.08-.17.15-.25.23-.1.1-.31-.18-.33.11-.02.28.22.05.32.1.2.1-.06.27.03.39-.16-.02-.31-.11-.47.05-.09-.02-.18-.05-.28,0-.16.03-.18.17-.26.27-.13.16-.21.12-.25-.04Z" fill="#f5d0c3"/><path d="M7.05,15.28c-.15.13-.1.31-.16.46-.19-.05-.34-.3-.6-.03-.06.06-.2.03-.24-.05-.04-.09.07-.15.13-.22.28-.14.55-.47.87-.16Z" fill="#f5d1c4"/><path d="M4.99,15.64c.2.13.19-.02.2-.14.03-.32.19-.23.35-.14.04.05.03.09,0,.15-.03.03-.05.05-.08.08-.16.11-.32.48-.47.05Z" fill="#f4c4b8"/><path d="M6.89,15.74c.05.04.1.09.16.13-.06.07-.11.14-.08.23-.19.04-.28-.08-.37-.19.1-.06.19-.12.29-.17Z" fill="#f5d1c4"/><path d="M5.55,15.51s0-.1,0-.15c.04-.05.08-.1.12-.15.04.07.08.13.11.2-.05.12-.1.22-.24.1Z" fill="#f5d4c8"/><path d="M4.24,22.72c-.05,0-.11.01-.16.02-.17,0-.24-.07-.24-.22.05-.16.39-.21.23-.44-.02-.04-.02-.09-.02-.14.03-.16.03-.34.2-.46.03,0,.05-.01.08-.02.16.09.31.15.44-.08.1-.18.17-.17.2.02-.06.24.47.35.07.66-.44.03-.52.46-.79.67Z" fill="#f5d9ce"/><path d="M4.09,20.23c.1-.05.21-.06.31-.03.02.09,0,.16-.08.23-.18.57.58.1.54.55-.07.07-.18-.14-.3-.06-.06.05-.14.07-.22.07-.24-.03-.51,0-.7-.17-.08-.03.08-.29-.17-.16-.13-.09-.11-.2-.01-.33.2-.19.42-.13.64-.11Z" fill="#f3c3b7"/><path d="M4.33,20.43c-.03-.09.02-.16.08-.23.16.03.32.07.48.1-.16.18-.33.36-.55.13Z" fill="#f7d8cd"/><path d="M4.41,20.93c.05,0,.1-.01.16-.02.1.23-.19.35-.24.54h0c-.33-.19-.19-.36.08-.53Z" fill="#f7d8cc"/><path d="M3.92,22.46c-.04.14.07.2.16.28-.05.1-.11.21-.16.31,0,.05-.03.07-.08.08-.03-.02-.05-.04-.08-.07-.04-.19-.3-.17-.39-.32-.17-.17-.34.07-.5.06-.04-.02-.07-.06-.08-.11.05-.21.17-.39.34-.54.17-.1.35-.16.53-.22.15,0,.32-.08.42.07h0c.05.18-.1.31-.16.46Z" fill="#f4d0c3"/><path d="M3.52,23.75c-.21,0-.22-.44-.55-.17-.3-.02-.44-.19-.46-.47.03-.04.06-.08.11-.11.13-.04.24,0,.36.01.16.03.31,0,.47-.07.09-.03.19-.08.24.04-.25.23-.09.5-.16.75Z" fill="#f1c9b9"/><path d="M3.68,23c-.1-.02-.17.03-.24.1-.12-.02-.26,0-.36-.07-.03-.04-.04-.08-.04-.13.1-.15.23-.22.41-.23.03.19.47.09.31.41-.03-.02-.05-.04-.08-.06Z" fill="#f2c7b7"/><path d="M3.84,23.13s.05-.05.08-.08c.11.05.35.02.28.2-.04.1-.29.24-.38.22-.18-.05-.07-.21.02-.33Z" fill="#f6dace"/><path d="M2.58,23.11c.07.21.23.34.39.48-.05.15.19.27,0,.44-.16-.23-.43-.02-.63-.08,0-.02,0-.05,0-.07.05-.16.11-.31.38-.34-.52-.02-.71-.26-.67-.69.04-.07.1-.13.18-.17.41-.07.35.2.36.44Z" fill="#f0bfae"/><path d="M3.04,24.39c-.29-.04-.28-.17-.08-.36.09.03.24-.08.28.03.06.15-.13.22-.21.33Z" fill="#f5d6ca"/><path d="M5.84,19.32c.05-.05.11-.11.16-.16.06.07.16.15.08.24-.11.11-.16-.05-.23-.08Z" fill="#f0c8b9"/><path d="M.81,27.42c-.22.2-.39.13-.55-.02-.22-.05-.27.17-.39.26-.04.14.1.2.14.31.03.07,0,.14-.08.18-.07.04-.19.02-.19-.03,0-.34-.3-.1-.43-.18-.56-.05.05-.33-.05-.47.05-.17.09-.33.18-.49.14-.17.31-.21.51-.18.25.09.45.28.73.33.11-.1.21-.25.37-.1.03.18-.14.27-.24.39Z" fill="#efbdac"/><path d="M1.05,27.03c-.2,0-.27.16-.4.26-.22-.14.02-.27.05-.4.02-.04.05-.08.08-.12.05-.06.11-.1.19-.1.05.04.1.09.16.13-.03.08-.05.15-.08.23Z" fill="#ecbeac"/><path d="M1.6,26.6c.05,0,.11-.01.16-.02.03.09.07.25-.02.27-.18.03-.05-.18-.13-.25Z" fill="#f4d5c9"/><path d="M.98,26.22s-.05.05-.08.08c-.05.17-.09.35-.08.52h0c-.29.27-.55.21-.79,0-.07-.09-.05-.19,0-.29.07-.08.16-.15.23-.22.07-.08.14-.18.24-.23.24-.14.52-.25.32-.58-.04-.06.09-.15.16-.21.23-.15.45-.18.65-.01.02.02.04.03.05.05-.23.2-.24.44-.24.69-.16.05-.28.24-.47.2Z" fill="#ecbeac"/><path d="M2.41,24.75c.29.44-.25.19-.32.33-.24-.07-.34.06-.39.26,0,0,0,0,0,0-.18-.08-.38-.14-.48-.32-.02-.24.16-.26.34-.27.29.1.43-.18.64-.28.24-.03.25.11.22.28Z" fill="#edbead"/><path d="M.82,26.83c-.25-.18-.16-.36.08-.52.12.09.23.19.08.36-.05.05-.11.11-.16.16Z" fill="#efc7b6"/><path d="M.98,26.22c.13-.13.3-.16.47-.2-.15.07-.19.49-.47.2Z" fill="#eab5a4"/><path d="M2.41,24.75c-.06-.09-.03-.26-.23-.2-.1.02-.21.06-.29,0-.03-.03-.06-.07-.07-.11-.03-.16.15-.29.1-.45-.02-.09-.03-.19.05-.28.05-.03.1-.04.16-.04.14.04.22.14.23.28,0,0,0,0,0,0-.11.23.07.37.16.54.07.13.08.2-.09.26Z" fill="#efc0ad"/><path d="M-.14,27.66c.08-.13-.2-.25,0-.35.12-.06.33-.13.39.09-.05.2-.16.33-.39.26Z" fill="#f1c8ba"/><path d="M1.18,7.84c-.02-.09-.03-.18-.06-.34.24.22.62.15.75.41.07.15-.17.19-.29.26-.09.15-.25.3-.15.48.01.07,0,.13-.03.2-.1.12-.11.25-.11.38-.05.19.15.27.14.44-.02.08-.07.13-.15.16-.12-.18-.3.1-.43,0-.15-.15-.16-.45-.49-.41-.1-.03-.15-.1-.14-.21-.14-.33-.07-.67,0-1.02.26-.17.23.18.42.16-.17-.11-.27-.23-.07-.43.2-.13.41-.05.61-.09Z" fill="#f0c0b2"/><path d="M.63,7.97c-.25.45.24.22.35.36-.36.4-.5-.08-.75-.1-.03.1-.12.13-.21.14-.04,0-.07-.01-.09-.03,0-.02,0-.04,0-.04-.03.01-.06.03-.09.06-.39.04-.37-.25-.44-.48-.1-.08-.29-.04-.35-.19.08-.08.16-.16.24-.24.1-.06.21-.03.31-.03.12-.23.26-.42.56-.28.03.02.05.04.08.07-.04.14.1.09.16.13-.19.29.21.2.24.34.01.1.05.19,0,.29Z" fill="#f1beb1"/><path d="M1.34,8.71c-.15-.25-.16-.46.24-.54.17.07.3.18.39.33.05.04.1.09.16.13-.27.31-.53.18-.79.08Z" fill="#f3c8bc"/><path d="M.63,7.97c-.04-.09-.04-.19,0-.29.07.05.14.09.24.05-.01-.06.01-.08.08-.08.08.07.16.13.24.2-.16.2-.37.08-.55.13Z" fill="#f4cfc3"/><path d="M.95,7.64l-.04.04s-.04.04-.04.04c-.08-.08-.2-.13-.13-.27.02-.03.08-.05.12-.07.03.09.06.18.09.26Z" fill="#f0c0b3"/><path d="M5.09,13.49c-.16.06-.31-.14-.47.05-.12.15-.07.34-.19.48-.12.16-.29.25-.48.31-.08.02-.16.02-.23-.01-.1-.07-.16-.2-.35-.14-.28.08-.43-.06-.5-.29.04-.14.18-.18.3-.23.5-.24.51-.27.1-.58-.04-.03-.06-.08-.07-.13.3-.4.63-.16.95-.15.05,0,.1.02.15.03.27.16.41-.28.66-.2-.1.16.53.41-.14.51-.03,0,.22.14.21.29.04-.01.07,0,.08.02,0,.02,0,.04,0,.05h0Z" fill="#f3c4b9"/><path d="M3.91,12.36c.14-.03.31-.13.38-.2.45-.44.49-.18.49.18-.03.03-.05.05-.08.08-.05.06-.11.09-.19.12-.17.03-.34.03-.5-.02-.06-.04-.1-.09-.1-.16Z" fill="#f0b7aa"/><path d="M4.54,12.44c.05,0,.1-.01.16-.02.08.07.16.13.24.2-.26.03-.3.67-.71.29,0-.22.28-.28.32-.47Z" fill="#f3cabe"/><path d="M5.09,13.49s-.05-.04-.08-.07c.13-.09.26-.17.4-.26.03.02.05.04.08.07-.1.13-.24.2-.4.26Z" fill="#f4cdc1"/><path d="M4.85,14.33c.13.02.21.08.24.2.1.03.07.1.03.17-.08.08-.19.16-.29.15-.2-.01-.49.19-.6-.02-.12-.22.03-.46.26-.63.16-.03.25.08.36.13Z" fill="#f5cabf"/><path d="M4.85,14.33c-.23.2-.21-.08-.32-.12-.08.01-.13-.02-.17-.08-.02-.07.02-.13.02-.2.1-.12-.08-.37.24-.39.03.07.05.14.08.21.23.01.1.39.39.33-.08.08-.16.16-.24.25Z" fill="#f6d1c5"/><path d="M5.08,14.08c-.32.08-.32-.16-.39-.33.39-.26.31.18.47.25-.03.03-.05.05-.08.08Z" fill="#f6d6cb"/><path d="M5.08,14.67s0-.1,0-.15c.11-.05.21-.06.32-.03h0c.11.24.12.43-.27.43-.09-.06-.21-.12-.05-.25Z" fill="#f4cfc3"/><path d="M3.91,12.36c.05.04.1.09.16.13.04.1.03.18-.08.26-.29.06-.38-.1-.41-.32,0-.03-.02-.05-.05-.07-.02.03-.03.05-.02.09-.05.18-.2.24-.35.31-.05.01-.1.01-.15,0-.12-.04-.2-.12-.28-.21-.08-.13-.19-.17-.36-.07-.12.07-.24.1-.36.02-.18-.26-.28-.52.19-.69.16-.02.32-.07.49-.08.24.14.48.28.68-.11.08-.04.17-.05.25-.02.08.04.13.1.13.19.01.2,0,.42.15.57Z" fill="#f2c1b4"/><path d="M3.76,11.79c-.05-.04-.1-.09-.16-.13-.01-.21-.22-.16-.35-.22-.14-.1-.24-.24-.44-.25-.1-.05-.12-.13-.11-.23.02-.05.04-.09.08-.12.12-.06.24-.08.36-.02.22.06.47.06.63.23.12.06.08.25.27.26.41.03.41.04.2.43-.02,0-.02.1,0,.15-.18.04-.34,0-.47-.1Z" fill="#f1beb1"/><path d="M4.23,11.88c-.12-.1-.24-.2-.12-.46.05.13.09.22.12.31,0,.05,0,.1,0,.15Z" fill="#eeb6a9"/><path d="M1.34,8.71c.26-.03.53.04.79-.08.03-.03.05-.05.08-.08.09-.02.18-.06.25.02,0,.06-.03.13.09.07.08.02.12.1.21.07h0c.02.21-.23.34-.24.54,0,.08-.03.16-.09.23-.09.08-.18.13-.3.07-.07-.12.1-.34-.14-.37-.3-.03-.35.21-.45.39-.03.04-.07.07-.13.08-.01-.16-.51-.12-.15-.43-.03-.13-.04-.26.08-.38,0-.05,0-.1,0-.15Z" fill="#f2bfb2"/><path d="M2.9,9.73s-.05.05-.08.08c-.08.09-.09.2-.18.29-.04.03-.08.06-.12.08-.07.02-.14.03-.21.02-.07-.02-.13-.04-.19-.08-.08-.04-.16-.08-.24-.12-.1-.09-.13-.19-.01-.3.04-.03.09-.05.14-.05.2.05.39,0,.58-.1.03,0,.05,0,.08-.01.08.07.15.13.23.2Z" fill="#eeb5a8"/><path d="M2.36,9.42c.05-.05.11-.11.16-.16.16.08.37-.11.55.01-.06.2-.32.11-.39.27,0,0,0,0,0,0-.15.06-.28.07-.31-.12Z" fill="#f4cec0"/><path d="M2.51,10.14s.05-.05.08-.08c.09-.02.17,0,.24.05.05.04.1.09.16.13-.1.13-.33.3.04.32.2.02.25.08.12.25-.11.05-.21.06-.32.03-.56-.24-.61-.36-.31-.71Z" fill="#f3c8bb"/><path d="M3.35,10.38c.33-.06.52-.07.56.14,0,.05-.1.19-.15.2-.26.02-.12-.27-.41-.34Z" fill="#f1c9ba"/><path d="M2.82,10.11c-.1.04-.17,0-.24-.05.06-.1.03-.27.24-.25.05.09.04.19,0,.3Z" fill="#f2bfb2"/><path d="M2.75,8.71c-.1.04-.17,0-.24-.05-.05.01-.07,0-.08-.02,0-.02,0-.04,0-.05-.08-.02-.16-.03-.24-.05.34-.31.41,0,.55.16Z" fill="#f3c8bc"/><path d="M5.08,14.67c-.03.09.02.16.08.21.1,0,.16.04.16.13-.18.09-.37.18-.55.28-.08.08-.16.16-.24.25-.07.2-.28.07-.38.17-.34.01-.68.03-1.03.08-.06-.04-.11-.09-.12-.17.1-.35.6-.48.59-.88-.01-.09-.03-.17-.03-.26.02-.1.11-.15.19-.2.05,0,.11,0,.16-.01.19.01.31-.15.47-.2.05.04.1.09.16.13-.35.61-.31.72-.09.57.24-.16.44.07.63-.11Z" fill="#f3c3b7"/><path d="M3.18,15.75c.32-.27.63-.1.95-.1.04,0,.06,0,.07.02.01.02.01.04,0,.04-.05.08-.09.21-.14.22-.39.04-.52.32-.66.6.06.28-.16.35-.37.43-.15-.02-.2-.13-.26-.24-.03-.07-.04-.14-.02-.21.04-.19.11-.38.21-.56.05-.09.1-.18.21-.21Z" fill="#f1b7a8"/><path d="M3.01,16.95c.11-.16.35-.2.4-.41.13.01.26.02.39.03.09-.02.17-.01.23.05.03.18-.14.27-.24.39-.07-.05-.14-.09-.23-.05-.08.06-.17.11-.24.18-.12.1-.2.24-.36.28-.41-.15-.13-.32.05-.48Z" fill="#f1bcae"/><path d="M4.04,16.62c-.1.04-.17,0-.23-.05.02-.05.04-.13.08-.14.21-.05.27-.43.57-.29-.15.15-.19.38-.41.48Z" fill="#f6d2c6"/><path d="M4.21,15.72s-.05-.04-.08-.07c.11-.14.26-.07.4-.11,0,.24-.12.29-.32.18Z" fill="#f3beb1"/><path d="M5.68,18.59c-.04.26-.36.17-.48.34-.27-.25.09-.41.16-.61.03.17.21.18.31.26Z" fill="#f5d4c9"/><path d="M3.01,17.39c.03-.17.14-.28.32-.33.15.04.18.14.16.28-.15.17-.04.27.07.36-.03.03-.05.05-.08.08-.11.06-.22.11-.33.17-.36.12-.55-.08-.72-.29-.04-.06-.07-.13-.08-.21.02-.08.07-.14.15-.18.21-.06.27.27.52.11Z" fill="#eeb5a4"/><path d="M4.03,17.95c-.08-.07-.16-.13-.24-.2.14-.33.34-.31.55-.13-.13.09.08.46-.32.33Z" fill="#f8d5c9"/><path d="M3.48,17.34c-.05-.09-.1-.19-.16-.28.02-.2.15-.1.24-.1.11.11.16.24.08.39-.04.07-.12.02-.17-.02Z" fill="#efb2a4"/><path d="M3.95,18.62s0,.1,0,.15c-.05.28.15.6-.24.84-.03-.02-.05-.04-.08-.06-.3.07-.02.42-.31.49-.19-.11-.44-.11-.57-.31.34-.4.33-.96.81-1.29.13.06.26.12.39.18Z" fill="#eeb7a8"/><path d="M3.3,20.01c.03-.06.09-.15.07-.18-.28-.37.01-.31.25-.29-.03.12.04.24.13.23.4-.04.29.26.34.45-.18.04-.37.09-.55.13-.17,0-.28-.06-.33-.21,0-.06.02-.11.09-.14Z" fill="#f3c4b7"/><path d="M3.7,19.61c.2-.26.03-.58.24-.84.25.24.22.55.15.87-.13-.01-.26-.02-.4-.04Z" fill="#f3c3b6"/><path d="M3.56,18.44c-.33.22-.11.62-.4.86-.14.12-.27.26-.4.4-.11.11-.24.16-.34.06-.19-.2.08-.36.15-.54-.14-.03-.26.06-.39.06-.38-.2-.85-.32-.99-.78.09-.09.24-.14.24-.29.05-.06.11-.1.18-.12.12.01.24.03.38-.01.52-.13.59-.07.47.41-.03.11,0,.16.1.18.07.01.15-.02.22-.03-.04-.08-.15-.03-.19-.1-.11-.2.06-.29.21-.35.21-.07.42-.11.37-.38.11-.11.21-.11.32-.03.19.18.19.41.07.66Z" fill="#e6b09f"/><path d="M5.31,15.02c-.05-.04-.1-.09-.16-.13.25-.05.24-.22.24-.39.1.12.34.17.29.38-.05.18-.22.17-.37.15Z" fill="#f6d5c9"/><path d="M4.08,22c-.13-.02-.29.08-.4-.03-.02-.37-.43-.64-.21-1.09.06-.06.14-.09.22-.09.22.09.5,0,.71.14-.12.17-.25.35-.08.53-.08.18-.16.36-.24.54Z" fill="#f5d1c4"/><path d="M3.92,22.46c-.02-.17.05-.32.16-.46.09.05.29,0,.21.2-.06.17-.18.26-.37.25Z" fill="#f5d1c4"/><path d="M3.23,20.1c.1.09.21.18.31.26-.1.11-.1.21,0,.29.02.13-.08.22-.13.33-.13.11.08.28-.13.37-.15.08-.14-.2-.37-.07-.47.25-.51.2-.46-.32,0-.08.08-.15.03-.24-.13.08-.04.18-.07.27-.04.17-.03.35-.22.46-.25-.13-.42-.34-.63-.52,0-.05.02-.1.05-.14.17-.14.37-.26.43-.5.1-.37.36-.39.64-.26.17.08.32.2.54.03Z" fill="#edb8a7"/><path d="M3.38,20.97c-.03-.14.08-.22.16-.31.32-.23.05.14.16.13-.05.05-.11.11-.16.16-.05,0-.1.05-.16.02Z" fill="#f2beb1"/><path d="M3.38,20.97c.05,0,.11-.01.16-.02-.01.01-.03.03-.03.04.05.33.4.57.18.97-.13.15-.27.25-.47.2-.12-.07-.21-.16-.25-.29-.02-.24.03-.45.34-.53.04-.12-.05-.26.08-.38Z" fill="#f1c4b5"/><path d="M3.06,21.88c.09.08.2.14.16.28-.13.18-.27.37-.4.55,0,.05-.04.09-.1.1-.07-.23-.75-.19-.27-.66.1-.08.21-.16.32-.23.1-.06.2-.06.29-.04Z" fill="#f0c0af"/><path d="M3.45,22.66c-.1.13-.24.2-.4.26-.09,0-.15-.04-.16-.13.18-.07.29-.61.55-.13Z" fill="#f5d4c8"/><path d="M2.89,22.78c.05.04.1.09.16.13.03.02.05.05.08.07,0,.1-.06.14-.16.16-.11-.04-.21-.08-.32-.12-.04-.09-.05-.17.08-.23.03-.03.05-.05.08-.08.03.02.05.04.08.07Z" fill="#f0c0b0"/><path d="M2.74,22.8c-.03.08-.05.15-.08.23-.03.03-.05.05-.08.08-.17-.09-.03-.4-.31-.41-.18-.13-.57-.13-.3-.52.17-.1.33-.25.52-.1,0,.02.01.05.02.07.05.1-.39.32.05.33.23,0,.1.22.18.31Z" fill="#ebb6a5"/><path d="M2.97,23.15l.16-.16c.1.04.21.08.31.12-.16.07-.32.08-.47.05Z" fill="#f4d0c1"/><path d="M2.03,22.21c-.28.34.39.21.23.49-.05.05-.11.11-.16.16-.06.01-.11.06-.17.09-.12.13.02.16.07.22.1.16.64.26.01.51-.03.03-.05.05-.08.08-.27.37-.7.22-1.04.37-.07-.02-.13-.06-.16-.12.01-.19.21-.31.25-.49.16-.13.32-.15.48-.06.07.02.04.1.09.12,0-.07-.03-.12-.1-.16-.13-.11-.18-.27-.39-.34-.4-.13-.64-.44-.64-.88.29-.21.65-.29.92-.55.12-.12.31-.15.45-.02.06.2.15.38.23.57Z" fill="#e1ab99"/><path d="M2.02,23.69c.5-.37-.08-.29-.15-.43.03-.13-.12-.27.08-.38.05,0,.11-.01.16-.02.05.34.23.57.7.66-.26.12-.33.3-.47.42-.1-.09-.21-.17-.31-.26Z" fill="#eab5a4"/><path d="M1.06,25.4c-.05.04-.1.09-.16.13.49.42-.11.47-.32.61-.12.09-.14.21-.24.29-.09,0-.18,0-.24.1-.03.08-.05.15-.08.23,0,.06-.02.09-.08.08-.15.07-.35.04-.47.19-.28-.17-.1-.47-.15-.71.01-.22.16-.29.36-.31.34.06.55-.1.66-.41.2-.26.38-.62.72-.2Z" fill="#eab3a0"/><path d="M-.05,26.84s.05-.06.08-.08c.22.23.5.15.79.07.06.18-.22.28-.16.46,0,.03-.02.06-.03.09-.16-.25-.56-.24-.68-.54Z" fill="#eab7a7"/><path d="M1.06,25.4c-.29-.21-.47-.03-.63.21-.05,0-.1,0-.14-.04-.13-.22-.04-.41.2-.51.19-.09.2-.19.15-.33,0-.23.14-.3.35-.26-.17-.09-.26-.2-.07-.39.31-.25.69-.17,1.03-.33.03.07.05.14.08.21-.08.14-.25.23-.29.4-.13.22-.49.26-.5.57.16.13.31.26.47.39-.21.04-.42-.19-.63.06Z" fill="#e3af9c"/><path d="M.11,26.53c-.04-.06-.13-.13-.01-.2.11-.06.18.05.25.1-.07.07-.14.12-.24.1Z" fill="#eec3b1"/><path d="M1.22,24.94c-.21-.43.31-.43.47-.64.1,0,.15.04.16.13h0c-.01.16-.05.31-.24.39-.13.05-.28-.02-.4.11Z" fill="#eabaaa"/><path d="M1.62,24.83c.04-.15.11-.28.24-.39.11.04.21.08.32.12-.18.11-.21.53-.55.28Z" fill="#f0c6b6"/><path d="M1.86,24.44c-.05-.04-.11-.09-.16-.13-.04-.23.17-.25.32-.33.19.2-.21.29-.16.46Z" fill="#f0c7b6"/><path d="M0,8.33c.08-.03.16-.07.24-.1.02.16.2.29.02.51-.14.16.03.21.14.28.14.08.06.15-.09.17-.19.08-.08.17-.04.26.06.07.08.16.08.26,0,.1.01.2-.07.28-.24.08-.41-.03-.58-.14-.12-.11-.14-.25-.1-.41.02-.09.04-.19.05-.28.02-.1.05-.18.15-.24.03-.03.08-.02.09-.07-.06.04-.13.06-.2.04-.31-.37-.29-.41.32-.56Z" fill="#eeb6a9"/><path d="M.3,9.92c-.06-.06-.11-.12-.08-.21.17-.03.13-.15.14-.25,0-.02.01-.04.02-.06.6-.32.39.19.47.39-.09.12-.2.23-.32.31-.05.03-.1.04-.15.05-.12-.04-.12-.13-.08-.23Z" fill="#eeb4a7"/><path d="M.46,10.05c.12-.1.2-.27.39-.26.12.06.32-.25.4.03.09,0,.15.02.2.08.04.07.04.14-.02.21-.12.11-.25.21-.42.16-.13-.13-.28-.19-.48-.13-.05-.01-.07-.04-.07-.09Z" fill="#f3c4b7"/><path d="M1.41,9.96c-.05-.04-.1-.09-.16-.13.05-.05.1-.11.16-.16.03-.03.05-.05.08-.08.1-.01.17.03.22.1.06.25-.08.3-.3.28Z" fill="#f0b4a9"/><path d="M1.33,8.86c-.03.13-.05.25-.08.38-.08-.14-.27-.28.08-.38Z" fill="#f1b3a7"/><path d="M.15,9.5c-.02-.13-.12-.29.16-.31-.03.09.01.16.08.21h0c-.04.14-.15.09-.24.1Z" fill="#efb8a9"/><path d="M3.2,12.95c.11.2.58-.09.52.32-.04.26-.19.43-.47.49-.12.03-.25.07-.37.11,0,.06-.04.09-.1.1-.08-.02-.14-.06-.16-.14,0-.05.02-.1.04-.15.06-.09.14-.16.21-.24.11-.11.13-.22-.04-.39.05.17.09.28.02.38-.08.11-.17.21-.28.29-.25.1-.27-.03-.24-.21.11-.28.04-.46-.27-.51-.15-.02-.3-.06-.36-.21-.01-.05,0-.1.03-.14.06-.05.14-.08.21-.09.21.07.43-.16.64-.06.18.08.32.23.54.23h0c.13.03.1.12.08.21Z" fill="#f2beb1"/><path d="M2.8,13.95s.05-.05.08-.08c.18.05.24.49.57.07.11-.14.19-.07.29.36.03.13-.1.12-.16.16-.05.1.01.16.08.21.24.26,0,.37-.2.56-.14.13-.28.27-.44.39-.15-.07-.09-.19-.06-.3.03-.06.08-.13.14-.16.11-.05.23-.1.03-.16,0-.24-.26-.36-.26-.61.02-.16-.1-.28-.08-.44Z" fill="#f0baab"/><path d="M3.2,12.95c-.03-.07-.05-.14-.08-.21.07-.14.29-.15.32-.33.04-.13.14-.1.24-.1.05.18.02.41.31.41.1,0,.15.05.16.13-.32.18-.63-.22-.95.09Z" fill="#efbaac"/><path d="M4.15,12.85c-.05-.04-.1-.09-.16-.13.03-.08.05-.15.08-.23.16-.02.32-.03.47-.05.14.29-.17.34-.32.47-.03-.02-.05-.04-.08-.06Z" fill="#f1bdb2"/><path d="M4.37,14.08c-.14.12-.24.35-.47.2.16-.11.32-.23.48-.34,0,.05,0,.1,0,.15Z" fill="#f4ccbf"/><path d="M4.15,13.59c0,.09,0,.15-.01.21,0,.02-.11.04-.14.02-.07-.04-.06-.11-.01-.17.02-.03.09-.03.17-.06Z" fill="#f1bdb2"/><path d="M1.94,12.63c-.05,0-.11.01-.16.02-.21-.04-.28-.16-.2-.36.06-.15.12-.29.06-.44-.03-.06-.05-.12-.06-.19-.02-.1.04-.23-.12-.26-.16,0-.33.13-.49.06-.15-.13-.05-.34-.14-.49-.03-.1-.03-.21-.02-.32,0-.08.03-.16.05-.24,0-.04.02-.08.03-.12.03-.04.06-.06.1-.06.13-.04.26-.08.39-.11,0,.02.01.04.02.07,0,.29.22.41.43.53.07.02.12.07.15.13.03.36.36.63.26,1.03-.44.15-.22.39-.16.61,0,.1-.06.15-.16.16Z" fill="#f1bdb0"/><path d="M2.26,11.86c-.16-.31-.39-.6-.31-1,.29-.1.51.14.79.07.03.07.05.14.08.21,0,.19-.4.31-.17.54,0,.02,0,.05,0,.07-.11.12-.23.24-.39.11Z" fill="#f0b5a8"/><path d="M3.44,11.67c-.27.47-.53.39-.79.08,0,0,0,0,0,0,.1-.29.35-.29.59-.3.13.02.2.1.2.22Z" fill="#f0b7ad"/><path d="M1.94,12.63c.05-.05.11-.11.16-.16.23.06.54-.57.71,0-.04.13-.14.11-.24.1-.21.02-.42.04-.63.06Z" fill="#f1b8aa"/><path d="M3.44,11.67c-.08-.07-.16-.13-.24-.2,0-.05.03-.08.08-.08.26-.07.47-.1.31.26-.05,0-.11.01-.16.02Z" fill="#f2c7ba"/><path d="M2.57,12.57c.08-.03.16-.06.24-.1.1.09.21.18.31.26-.25.1-.42.01-.55-.17Z" fill="#f4c8bd"/><path d="M3.68,12.31c-.08.03-.16.06-.24.1-.06-.06-.12-.12.01-.19.15-.09.19,0,.23.1Z" fill="#ecb4a7"/><path d="M2.74,10.93c-.34.34-.53-.03-.79-.07-.05-.04-.1-.09-.16-.13-.01-.16.07-.29.19-.42.11-.09.23-.15.37-.16.05,0,.11-.01.16-.02-.37.46.34.41.31.71-.03.03-.05.06-.08.08Z" fill="#f2c0b3"/><path d="M3.29,11.39l-.08.08c-.18.09-.37.18-.55.28-.07-.11-.34-.03-.3-.27.04-.26.36-.16.47-.34.33-.18.39.05.47.25Z" fill="#f2c1b4"/><path d="M1.64,9.71c-.05-.04-.11-.09-.16-.13-.09-.21.04-.36.21-.5.24-.19.45-.05.59.06.18.14-.09.25-.17.38,0,.1-.06.15-.16.16h0c-.11.02-.21.06-.31.03Z" fill="#f1c8bc"/><path d="M1.96,9.68c.05-.05.11-.11.16-.16.1.02.17-.03.24-.1.1.04.21.08.31.12-.21.33-.45.33-.71.15Z" fill="#f1c2b6"/><path d="M2.44,8.6s.05.04.08.07c-.03.09-.06.19-.09.28-.03-.01-.07-.01-.08-.03-.06-.12,0-.22.09-.32Z" fill="#f0bbac"/><path d="M1.64,9.71c.11-.05.21-.06.31-.03-.1.11-.1.21,0,.29.06.07.15.06.24.05.05.04.1.09.16.13-.09.09-.17.2-.32.18-.33.15-.5,0-.63-.23,0,0,0,0,0,0,0-.05,0-.1,0-.15.1-.06.28-.06.24-.25Z" fill="#f1bdb0"/><path d="M2.19,10.03c-.08.07-.17.16-.27.11-.07-.04,0-.11.04-.16.1-.04.17,0,.24.05Z" fill="#f2c0b3"/><path d="M3.02,15.32c0,.1,0,.2,0,.3.05.04.1.09.16.13-.03.08-.05.15-.08.23-.13.02-.24,0-.34-.07-.08-.25-.21.04-.31.01-.07-.01-.12-.05-.15-.11,0-.16-.15-.09-.24-.1-.13-.02-.32.02-.35-.15-.03-.19.18-.24.32-.31.25-.06.5-.05.74-.09.05,0,.1,0,.15,0,.07.03.11.08.11.16Z" fill="#ebb2a1"/><path d="M3.66,14.67c-.12.03-.22,0-.23-.12,0-.08.07-.1.15-.1.06.06.11.12.08.21Z" fill="#f6c5b9"/><path d="M2.78,15.86c.15-.05.23.05.32.12-.08.18-.16.36-.24.54-.15.07-.3.12-.44,0,.05-.25-.07-.56.36-.66Z" fill="#eaae9d"/><path d="M2.46,16.49c.13.01.26.02.39.03,0,.05,0,.1,0,.15,0,.12-.06.21-.16.29-.16.11-.32.15-.5.09-.12-.11-.07-.24-.02-.38.06-.1.15-.18.28-.19Z" fill="#ebb3a1"/><path d="M2.62,16.91c.08-.08.16-.16.24-.24.05.09.1.19.16.28.05.14-.35.33,0,.44-.29.35-.35.03-.47-.1,0-.13.08-.25.08-.38Z" fill="#e6b09f"/><path d="M2.23,16.73c0,.1,0,.2,0,.3.11.12.16.26.16.43.05.04.1.09.16.13-.3.22-.62.4-.98.47-.12-.41-.3-.77-.72-.98-.14-.07-.11-.24-.2-.34-.05-.07-.09-.15-.06-.25.07-.11.18-.21.2-.34,0-.06,0-.12-.07-.14-.13.16-.29.23-.49.23-.05,0-.1-.01-.14-.04-.16-.23-.17-.46.11-.68.33-.02.61-.31.96-.25.35.05.44.54.9.43.05-.01.03.14,0,.23-.02.05-.06.08-.1.12-.13.05-.25.06-.38.05-.06-.01-.15-.08-.16-.07-.04.1.05.17.08.26.08.14.2.04.3,0,.18-.03.31.03.4.15.07.09.04.19.02.29Z" fill="#e6b09f"/><path d="M1.59,17.98c.23.17.21-.14.3-.16.23-.05.4-.28.65-.23.17.16.27.45.63.23.56.76-.51.27-.52.64.09.23.33-.09.49,0-.43.53-.56.54-.98.11.07-.16.45-.1.34-.33-.07-.15-.33-.19-.52-.01-.23.22-.26-.06-.38-.09-.09-.04-.09-.09,0-.15Z" fill="#e4aa99"/><path d="M2.38,17.45c-.14-.11-.24-.23-.16-.43.13-.04.26-.08.4-.11.14.14.18.27-.08.38-.05.05-.11.11-.16.16Z" fill="#e5ab9a"/><path d="M3.23,20.1c-.07.27-.1.53-.44.19-.33-.33-.47-.27-.63.21-.08.25-.3.29-.51.36-.18,0-.2-.12-.21-.25,0-.05.02-.1.04-.15.06-.12.12-.23.23-.32.45-.16.13-.48.24-.71.06-.1.14-.16.26-.18.12-.15.26-.2.44-.16.08.02.2-.02.21.1.01.11-.07.14-.17.17-.18.04-.25.2-.22.32.03.12.2,0,.29.03.17.12.48.05.54.31-.02.03-.05.05-.07.08Z" fill="#e2a998"/><path d="M2.21,19.24c-.08.08-.16.16-.24.25-.27.43-.37.46-.54.09-.16-.36-.42-.17-.67-.12-.07.01-.13,0-.2,0,.07,0,.13,0,.2,0,.37-.12.21.3.38.33.23.04.54-.08.58.27-.17.25-.45.25-.7.31-.11.02-.21.01-.29-.05-.05-.05-.08-.12-.1-.18-.04-.14-.13-.25-.25-.35.07.08.11.16.06.27-.18.02,0,.27-.21.27-.8-.25-.94-1-.32-1.61.21,0,.37.11.56.16.07.07.15.11.24,0-.01-.03.16-.09,0-.08-.04,0-.09.05-.14.05-.21-.09-.7-.04-.19-.46.17-.14-.03-.37.14-.53.07-.06.25.16.24-.1.08-.05.17-.09.19-.19,0-.13-.07-.08-.14-.03-.07.07-.14.14-.2.21-.03.04-.07.07-.11.09-.07.07-.15.1-.24.13-.09.03-.18.07-.26.12-.16.13-.34.23-.55.22-.05-.01-.09-.03-.12-.06-.1-.19-.32-.08-.48-.12-.04-.03-.06-.07-.06-.11.1-.36.43-.38.71-.48.12-.05.23-.07.35-.04.38-.18.68-.44.86-.81.19.29.42.54.72.72.26.16,0,.43.14.59,0,.05,0,.1,0,.15-.05.05-.11.11-.16.16,0,.1-.06.15-.16.16.02.06.01.16.06.18.35.14.58.42.88.61Z" fill="#e0aa98"/><path d="M1.27,18.45c.05-.05.11-.11.16-.16.06.04.2.03.12.15-.08.12-.19.07-.28.01Z" fill="#e1ab9a"/><path d="M.78,20.27c.08.02.16.03.24.05.18.07.47-.11.55.17l-.04.04-.04.04c0,.13-.13.23-.15.35.04.05.1.02.16.01.02,0,.04,0,.07,0,.36.02.5.27.63.53,0,.04,0,.08-.04.12-.06.07-.14.11-.23.14-.04.01-.09.01-.13,0-.18-.12-.41-.04-.49.1-.21.35-.54.34-.85.4-.1.07-.2.07-.3.06-.11,0-.21-.02-.32-.02-.23,0-.46-.08-.46-.31,0-.29.34-.1.47-.24.16-.08.14-.28.29-.36.13,0,.2.09.31.12.16,0,.33,0,.49-.07-.16-.26-.7-.32-.38-.81.04-.04.1-.02.15-.05-.02-.01-.05-.03-.08-.05-.02-.04-.03-.08-.01-.12.04-.07.09-.11.17-.11Z" fill="#e4ad9a"/><path d="M2.11,21.54s.05-.05.08-.08c.07-.15.01-.33.16-.46.05-.09.11-.09.16-.01.09.09-.06.26.08.34.04-.12.38.04.27-.27-.03-.09.14-.07.2-.02.09.09.16.2.25.31-.16.16-.26.33-.24.54-.08.03-.16.07-.24.1-.16-.24-.56-.18-.71-.44Z" fill="#e7b2a1"/><path d="M2.51,20.98c-.05,0-.1,0-.16.01-.05-.13-.26-.23.03-.4.12-.07.21-.12.29-.05.2.19-.07.29-.16.43Z" fill="#f0c7b7"/><path d="M1.25,20.96c-.19-.25.21-.24.24-.39.05.09.1.19.16.28l-.04.04-.04.04h0c-.1,0-.21.07-.31.03Z" fill="#eab2a1"/><path d="M2.11,21.54c.28.09.71-.01.71.44-.09.09-.17.2-.32.18h0c-.05-.34-.59-.18-.63-.53.08-.03.16-.07.24-.1Z" fill="#ebb6a5"/><path d="M1.88,21.63c.19.19.7.06.63.53-.16-.16-.32.08-.47.05-.24-.08-.42-.2-.23-.49.03-.03.05-.05.08-.08Z" fill="#e5af9d"/><path d="M.22,22.17c.08.02.16.03.24.05.2.3.32.72.74.79.32.05.29.25.36.43,0,.05-.02.08-.08.08-.16-.03-.32-.02-.47.05-.17.08-.36,0-.53.1-.08.08-.09.2-.18.27-.04.03-.09.04-.14.05-.21,0-.3-.19-.47-.25-.04-.03-.07-.06-.09-.1-.05-.18.08-.25.22-.32.08-.03.16-.07.22-.14.07-.16-.07-.13-.16-.15-.21,0-.44.07-.64-.02-.07-.29.35-.46.28-.74.11-.09.22-.04.29,0,.17.09.29.02.42-.1Z" fill="#daa28f"/><path d="M-.11,23.38c-.1.06-.28.06-.24.25-.02.04,0,.07.03.09.01,0,.03,0,.05-.02.27-.09.25.27.47.25,0,.03,0,.04,0,.04,0,.01,0,0,0-.04.14-.12.05-.25.08-.38.26.03.39.19.47.39.05.04.1.09.16.13.14.28-.1.47-.24.69-.02.01-.04.02-.07.04-.19.09-.28-.3-.5-.03-.16-.08-.22-.29-.43-.31-.28-.29-.24.25-.44.19-.08,0-.15-.02-.22-.06-.27-.13-.41-.33-.3-.64.18-.18.09-.46.32-.63.3-.07.63-.3.85.05Z" fill="#dea590"/><path d="M.76,23.96c-.29,0-.29-.29-.47-.39.25-.07.49-.14.71,0,.21.26-.07.3-.24.39Z" fill="#e4ad9b"/><path d="M1.95,22.88c-.03.13.05.26-.08.38-.11-.1-.25-.19-.15-.37.07-.11.15-.04.23,0Z" fill="#e5af9d"/><path d="M1.47,23.52s.05-.05.08-.08c.2.04.1.16.03.25-.03.03-.12.06-.14.05-.1-.07.1-.14.03-.21Z" fill="#e5af9c"/><path d="M-.28,26.06c-.16-.16-.32.08-.47.05-.07-.35.2-.38.45-.42.23,0,.43-.15.66-.14.03.02.05.04.08.07-.14.3-.26.64-.71.44Z" fill="#e4aa97"/><path d="M.35,25.55c-.2.11-.37.35-.63.21-.13-.05-.36.02-.34-.22.01-.17.15-.24.29-.3.15-.07.32-.11.45-.22.03-.04.06-.07.09-.11.14-.11.32-.06.47-.13h0c.27.13.51.25-.06.34-.27.05-.33.21-.26.43Z" fill="#e1a694"/><path d="M-.18,10.41c.04-.22-.23-.34-.15-.57,0-.05.02-.08.08-.08.17.08.33.18.55.17.03.07.05.14.08.21.09.27.34.16.55.17.18.08-.04.2,0,.3-.12.3-.43.38-.69.51-.31.16-.37-.13-.51-.27.07-.14.16-.27.1-.43Z" fill="#f0bcad"/><path d="M.15,9.5c.08-.03.16-.07.24-.1.09.08.15.18.07.31-.07.1-.16.04-.23,0,.03-.09-.01-.16-.08-.21Z" fill="#f0bdb0"/><path d="M-.17,8.94s-.05-.04-.08-.07c.08-.08.15-.16.23-.24.03.14.09.29-.15.3Z" fill="#f0bdaf"/><path d="M.93,10.3c-.16.12-.35.26-.53.2-.13-.05-.06-.23-.02-.36.03-.03.05-.05.08-.08.03.02.05.04.08.07.17,0,.36-.04.39.18Z" fill="#f1bdb0"/><path d="M.93,10.3c-.13-.06-.26-.12-.39-.18.26-.25.42-.23.47.1-.03.03-.05.05-.08.08Z" fill="#f0bcad"/><path d="M1.99,15.95c0-.06-.02-.13-.02-.19-.43.12-.57-.23-.84-.39-.07,0-.1-.02-.1-.09.02-.11.1-.19.2-.25.18-.07.38-.13.35-.38.09-.25-.2-.74.47-.65.16.14.28.06.39-.1.06-.06.12-.09.2-.09.05.04.1.09.16.13.11.12.34.19.15.43-.02.25-.26.24-.41.33-.16.06-.21.2-.29.31-.06.06-.12.12-.14.2,0,.02-.02.04-.03.05-.09.09-.19.17-.32.29.21,0,.37.06.57.01.11-.03.02.12-.02.19-.02.12.05.15.16.13.11-.1.21-.29.31-.03-.27.15-.08.46-.32.62-.08.08-.16.16-.24.24-.03-.07-.05-.14-.08-.21.05-.23-.17-.36-.16-.57Z" fill="#eeb9a9"/><path d="M1.7,12.73c.1.11.24.15.39.18,0,.14-.08.24-.2.31-.05.02-.1.03-.15.03-.1-.06-.21-.13-.33,0-.1.11.03.18.04.27,0,.11-.05.19-.16.24-.28.02-.56.04-.61-.3.05-.18-.04-.24-.22-.22-.17-.07-.18-.21-.16-.36.03-.17.06-.34.19-.49.15-.18.35-.28.56-.37.13-.08.25-.2.42-.14.2.19.1.35-.12.51-.11.08-.3.1-.27.3.25-.24.47-.32.6.03Z" fill="#f1bdb0"/><path d="M1.3,13.73c.06-.07.11-.14.08-.23.04-.22.18-.3.4-.26h0c.3-.1.57-.14.63.23,0,.09-.13.22.08.21.09,0,.2-.08.24.05-.03.03-.05.05-.08.08-.05.05-.11.11-.16.16-.07.03-.18.07-.21.02-.22-.3-.07.18-.19.09-.66-.12-.2.41-.4.56-.31.18-.33.17-.45-.18,0-.05-.01-.09-.01-.14.03-.2.07-.4.08-.6Z" fill="#f0bcab"/><path d="M1.7,12.73c-.24-.12-.24-.12-.33.11-.03.09-.1.11-.17.11-.17,0-.17-.15-.23-.24-.09-.12-.04-.22.11-.3.19-.11.53-.12.4-.46-.01-.09-.15-.18-.02-.27.14-.09.2.12.33.09.21.27-.32.62,0,.89-.03.03-.05.05-.08.08Z" fill="#eeb7a8"/><path d="M2.41,13.47c-.15-.19-.38-.22-.63-.23.11-.11.21-.22.32-.33.44,0,.49.21.31.56Z" fill="#f0b6a7"/><path d="M2.8,13.36c0-.14-.28-.18-.11-.37.1-.12.25-.07.28-.01.09.15.23.33-.02.52-.1,0-.15-.04-.16-.13Z" fill="#eeb5a6"/><path d="M2.8,13.36c.05.04.1.09.16.13-.08.08-.16.16-.24.25-.08-.02-.16-.03-.24-.05.11-.11.21-.22.32-.33Z" fill="#eeb9a9"/><path d="M2.56,14.63c.09-.15.32-.09.4-.26,0,.25.47.3.23.64-.09.1-.18.18-.32.18h0c-.05-.01-.09-.08-.12-.08-.56.06-.43-.19-.19-.48Z" fill="#efb5a6"/><path d="M2.87,15.19c.09-.09.17-.2.32-.18.34.25-.21.17-.16.31-.05-.04-.1-.09-.16-.13Z" fill="#f3c1b2"/><path d="M.6,12.4c-.15.13-.09.31-.16.46-.15.25-.27.57-.67.38-.24-.28.06-.68-.1-.98.03-.04.06-.08.1-.1.03-.02.06-.02.1,0-.05-.06-.11,0-.17,0-.15-.02-.33-.05-.27-.23.16-.44-.15-.57-.45-.7-.27-.08-.52-.21-.74-.37-.05-.06-.08-.13-.08-.21.23-.11.5.12.71-.15.03.02.05.04.08.07.14.23.38.27.65.24.05-.02.09-.02.14-.02.43.54.79-.06,1.18-.19,0,.1,0,.2,0,.3.06.18-.03.33-.13.49-.08.18-.7.23-.22.56.04.03.06.07.09.11.06.12-.02.24-.07.35Z" fill="#efb7a7"/><path d="M1.79,11.76c-.1.07-.37-.16-.32.18-.2-.01-.28.16-.4.26-.19-.12-.04-.37-.19-.51-.02-.07-.03-.14,0-.21.02-.05.06-.08.12-.09.19.01.35-.22.55-.13.09.1.07.23.08.36.05.04.1.09.16.13Z" fill="#efbaaa"/><path d="M1.4,10.11c.24.02.35.28.63.23-.04.15-.11.28-.24.39-.59-.14-.63-.21-.39-.62Z" fill="#f0b5a8"/><path d="M1,11.4s-.05.05-.08.08c-.09,0-.15-.04-.16-.13.05-.15.11-.31.16-.46.19.13.05.34.08.51Z" fill="#ebb2a3"/><path d="M1.63,11.63c-.11-.09-.14-.22-.08-.36.35.03.16.21.08.36Z" fill="#f3c4b7"/><path d="M2.56,14.63c.24.18-.14.25-.13.38.2.07.27-.18.46-.17,0,.12,0,.23-.01.34-.26.2-.53.14-.79.08h0c.03-.08.08-.15.08-.23.07-.19.08-.42.4-.41Z" fill="#f1bdac"/><path d="M2.47,15.9c-.09.08-.2.14-.28.04-.08-.1.06-.13.12-.17.05.04.1.09.16.13Z" fill="#f1c1af"/><path d="M.26,15.53c-.22.22-.21.45-.08.67-.04.13-.16.22-.23.34-.14.14-.31.17-.48.18-.17.04-.22-.24-.44-.1-.12-.12-.07-.26-.02-.4.11-.28-.12-.41-.23-.6-.04-.16-.2-.23-.27-.36.01-.13.08-.24.17-.34.29-.11.49.05.71.14.03.23.18.37.41.43.06,0,.13-.02.19-.04.06-.03.13-.05.19-.06.05,0,.09,0,.13.02.03.06.05.11-.05.15Z" fill="#dfab9a"/><path d="M-.06,16.45c-.05-.19.14-.18.24-.25.03-.03.05-.05.08-.08-.02.27.39.09.39.33-.03.09.01.16.08.21-.03.12-.06.24-.09.35-.09.36-.65.32-.7.72-.03-.06-.06-.12-.09-.17-.18-.23-.74-.19-.51-.7.14-.23.56-.05.6-.42Z" fill="#e4ad9c"/><path d="M.26,15.53s0-.1,0-.15c-.18-.27-.37-.52-.73-.6,0-.05.02-.1.05-.15.26-.34.6-.14.9-.21.14-.01.36-.1.42-.01.17.28.32-.04.47-.03,0,.2-.02.42.31.26.12.35-.01.48-.4.41-.25-.05-.62.23-.72-.19-.08.38.47.15.48.44.03.02.05.04.08.07-.3-.09-.56.37-.87.16Z" fill="#eab4a3"/><path d="M.65,16.45c-.12-.12-.47,0-.39-.33.21.03.3-.12.4-.26.22.02.21.19.24.34-.06.1-.03.27-.24.25Z" fill="#dfab9a"/><path d="M1.99,15.95c.15.16.49.25.16.57-.1-.11-.24-.16-.39-.18-.06-.14-.03-.26.16-.31.03-.03.05-.05.08-.08Z" fill="#e3aa99"/><path d="M1.91,16.03c-.05.1-.11.21-.16.31-.05.08-.03.22-.17.23-.13,0-.16-.09-.14-.2,0-.12,0-.25.16-.31.11-.1.21-.12.31-.03Z" fill="#ecb6a7"/><path d="M1.6,16.06c-.05.1-.11.21-.16.31-.2-.1-.14-.31-.22-.47.21-.08.32,0,.38.16Z" fill="#e2ac9c"/><path d="M1.4,17c.23,0,.53-.09.66.27-.27-.11-.46-.19-.66-.27Z" fill="#ebb4a4"/><path d="M.89,16.2c-.08-.11-.16-.23-.24-.34.25,0,.4.07.24.34Z" fill="#ecb8a8"/><path d="M1.65,20.11s-.02-.14-.02-.14c-.49.09-.64-.3-.92-.5h0q.61-.47.87.09.08.18.39-.07c.1.27.52.6-.24.69-.04,0-.06,0-.07-.03-.01-.02-.01-.03,0-.04Z" fill="#e6af9e"/><path d="M1.65,20.11s.05.04.08.07c-.05.1-.11.21-.16.31-.15-.12-.43.03-.55-.17.16-.28.44-.06.63-.21Z" fill="#dda394"/><path d="M.3,21.65c-.05-.09-.1-.19-.16-.28-.05,0-.1.01-.15.02-.24,0-.31-.27-.55-.27-.05-.01-.09-.03-.12-.05-.07-.12-.21-.12-.33-.16-.03-.03-.05-.07-.06-.12.12-.33-.35-.43-.24-.75.07-.05.15-.07.23-.06.08.01.14.04.2.09.08.07.15.14.26.18-.06-.04-.12-.08-.17-.13-.08-.26-.31-.42-.48-.63.24-.17-.2-.47.18-.62.1-.13-.1-.06-.09-.14-.03-.04-.04-.08-.03-.13.02-.05.05-.09.08-.13.15-.11.29-.25.49-.26.03.02.05.04.08.07.06.06-.21.4.2.19.2-.11.38.02.35.27-.49.58-.38,1.14.3,1.59,0,.02,0,.05,0,.07-.26.31-.3.53.14.68.33.11.28.26-.15.57Z" fill="#dea893"/><path d="M0,18.73c-.23-.19-.23-.2-.4.04-.09.13-.16.07-.21,0-.12-.17-.14-.34.06-.51.18-.09.37-.18.55-.28.1.01.17-.02.24-.1.08-.03.16-.06.24-.1.04,0,.06,0,.07.02.01.02.01.04,0,.04q.07.6-.31.73c.06.17.28.11.38.22.04,0,.06,0,.08.03.02.02.02.04.02.04-.06.1-.15.13-.26.09-.15-.09-.4-.03-.47-.25Z" fill="#e2ab9a"/><path d="M.39,20.09c-.05-.15-.09-.3-.18-.59.28.25.55.33.58.62-.15.06-.32.24-.39-.03Z" fill="#e4ad9b"/><path d="M1.04,17.52c.05.06.11.13.04.22-.09.12-.19.08-.28.02-.09.02-.2.08-.24-.05-.05-.19.14-.18.24-.24.1-.03.17,0,.24.05Z" fill="#e5af9e"/><path d="M.39,20.09c.11.12.26.02.39.03,0,.05,0,.1,0,.15-.05.05-.11.11-.16.16-.22.18-.26.03-.31-.12h0c.08-.06-.11-.19.08-.23Z" fill="#e9b2a0"/><path d="M.71,19.47c-.29.2-.36-.02-.49-.19.28-.09.35.12.49.19h0Z" fill="#e4ad9b"/><path d="M1.04,17.52c-.1.04-.17,0-.24-.05-.02-.17.09-.21.23-.18.15.04.07.14.01.23Z" fill="#daa392"/><path d="M1.14,17.82c.07.01.14,0,.17.03.09.09,0,.19-.05.27-.02.03-.1.03-.14.05,0-.1.01-.2.03-.35Z" fill="#e4b0a0"/><path d="M.48,18.97c.08-.03.16-.06.24-.1.04,0,.06,0,.07.02.01.02.01.04,0,.04-.05.08-.03.22-.17.23-.13,0-.16-.09-.14-.2Z" fill="#e6b09d"/><path d="M.79,18.94s-.05-.04-.08-.07c-.03-.02-.05-.04-.08-.07.04-.1.09-.21.23-.14.2.11-.03.18-.07.27Z" fill="#d9a292"/><path d="M.82,18.32s0-.09.01-.12c.04-.07.11-.1.18-.06.02.01.14,0,.05.08-.06.06-.12.14-.25.11Z" fill="#daa593"/><path d="M.25,17.89c.01.11.03.23-.12.28-.02,0-.08-.12-.11-.18.07-.07.14-.12.24-.1Z" fill="#e5b29f"/><path d="M.56,17.71c.08.02.16.03.24.05,0,.07,0,.17-.03.19-.1.05-.14-.06-.2-.09-.03-.02-.05-.04-.08-.07.03-.03.05-.05.08-.08Z" fill="#d9a593"/><path d="M.22,22.17c-.19.43-.47.1-.71.15-.28-.08-.06.26-.25.25-.37-.16-.37.15-.45.34-.02.05-.04.09-.07.14-.03.04-.07.08-.12.1-.05.02-.1.02-.14,0-.14-.15-.1-.38-.25-.52-.03-.2.19-.41.02-.6-.05-.12-.05-.23.07-.34.33-.08.65-.22.98-.3.1-.01.2,0,.29.05.1.11.28.16.29.34-.05.46-.34-.04-.46.15.12.36.53.15.77.26Z" fill="#dfa793"/><path d="M.31,20.32c.09.07.17.16.31.12.03.02.05.04.08.07,0,.05-.02.08-.08.08-.19.33.09.46.27.59.12.09.28.13.35.33-.33.05-.64.1-.95.15.24-.23.42-.38-.06-.52-.54-.16-.51-.23.07-.8Z" fill="#e0aa97"/><path d="M-.1,21.76c-.11-.08-.29-.1-.31-.26.07-.3.35-.05.47-.2.03.02.05.04.08.07-.06.14,0,.33-.24.39Z" fill="#e1ab95"/><path d="M1.25,20.96c.11-.1.21-.12.31-.03-.11.08-.17.26-.33.22-.12-.03-.03-.13.01-.19Z" fill="#e1a696"/><path d="M.62,20.58s.05-.05.08-.08c.15-.04.2.04.18.16,0,.03-.06.07-.1.1-.05-.06-.11-.12-.16-.18Z" fill="#eab2a1"/><path d="M-1.45,23.15c.05-.05.11-.11.16-.16.21-.16.38-.04.55.02.21-.08.42-.1.63-.06.18.05.23.18.23.35-.07.07-.14.12-.24.1-.27-.2-.58.04-.87.01-.23.02-.41-.02-.47-.25Z" fill="#dba38e"/><path d="M.13,23.29c-.13-.08-.19-.21-.23-.35.42-.11.41.06.23.35Z" fill="#dea694"/><path d="M-2.1,26.61c-.03-.07-.08-.14-.08-.22,0-.19-.71-.52.18-.55.06,0,.14-.19.22-.29.08-.16.22-.31.11-.49,0-.07,0-.14.04-.2q.26-.51-.24-.51c-.05,0-.11-.01-.16-.02-.02,0-.05-.02-.07-.02-.04-.02-.08-.06-.1-.1-.04-.16.12-.32.08-.48,0-.05.02-.09.05-.13.17-.11.32-.24.47-.36.05-.02.1-.02.14,0,.28.16.07.51.24.71,0,.25.03.47.31.56.05.15.13.28.28.34.17-.05.19-.28.38-.29.31.03.21.46.52.49-.03.29-.34.12-.47.28-.08.09-.3.02-.34.22-.04.21.29.03.26.22-.19.07-.44.06-.48.34-.41.03-.65.41-1.04.5-.11.02-.21.07-.3,0Z" fill="#dea18c"/><path d="M-.27,24.58s0-.1,0-.15c.39-.15.28.2.39.33.07.05.09.13.08.21.03.02.05.04.08.07-.48.15-.33-.35-.55-.46Z" fill="#da9e8a"/><path d="M.2,24.97c-.06-.06-.11-.12-.08-.21.24-.34.36.07.55.02-.13.15-.32.12-.47.19Z" fill="#e3af9c"/><path d="M.2,23.94c.07.04.19,0,.21.11,0,0-.12.07-.18.07-.17-.01-.08-.1-.03-.17h0Z" fill="#d69c88"/><path d="M1.05,15.3c-.09-.09-.24-.05-.35-.1-.26-.11-.42-.26-.02-.51-.14.59.51.09.61.36-.08.08-.16.16-.24.25Z" fill="#e5af9e"/><path d="M2.09,14.09c.04-.47.28-.02.39-.11-.1.17-.22.3-.39.11Z" fill="#f1c1b1"/><path d="M2.82,14.11c.01.06.05.11.03.14-.05.08-.12.06-.17.01-.02-.03-.03-.09,0-.12.02-.02.08-.02.14-.03Z" fill="#f1c1b1"/><path d="M2.16,15.04c.14.11.05.17-.08.23-.07-.07-.15-.14-.08-.25.05-.07.11-.02.17.02Z" fill="#ebb2a0"/><path d="M1.68,15.29s-.02.1-.05.14c-.04.05-.11.05-.12-.01,0-.04.03-.09.06-.14,0,0,.06,0,.11.02Z" fill="#e6b09f"/><path d="M1.3,13.73c.29.17.05.39,0,.59-.14.21-.28.02-.42.04-.34-.08-.49-.42-.81-.53-.1-.17.02-.27.17-.36.05-.03.1-.04.15-.06.13-.03.25-.05.36.01.02.34.4.16.55.31Z" fill="#eeb6a6"/><path d="M.43,13.45s-.05.05-.08.08c-.16-.04-.27,0-.37.16-.1.16-.27.27-.47.22-.09-.03-.15-.12-.09-.2.13-.16-.02-.51.38-.49.31.06.42-.25.63-.36-.06.15-.04.27.08.36-.04.07-.08.15-.08.23Z" fill="#eab3a3"/><path d="M.92,11.63c.27.12.21.35.15.57-.19-.03-.32.11-.47.2,0-.1,0-.2,0-.3,0-.18.11-.32.25-.45.02,0,.05-.02.07-.03Z" fill="#edb6a6"/><path d="M1.78,13.24c-.15.06-.29.13-.4.26-.17-.02-.25-.13-.18-.28.08-.19.32-.19.47-.23.2-.06.04.18.11.26Z" fill="#f0b6a7"/><path d="M.43,13.45c-.14-.11-.04-.17.08-.23.09-.08.18-.23.32-.14.18.12,0,.23-.08.34-.11.05-.21.06-.32.03Z" fill="#efb7a7"/><path d="M.9,14.29c.13.01.26.02.39.03.03.02.05.04.08.07-.11.12-.23.23-.37.38.04-.42-.28-.23-.5-.22-.11-.02-.08-.09-.04-.16.13-.12.28-.12.44-.11Z" fill="#e6af9e"/><path d="M.51,14.4s0,.1,0,.15c-.28.13-.6-.16-.87.16-.07-.36-.17-.67-.67-.67-.14,0-.15-.16-.07-.28.18-.52-.27-.42-.55-.5-.05,0-.1,0-.14,0-.45-.19-.08.22-.22.25-.48.22-.77,0-1.01-.31-.09-.21-.28-.44.14-.6h0c.12.1.27.11.55.02h0c.24-.04.27-.15.16-.31h0c.08-.08.16-.16.24-.25.15-.02.28-.11.41-.18.2-.1.38-.03.49.09.2.21.46.26.75.29.37.26-.07.66.07.95-.31.09-.09.41-.31.54.03.03.06.08.11.08.13.02.19-.11.27-.17.15-.13.25-.41.48-.14-.1.06-.28.06-.24.25.28.11.18.46.39.62Z" fill="#e6b09f"/><path d="M.76,11.35c.05.04.1.09.16.13,0,.05,0,.1,0,.15h0c-.26.03-.15.37-.4.41-.1-.11-.39-.06-.33-.31.07-.28.37-.26.57-.38Z" fill="#f0c0b0"/><path d="M.52,12.04c.21-.07-.12-.6.4-.41-.05.19-.17.34-.32.47-.03-.02-.05-.04-.08-.07Z" fill="#efbaaa"/><path d="M-.19,12.18s-.05-.04-.08-.07c.19-.07.34-.07.43.18-.16-.05-.25-.08-.35-.11Z" fill="#e6b09f"/><path d="M-.44,14.79c.42-.09.67.13.71.59,0,0,0,0,0,0-.09,0-.18.02-.24.1-.05.05-.11.11-.16.16-.13-.2-.42-.28-.47-.54-.24-.05-.47-.1-.71-.15-.07.15-.15.08-.22.04-.03-.04-.03-.08-.03-.12.01-.18-.17-.18-.26-.27-.04-.03-.05-.07-.06-.12.02-.08.07-.14.13-.19.13-.09.25-.19.41-.24.05,0,.1,0,.14.04.08.1.14.24.32.08.54-.01.54,0,.44.63Z" fill="#e6af9e"/><path d="M-.61,16.87s-.05-.04-.08-.06c0-.1.06-.15.16-.17.15-.08.35-.04.48-.19.17.24.17.25-.11.28-.16.02-.26.25-.45.15Z" fill="#eab3a3"/><path d="M.03,15.48s-.11-.1-.03-.15c.1-.07.19,0,.27.05-.07.07-.14.12-.24.1Z" fill="#eab4a3"/><path d="M-.65,21.45c-.05-.06-.14-.11.05-.16.18-.05.09-.14.04-.22.4-.3.32.35.63.23-.1.23-.35.04-.47.2-.08-.02-.16-.03-.24-.05Z" fill="#e5ad99"/><path d="M.51,14.4c-.2-.05-.67.06-.26-.4.04-.04-.19-.09-.13-.23.43-.04.5.37.79.51-.13.04-.26.08-.4.11Z" fill="#eab3a3"/><path d="M-6.58,4.92C-4.25,7.4-1.9,9.83.09,12.56c1.01,1.39,1.97,2.81,2.91,4.24.94,1.44,1.89,2.87,2.78,4.34,1.74,2.87,3.25,5.88,5.17,8.66.45.64.93,1.27,1.47,1.85.55.59,1.18,1.09,1.81,1.61,1.29,1.08,2.48,2.24,3.62,3.46,2.23,2.41,4.13,5.04,6.2,7.56,1.08,1.31,2.25,2.54,3.4,3.79.99,1.08,1.8,2.3,2.82,3.35,1.06,1.08,2.43,1.78,3.86,2.36.72.3,1.46.56,2.2.79.8.26,1.57.57,2.34.9.32.14.65.26.98.4.29.12.63.26.82.52.38.54-.12,1.22-.52,1.61-.44.43-.99.8-1.58,1.01-.37.13-.69.14-.96-.16-.18-.2-.29-.44-.39-.67-.28-.62-.57-1.22-.74-1.87-.18-.68-.3-1.38-.6-2.02-.07-.15-.21-.32-.17-.5.04-.15.23-.34.36-.44.28-.23.63-.37.97-.52.56-.25,1.09-.54,1.4-1.05.25-.41.44-1.04-.05-1.37-.34-.23-.74-.21-1.13-.13-.54.12-1.12.26-1.6.54-.29.16-.54.37-.81.55-.28.19-.59.27-.91.37-.4.12-.87.25-.92.7-.05.39.24.77.48,1.06.32.38.71.71,1.08,1.06.34.32.61.65.58,1.12-.03.52-.36,1-.72,1.37-.33.34-.87.83-1.38.91-.93.14-.78-1.83-.76-2.31.02-.52.08-.99.33-1.46.21-.39.69-.94.52-1.4-.21-.55-.76-.93-1.26-1.24-.35-.22-.7-.43-1-.7-.33-.29-.62-.61-.93-.91-.36-.35-1.14-.8-.47-1.28.48-.34,1.34.23,1.8.42.77.32,1.73.23,2.47-.11.88-.41,1.45-1.23,1.25-2.16-.22-1-1.19-2.04-2.28-2.26-1.12-.23-2.2.26-3.23.59-1.02.33-2.48.68-2.2,1.98.11.51.45.97.85,1.33.54.48,1.28.9,1.45,1.63.22,1-.92,1.62-1.7,2.03-.59.31-1.15.65-1.74.96-.72.38-1.54.81-2.38.89-.88.09-1.2-.67-1.06-1.38.18-.86,1.03-1.46,1.73-1.96.71-.5,1.55-.99,2.02-1.72.2-.32.31-.68.26-1.05-.08-.61-.61-.91-1.1-1.23-.48-.3-.93-.67-1.32-1.06-.37-.37-.81-.86-.75-1.4-.03,0-.06.02-.09.02,1.31-.01,2.46.74,3.75.88,1.14.12,2.05-.31,2.76-1.13.69-.79,1.37-2.04.92-3.07-.48-1.08-2.02-1.29-3.12-1.27-.68.01-1.39.08-2.02.35-.72.31-1.28.83-1.76,1.4-.47.56-.98,1.16-1.32,1.79-.37.67-.35,1.32-.07,2.01.25.61.67,1.26.54,1.94-.1.49-.43.97-.77,1.34-.17.19-.37.37-.6.5-.45.25-.88.03-1-.44-.08-.32-.02-.67.03-.99.06-.41.05-.82,0-1.24-.06-.58-.38-1.58.38-1.88,1.01-.39,1.79.29,2.4.95.48.52,1.09,1.01,1.45,1.62.4.68-.18,1.48-.73,1.93.07,0,.14,0,.21,0-1.29-.49-1.02-2.38-1.1-3.4-.06-.83-.29-1.67-.55-2.47-.17-.51-.66-1.23-.03-1.63.52-.33,1.19-.32,1.74-.59.66-.32,1.16-.9,1.54-1.47.83-1.25,1.26-2.74,1.41-4.2.07-.75.02-1.53-.35-2.22-.35-.65-.97-1.14-1.66-1.45-1.25-.55-2.71-.37-4-.03-1.55.41-2.98,1.12-4.43,1.74-.43.18-1.32.49-1.15,1.07.07.24.31.41.48.58.34.32.68.63,1.06.91.75.56,1.57,1.05,2.36,1.57.78.51,1.47,1.08,2.17,1.68.94.81,2.06,1.56,3.4,1.24.07-.02.02-.04-.02-.05-.46-.1-.93-.14-1.39-.25-.53-.13-.98-.38-1.39-.71-.66-.53-1.2-1.19-1.79-1.79-1.1-1.13-2.46-2.5-2.66-4.08-.04,0-.08.02-.13.02.76.05,1.38.66,1.8,1.2.48.62.84,1.34,1.07,2.08.18.57.32,1.24.16,1.83-.21.75-.89,1.39-1.47,1.92-.65.59-1.36,1.13-2.09,1.64-.33.23-.68.51-1.1.58-.48.08-.89-.27-1.22-.54-.8-.66-1.56-1.37-1.95-2.32-.36-.88-.36-1.84-.17-2.76.18-.86.48-1.74.75-2.59.24-.72.66-2,1.66-2.04-.06-.01-.12-.02-.18-.03.28.39-.4.61-.7.65-.26.03-.57.02-.77-.16-.06-.06-.15-.15-.16-.24-.02-.21.42-.37.58-.44,1.41-.67,3.34-.78,4.29-2.1.44-.61.67-1.36.87-2.06.09-.32.17-.65.24-.97.06-.26.13-.53-.06-.76-.32-.39-.93-.61-1.45-.63-.55-.02-1.07.18-1.54.43-.64.35-1.2.82-1.79,1.25-.9.65-1.74,1.35-2.62,2.01,0,0,0,.01,0,.02.2.22.56.26.85.28.44.04.88,0,1.32.03.66.06,1.76.6,2.37.12.01,0,0-.02-.01-.02-.92-.56-1.94-.72-3.02-.77-.95-.04-1.95-.35-2.9-.18,0,0-.04,0-.04.02.05.29.18.39.42.54.42.26.45.7.39,1.13-.1.7-.36,1.37-.73,1.98-.77,1.29-1.99,2.36-3.35,3.11-1.45.8-3,1.11-4.68,1.03-1.7-.08-3.54-.49-4.87-1.54-2.86-2.29-1.36-6.49.43-8.94.97-1.33,2.47-2.37,4.24-2.49,2-.14,3.69,1.13,4.84,2.53.52.63.95,1.35,1.31,2.07.38.77.53,1.52.01,2.26-.41.58-1.2,1.35-2.02,1.18-.74-.15-1.31-.76-1.6-1.39-.27-.59-.34-1.3-.05-1.9.43-.88,1.16-1.68,1.92-2.33.31-.26.65-.56,1.07-.64.48-.1,1.03.17,1.43.4.72.41,1.13,1.08,2.01,1.24,1.4.25,2.84-.39,4-1.05,1.37-.78,2.65-1.83,3.48-3.11.36-.56.6-1.16.73-1.8.17-.83.25-1.7-.04-2.52-.11-.29-.11-.6-.38-.8-.2-.15-.5-.24-.76-.23-.48.02-1.02.16-1.5.26-.5.1-1,.22-1.5.36-2.14.58-4.18,1.43-6.21,2.28-.5.21-1.01.38-1.5.62-.41.2-.88.46-1.07.88-.23.49.11,1.01.47,1.37.41.4.96.64,1.52.79,1.34.37,2.81.35,4.18.16.6-.08,1.2-.2,1.78-.39.01,0,.02-.01.01-.02-.3-.5-1.24-.59-1.78-.68-.39-.06-.78-.11-1.16-.16-.48-.07-.95-.21-1.41-.35-1.25-.37-2.55-.93-3.35-1.95-.35-.44-.56-.92-.56-1.47,0-.33.11-.85-.2-1.1-.04-.04-.19-.05-.24-.02-2.66,2.2-5.33,4.5-8.82,5.46-1.3.36-2.76.64-4.08.22-1.2-.38-2.33-1.43-2.32-2.67,0-1.2.95-2.24,1.93-2.93,1.33-.94,3-1.62,4.7-1.43,1.33.15,2.38.9,3.61,1.31.45.15.93.24,1.41.23.67,0,1.32-.22,1.95-.41,1.54-.45,3.14-.97,4.4-1.94,1-.77,2.02-1.88,2.04-3.15,0-.03-.07-.03-.09-.04-1.6-.23-3.19-.09-4.77.2-.84.15-1.67.32-2.51.48-.72.14-1.31.39-1.61,1.04,0,0,0,0,0,0,1.23,1.27,4.02,1.95,5.48.64.01-.01,0-.02-.01-.02-.6-.37-1.36-.22-2-.03-1.02.29-2.03.52-3.11.46-.64-.04-1.19-.22-1.7-.58-.3-.21-.58-.34-.95-.38-.47-.06-.94-.02-1.4.02-.66.05-1.29.05-1.95-.07-1.23-.22-2.27-.76-3.37-1.29-.59-.29-1.13-.61-1.61-1.04-.21-.19-.47-.3-.67-.49-.23-.22-.36-.51-.38-.81-.02-.38.07-.58.44-.75.34-.16.68-.32,1.03-.48.35-.16.65-.25,1.04-.29.38-.04.76-.08,1.14-.12,1.22-.13,2.48-.26,3.71-.07,1.06.17,1.83.69,2.57,1.36.31.28.61.57.87.89.16.2.45.54.3.8.08,0,.16,0,.24,0-.33-.27-.67-.53-.97-.82-.23-.22-.72-.65-.53-1-.05,0-.11.01-.16.02.69.07,1.39.21,2.08.18.7-.03,1.29-.29,1.86-.65,1.16-.75,1.9-1.76,1.86-3.11,0-.05-.15-.04-.18-.04-1.32.11-2.62.55-3.76,1.16-.59.31-1.16.68-1.63,1.14-.22.21-.37.45-.54.69-.23.33-.53.39-.96.4-.17,0-.03.07.06.06.27,0,.56,0,.8-.12.2-.1.31-.28.43-.46.36-.54.88-.95,1.44-1.31,1.24-.79,2.78-1.37,4.28-1.5-.06-.01-.12-.03-.18-.04.03,1.15-.49,2.1-1.45,2.81-.55.41-1.16.78-1.87.88-.72.1-1.46-.07-2.17-.14-.03,0-.14-.02-.16.02-.18.33.27.75.48.96.32.32.68.59,1.03.87.04.03.21.06.24,0,.18-.32-.27-.79-.47-1.01-.35-.4-.75-.76-1.16-1.1-.95-.79-2.09-1.07-3.34-1.11-.86-.03-1.7.04-2.56.13-.47.05-.95.1-1.42.15-.2.02-.42.02-.61.07-.25.07-.53.25-.77.36-.21.1-.43.2-.64.3-.14.06-.44.14-.53.25-.1.11-.08.46-.07.59.01.17.05.35.14.5.2.38.6.54.92.82.33.28.66.54,1.05.76,1.35.78,2.84,1.47,4.42,1.68.75.1,1.46.04,2.21,0,.5-.03,1.03-.04,1.46.23.29.19.55.39.88.52.58.22,1.22.26,1.83.23.64-.02,1.32-.09,1.94-.26.31-.08.62-.19.93-.27.16-.04.33-.08.5-.11.16-.02.83-.07.83.16,0,.22-.67.44-.86.5-.48.14-.99.16-1.49.09-.87-.12-1.77-.48-2.42-1.05-.39-.35.34-.84.67-.98.46-.19.98-.23,1.47-.32,2.07-.4,4.13-.83,6.26-.53-.03-.01-.06-.02-.09-.04-.02,1.24-.98,2.32-1.95,3.08-1.22.96-2.76,1.48-4.26,1.93-.82.25-1.68.55-2.55.4-.67-.11-1.27-.41-1.87-.69-1.18-.56-2.38-.94-3.73-.82-1.47.13-2.89.79-4,1.67-.92.73-1.79,1.81-1.66,2.99.13,1.17,1.23,2.11,2.38,2.48,1.07.34,2.25.27,3.34.06,1.81-.35,3.51-1.05,5.06-1.99,1.77-1.09,3.33-2.44,4.92-3.74-.08,0-.16-.01-.24-.02.36.29.17.98.2,1.38.05.58.46,1.14.87,1.55.94.93,2.27,1.41,3.56,1.76.85.23,1.7.29,2.56.46.24.05.47.1.7.18.12.04.49.17.52.31.04.16-1.01.32-1.2.36-1.12.19-2.28.26-3.41.11-1.01-.13-2.09-.46-2.67-1.3-.5-.73-.05-1.32.65-1.71.82-.45,1.76-.76,2.63-1.12,1.43-.59,2.87-1.16,4.35-1.62.77-.24,1.55-.45,2.35-.61.63-.13,1.9-.56,2.17.24.03.1.02.19.05.29.04.16.14.31.18.47.08.3.1.61.09.91,0,.58-.1,1.17-.25,1.73-.27.99-.92,1.87-1.66,2.61-.77.77-1.67,1.43-2.65,1.96-1.03.56-2.44,1.21-3.66.88-.67-.18-1.06-.75-1.61-1.1-.36-.23-.81-.43-1.25-.5-1.09-.18-1.93.73-2.57,1.42-.73.79-1.49,1.74-1.3,2.83.14.83.69,1.64,1.52,1.99.8.34,1.53.14,2.17-.4.38-.32.72-.72.89-1.17.19-.5.05-1.03-.15-1.51-.85-1.96-2.52-4.07-4.77-4.74-2.1-.63-4.38.19-5.76,1.73-.75.84-1.33,1.85-1.76,2.86-.46,1.09-.77,2.27-.73,3.44.04,1.06.4,2.1,1.18,2.89.72.74,1.71,1.21,2.72,1.51,1.87.56,4.12.72,6.01.13,2.03-.63,3.88-2,4.97-3.71.26-.41.48-.85.63-1.31.15-.45.34-1.05.17-1.51-.07-.18-.18-.33-.34-.44-.14-.09-.58-.31-.41-.54.08-.11.77,0,.93.01.33.03.66.08.99.12.59.07,1.19.06,1.77.15.32.05.63.12.93.23.16.06.31.12.46.2.06.03.14.06.19.1.13.09.17.09.04.18-.25.16-.77,0-1.03-.06-.24-.05-.48-.11-.72-.15-.39-.06-.79-.03-1.19-.04-.23,0-.68.01-.86-.15-.11-.1-.07-.05-.01-.16.03-.07.2-.15.26-.2.16-.12.31-.24.47-.37.61-.48,1.22-.95,1.85-1.41.81-.59,1.65-1.39,2.7-1.58.54-.1,1.58.19,1.66.81.03.21-.06.45-.1.66-.07.3-.14.59-.23.89-.19.63-.4,1.29-.77,1.85-.35.53-.9.89-1.5,1.16-1.14.5-2.43.69-3.47,1.38,0,0,0,0,0,0,.11.69,1.14.68,1.69.51.22-.07.59-.24.51-.52-.08-.28-.58-.11-.77-.02-.93.46-1.22,1.78-1.46,2.64-.33,1.16-.78,2.3-.66,3.52.13,1.35.95,2.38,2,3.28.66.56,1.37,1.08,2.28.67.48-.22.92-.58,1.34-.88.5-.37.98-.75,1.43-1.16.71-.64,1.56-1.44,1.61-2.42.05-1.07-.43-2.2-1.01-3.1-.51-.78-1.27-1.61-2.32-1.67-.01,0-.13,0-.13.02.2,1.59,1.56,2.96,2.67,4.09.6.61,1.15,1.29,1.83,1.82.67.53,1.4.73,2.25.87.13.02.31.02.43.07.1.05-.03.02-.12.03-.31.04-.62.01-.91-.08-.37-.11-.7-.3-1.01-.52-.64-.44-1.18-1-1.79-1.48-1.57-1.23-3.44-2.1-4.83-3.54-.75-.77.41-1.19,1.05-1.47.82-.35,1.61-.74,2.44-1.06,1.89-.74,4.33-1.5,6.12-.18,1.66,1.22,1.35,3.31.9,5.01-.23.85-.58,1.68-1.09,2.42-.44.65-1.05,1.31-1.87,1.55-.51.15-1.54.24-1.7.83-.09.34.1.71.23,1.02.17.43.29.88.4,1.32.19.78.25,1.54.28,2.33.03.67.06,1.44.47,2.02.16.24.39.4.67.5.05.02.16.04.21,0,.45-.37,1-1.06.87-1.66-.13-.57-.75-1.06-1.16-1.48-.81-.82-1.57-1.79-2.92-1.54-.52.1-.86.32-.88.83-.03.81.2,1.59.09,2.41-.07.54-.2,1.33.49,1.59.35.13.73.04,1.02-.15.46-.29.81-.74,1.06-1.19.3-.54.34-1.02.13-1.61-.25-.71-.72-1.38-.63-2.15.09-.75.64-1.37,1.1-1.96.5-.65,1.02-1.31,1.74-1.76.8-.5,1.81-.62,2.76-.58.81.03,1.76.25,2.25.91.37.49.35,1.12.19,1.67-.36,1.25-1.51,2.73-3.03,2.77-1.47.03-2.76-.92-4.24-.9-.02,0-.09,0-.09.02-.05.52.34.99.69,1.35.36.37.77.71,1.19,1.01.59.41,1.29.71,1.3,1.49,0,.41-.17.78-.43,1.1-.58.71-1.45,1.19-2.19,1.74-.66.49-1.38,1.11-1.44,1.95-.04.62.25,1.16.96,1.24.71.08,1.43-.2,2.06-.47.7-.31,1.36-.69,2.03-1.06.71-.4,1.53-.72,2.06-1.34.29-.34.41-.75.27-1.17-.22-.68-.9-1.07-1.42-1.54-.44-.4-.84-.93-.87-1.52-.04-.7.46-1.13,1.1-1.39.57-.23,1.17-.39,1.75-.58.69-.24,1.49-.52,2.24-.37,1.23.25,2.39,1.71,2.18,2.88-.18,1.05-1.34,1.7-2.42,1.73-.99.03-1.78-.86-2.78-.7-.4.06-.78.48-.52.83.13.18.35.32.52.47.32.29.61.62.93.91.57.53,1.32.83,1.88,1.36.21.2.47.48.55.76.07.24-.06.46-.17.67-.29.56-.64,1.06-.68,1.7-.03.42-.04.84-.02,1.26.02.59.09,1.56.93,1.57.42,0,.8-.23,1.12-.46.43-.31.82-.69,1.07-1.14.23-.4.34-.88.13-1.32-.18-.38-.57-.66-.88-.94-.5-.47-1.87-1.76-.69-2.26.26-.11.54-.17.8-.26.29-.09.51-.23.76-.4.32-.22.63-.45,1-.6.28-.11.58-.18.87-.26.39-.1.83-.22,1.15.12.22.23.19.56.1.84-.23.72-.87,1.12-1.56,1.43-.45.2-1.23.48-1.36.99-.04.16.05.25.13.41.1.2.18.41.25.63.12.36.2.73.29,1.1.16.66.39,1.26.67,1.88.19.41.34.93.74,1.22.78.56,1.99-.25,2.57-.72.43-.35.86-.81.93-1.36.07-.55-.41-.83-.88-1.04-.74-.31-1.48-.63-2.22-.93-.71-.29-1.46-.49-2.19-.75-1.57-.55-3.25-1.22-4.49-2.29-1.12-.97-1.91-2.21-2.87-3.32-1.11-1.28-2.32-2.49-3.42-3.78-1.11-1.3-2.12-2.68-3.18-4.01-2.05-2.58-4.22-5.09-6.76-7.28-.63-.55-1.31-1.05-1.89-1.64-.59-.59-1.11-1.24-1.59-1.92-.96-1.35-1.8-2.79-2.62-4.22-.88-1.51-1.72-3.03-2.62-4.53-.9-1.49-1.86-2.94-2.81-4.4-1.88-2.88-3.85-5.7-6.19-8.29-1.12-1.23-2.28-2.43-3.42-3.65-.04-.05-.26-.02-.24,0h0Z" fill="#7c170f"/><path d="M-7.31,3.47c.92.23,1.82.5,2.75.68.94.19,1.86.25,2.82.2,2.03-.1,4.04-.44,6.03-.81.98-.18,1.96-.36,2.94-.55.89-.17,1.78-.37,2.62-.71.39-.16.77-.35,1.1-.6.36-.27.68-.58,1-.88.62-.6,1.23-1.19,1.75-1.87.5-.66.92-1.41,1.11-2.2.15-.62.06-1.32-.22-1.9-.14-.29-.35-.57-.63-.76-.26-.18-.58-.27-.89-.32-.76-.14-1.56-.09-2.32.03-.83.13-1.56.41-2.3.76-.82.39-1.69.71-2.35,1.32-.33.3-.61.63-.94.93-.33.31-.7.59-1.08.85-.37.25-.75.49-1.15.69-.29.15-.61.22-.91.35-.22.1-.47.24-.53.48-.03.13-.03.24.11.3.21.1.43.18.65.25C3.06-.01,3.91.06,4.75.15c.96.1,1.89.28,2.79.6.44.16.87.35,1.28.58.14.08.41.17.42.35,0,.09,0,.19-.05.27-.18.36-.8.39-1.17.41-.57.02-1.14-.04-1.7-.11-.47-.06-.94-.14-1.41-.19-.47-.05-.94-.08-1.41-.07-.47.01-.93.03-1.4,0-.87-.07-1.74-.31-2.62-.22-.8.08-1.47.43-2.2.71-.52.2-1.15.4-1.46.86-.11.16-.26.53-.04.65.28.16.62.24.94.25.71.03,1.39-.23,2.05-.42.39-.12.78-.21,1.19-.21.48,0,.96.06,1.45.08.99.04,1.99-.1,2.97-.25.95-.14,1.9-.35,2.86-.38.88-.03,1.75.14,2.59.38.86.25,1.71.57,2.5.99.68.35,1.38.78,1.79,1.41.39.6.54,1.33.45,2.03-.11.78-.57,1.36-1.17,1.89-.68.6-1.49,1.11-2.39,1.38-.64.19-1.32.21-1.93-.08-.54-.25-.96-.68-1.28-1.15-.33-.49-.56-1.04-.71-1.6-.17-.64-.18-1.28-.17-1.93.03-1.63.18-3.33.88-4.85.25-.53.58-1.18,1.24-1.35.54-.14,1.06.18,1.44.51.43.38.77.84,1.06,1.31.29.46.49.94.71,1.44.21.48.51,1.08,1.11,1.21.82.18,1.36-.66,2.14-.69.81-.04,1.57.47,2.21.86.76.46,1.44,1.03,2.06,1.65.66.65,1.25,1.36,1.83,2.07.5.61.97,1.27,1.53,1.83.42.42.94.82,1.56.94.66.12,1.28-.13,1.78-.53,1.03-.81,1.47-2.08,1.58-3.29.11-1.25-.09-2.55-.61-3.72-.23-.52-.51-1.07-1.02-1.39-.48-.31-1.08-.38-1.65-.35-.63.04-1.25.21-1.83.41-.57.2-1.13.44-1.64.76-.62.39-1.19.86-1.66,1.4-.42.47-.85,1.09-.86,1.72-.01.81.89,1.21,1.36,1.78.65.78,1.07,1.7,1.74,2.47.32.36.69.72.86,1.17.14.38.13.81-.06,1.17-.34.62-1.1.89-1.8.97-.72.08-1.48.02-2.18-.16-.67-.18-1.38-.54-1.65-1.18-.28-.64-.1-1.31.53-1.69.66-.4,1.54-.51,2.31-.58.88-.08,1.84-.03,2.63.38.76.39,1.34,1.05,1.88,1.67.26.29.44.63.79.84.32.19.7.19,1.03.35.42.2.71.62.98.97.21.27.43.54.66.8.38.43.87,1.02,1.5,1.09.51.06.97-.23,1.31-.55.81-.77,1.26-1.79,1.78-2.72,0-.02.02-.05,0-.06-.36-.41-1.05-.22-1.5-.07-.73.24-1.42.6-2.09.96-.28.15-.55.31-.84.45-.28.15-.59.25-.87.4-.24.13-.45.32-.37.6.06.2.21.36.34.52.21.24.4.5.56.77.33.55.54,1.16.62,1.79.04.35-.07.69-.23,1.01-.34.67-.96,1.38-1.72,1.66-.9.32-1.49-.46-1.71-1.18-.26-.84-.24-1.86.3-2.6.33-.45.81-.76,1.28-1.07.47-.31.9-.79,1.47-.95.77-.22,1.36.5,1.71,1.04.41.63.68,1.33.99,2.01.14.32.31.63.47.95.2.39.44.75.88.93.31.12.77.24,1.05,0,.11-.09.23-.34.16-.48-.03-.06-.16-.11-.22-.15-.1-.06-.2-.12-.3-.17-.5-.28-1.55-.85-2.04-.26-.23.28-.24.72-.17,1.05.04.22.14.44.23.65.23.56.49,1.11.6,1.7.04.22.08.47-.02.68-.1.22-.34.25-.57.24-.35-.02-.33-.44-.19-.65.17-.27.48-.46.76-.62.25-.14.54-.28.84-.33.52-.08.88.29,1.19.62.26.29.55.55.83.83.26.27.55.58.65.95.11.39-.07.72-.38.98.05-.01.1-.02.14-.04-.18-.02-.34-.19-.45-.31-.18-.19-.34-.41-.46-.64-.15-.28-.47-.97.03-1.12.15-.05.03-.18-.09-.14-.66.19-.36.97-.14,1.38.15.27.35.54.59.75.09.08.19.16.3.2.16.07.25.03.38-.09.28-.26.43-.6.35-.96-.08-.35-.32-.66-.57-.93-.28-.3-.59-.57-.86-.87-.29-.31-.59-.67-1.04-.77-.64-.14-1.4.29-1.87.65-.23.18-.47.41-.51.7-.02.13.02.25.09.36.1.16.21.19.39.2,1.56.11.69-1.82.41-2.51-.22-.55-.58-1.21-.28-1.8.19-.38.68-.25,1.01-.13.23.08.44.19.65.31.11.06.22.12.32.19.13.08.23.13.18.29-.13.47-.97.08-1.18-.13-.35-.33-.51-.82-.73-1.23-.34-.64-.57-1.32-.92-1.96-.32-.59-.77-1.3-1.5-1.51-.41-.11-.82-.01-1.17.19-.25.15-.47.33-.7.51-.24.19-.51.35-.76.52-.46.31-.87.66-1.15,1.13-.22.37-.3.79-.32,1.2-.04.81.14,1.84.85,2.39.62.48,1.41.24,1.99-.18.65-.47,1.21-1.16,1.41-1.91.13-.45.02-.93-.12-1.37-.18-.59-.48-1.14-.87-1.63-.19-.24-.74-.7-.38-1,.26-.21.63-.3.93-.46.63-.31,1.23-.68,1.87-.98.36-.18.74-.34,1.12-.46.28-.09.61-.19.9-.12.05.01.1.03.14.05.02.01.04.03.06.04.05.04.03,0,.03.03-.03.12-.14.26-.2.37-.18.35-.37.7-.58,1.03-.23.37-.48.74-.78,1.07-.24.26-.55.54-.92.63-.43.1-.78-.17-1.07-.42-.34-.3-.64-.66-.94-1-.36-.44-.66-.95-1.15-1.28-.21-.14-.44-.21-.69-.26-.3-.07-.56-.18-.77-.39-.19-.19-.33-.43-.51-.63-.17-.2-.35-.4-.54-.59-.38-.4-.81-.78-1.3-1.06-.99-.55-2.24-.54-3.34-.39-.89.12-2.03.3-2.54,1.08-.49.74-.05,1.7.66,2.17.79.52,1.84.68,2.79.66.88-.01,1.88-.21,2.44-.91.3-.38.39-.88.27-1.34-.17-.63-.71-1.07-1.12-1.57-.43-.53-.76-1.11-1.14-1.67-.17-.26-.35-.51-.56-.74-.2-.2-.42-.38-.64-.57-.21-.19-.42-.4-.5-.67-.08-.26-.04-.52.05-.77.15-.44.44-.84.75-1.19.63-.7,1.43-1.33,2.32-1.72,1.39-.61,3.66-1.38,4.65.2.45.72.72,1.54.87,2.36.16.9.18,1.83,0,2.72-.17.83-.53,1.65-1.17,2.27-.34.33-.77.63-1.27.69-.45.06-.88-.1-1.24-.33-.39-.25-.72-.58-1.02-.92-.38-.44-.74-.9-1.1-1.35-.76-.94-1.54-1.87-2.45-2.69-.45-.41-.94-.79-1.47-1.12-.44-.28-.9-.56-1.39-.75-.45-.18-.95-.27-1.43-.16-.25.06-.47.19-.69.32-.25.15-.53.34-.84.35-.46.01-.76-.38-.95-.71-.21-.37-.35-.78-.53-1.17-.28-.63-.72-1.24-1.19-1.76-.45-.49-1.08-.97-1.82-.88-.92.11-1.36.97-1.67,1.68-.41.96-.6,1.96-.71,2.99-.07.63-.1,1.26-.1,1.9,0,.45,0,.89.08,1.34.24,1.39,1.07,3.08,2.67,3.48.98.24,2.01-.13,2.85-.6.54-.3,1.04-.67,1.49-1.09.37-.35.7-.72.89-1.18.33-.84.23-1.83-.22-2.61-.49-.87-1.49-1.4-2.4-1.83-1.06-.49-2.2-.88-3.37-1.07-1.25-.21-2.47,0-3.7.2-1.36.22-2.73.4-4.12.29-.6-.05-1.19-.07-1.78.09-.46.12-.91.29-1.38.4-.48.11-1.01.18-1.48,0-.08-.03-.23-.07-.27-.14-.04-.07.02-.24.04-.31.07-.18.23-.32.39-.43.34-.23.75-.36,1.13-.51.51-.2.99-.45,1.53-.57.65-.15,1.28-.07,1.93.02.58.08,1.15.16,1.74.16.66,0,1.3-.04,1.96.02.37.03.73.08,1.1.13.72.11,1.45.21,2.18.19.51-.01,1.34-.06,1.54-.61.04-.11.05-.26.02-.37-.03-.1-.13-.14-.22-.19-.13-.08-.26-.16-.4-.23-.56-.3-1.16-.53-1.77-.71-.6-.18-1.22-.3-1.85-.38-.59-.07-1.19-.11-1.78-.21-.28-.04-.57-.1-.85-.18-.16-.04-.32-.09-.47-.15-.09-.03-.34-.09-.39-.18-.05-.08.04-.23.09-.28.07-.08.16-.13.26-.17.19-.09.4-.14.6-.21.52-.18,1-.5,1.44-.8.5-.34.99-.71,1.41-1.13.4-.4.78-.84,1.26-1.16.28-.19.59-.32.9-.46.33-.15.66-.31.99-.47.52-.24,1.04-.46,1.61-.58.54-.12,1.09-.19,1.64-.2.51,0,1.06.02,1.54.21.49.19.8.62.97,1.07.17.44.23.94.16,1.41-.08.53-.31,1.05-.58,1.52-.58,1.04-1.44,1.87-2.3,2.71-.44.43-.89.87-1.46,1.16-.57.3-1.2.5-1.83.66-1.28.33-2.59.52-3.89.76-1.38.26-2.76.5-4.15.67-1.31.16-2.67.31-3.98.14-1.24-.16-2.44-.53-3.64-.83-.12-.03-.25.12-.1.16h0Z" fill="#7c170f"/><path d="M10.61,27.07c-.46.82-.88,1.65-1.23,2.52-.17.42-.32.85-.46,1.29-.14.45-.24.91-.36,1.36-.5,1.87-1.22,3.69-1.79,5.54-.49,1.61-.93,3.28-.86,4.96.02.42.07.83.14,1.24.06.33.13.68.35.95.48.62,1.54.68,2.27.51.58-.14,1.21-.45,1.24-1.07.01-.27-.07-.55-.14-.82-.1-.38-.2-.77-.37-1.13-.18-.37-.45-.71-.85-.9-.36-.17-.8-.14-1.11-.41-.23-.2-.42-.52-.78-.51-.16,0-.32.21-.4.33-.1.15-.17.33-.24.49-.38.83-1.02,1.53-1.65,2.2-.67.71-1.39,1.4-2.3,1.84-.62.3-1.4.51-2.07.26-.32-.12-.63-.35-.76-.65-.12-.27-.07-.58.03-.85.22-.58.65-1.07.99-1.59.49-.74,1.01-1.48,1.74-2.03.75-.57,1.65-.83,2.61-.89.44-.03.86-.07,1.28-.22.34-.12.72-.26.97-.52.27-.28.24-.66.41-.99-.05.02-.11.05-.16.07.33.34.31.86.66,1.18.24.23.63.24.96.22.34-.03.75-.12.99-.36.24-.24.26-.63.08-.91-.2-.31-.58-.51-.95-.57-.42-.07-.85.1-1.19.31-.81.49-1.27,1.3-1.54,2.14-.54,1.69-.28,3.48-.4,5.22-.03.44-.25.83-.36,1.25-.08.32-.06.74.3.9.17.08.36.1.55.13.24.04.48.09.71.15.47.13.92.32,1.33.58.85.54,1.41,1.35,1.57,2.29.07.38.1.81-.07,1.18-.18.41-.64.58-1.09.61-1,.06-1.91-.63-2.31-1.44-.21-.43-.27-.91-.04-1.34.16-.3.39-.61.36-.97,0-.06-.02-.17-.06-.22-.05-.06-.18-.08-.26-.1-.15-.03-.31-.02-.45.05-.3.14-.46.47-.55.75-.1.3-.15.62-.24.93-.08.26-.17.52-.27.77-.13.35-.27.69-.43,1.03-.15.31-.31.62-.55.88-.22.23-.55.33-.86.2-.33-.14-.55-.47-.6-.79-.08-.43.16-.83.5-1.11.17-.14.36-.27.55-.38.2-.12.37-.26.55-.41.32-.26.64-.52,1.08-.41.39.09.74.36,1.01.63.27.27.48.59.55.96.09.5,0,1.02-.08,1.52-.06.41-.15.89,0,1.29.05.16.16.28.29.38.14.12.33.27.53.3.08,0,.16,0,.24.05.08.06.12.16.15.25.06.19.09.39.14.58,0,.03.04.05.07.04.39-.1.7-.43,1.13-.24.34.15.52.52.58.85.11.67-.43,1.28-1.17,1.27-.42,0-.79-.2-1.05-.5,0,.02,0,.04,0,.07.03-.16.08-.3.18-.43.02-.03.05-.11,0-.14-.67-.29-1.1.66-1.65.82-.35.1-.73-.1-.77-.44-.05-.33.11-.69.27-.99.21-.37.6-.86,1.12-.72.46.12.77.59.99.95.28.46.5.96.69,1.46.12.32.21.66.36.97.22.45.45.88.62,1.35.08.22.15.45.17.69,0,.14.01.33-.13.42-.19.12-.53.08-.72,0-.34-.15-.52-.53-.62-.85-.1-.32-.17-.66-.13-.99.05-.4.23-.77.23-1.18,0-.19-.05-.38-.15-.55-.05-.09-.21.08-.16.17.25.43.05.89-.05,1.33-.09.36-.07.72,0,1.08.08.36.22.75.5,1.02.22.21.55.29.87.24.52-.08.59-.58.51-.98-.1-.54-.36-1.05-.61-1.55-.09-.18-.18-.35-.26-.53-.07-.16-.11-.33-.17-.5-.19-.53-.4-1.05-.67-1.54-.23-.43-.55-.95-1.03-1.16-.51-.23-.97.1-1.27.47-.22.27-.38.6-.48.93-.09.29-.14.68.1.92.24.26.67.26.97.1.33-.18.56-.49.88-.69.15-.09.31-.12.47-.05,0-.05,0-.09,0-.14-.08.11-.14.22-.18.35-.04.13-.08.21.02.32.15.16.34.29.55.38.38.15.83.14,1.2-.05.82-.41,1.05-1.51.42-2.16-.17-.18-.42-.3-.68-.28-.3.02-.53.23-.82.31.02.01.04.03.07.04-.07-.28-.08-.87-.47-.95-.08-.02-.16,0-.24-.03-.11-.04-.21-.13-.3-.19-.16-.11-.29-.24-.35-.42-.06-.22-.05-.46-.03-.68.01-.24.05-.48.09-.72.07-.47.13-.95.03-1.42-.08-.36-.29-.67-.55-.94-.26-.27-.57-.51-.94-.64-.35-.12-.66-.08-.97.11-.2.13-.39.28-.57.43-.18.14-.37.26-.56.39-.66.43-1.26,1.14-.92,1.92.12.29.36.55.69.64.3.09.62,0,.85-.2.25-.21.42-.49.57-.77.18-.33.34-.68.48-1.04.22-.55.4-1.11.54-1.68.07-.29.16-.71.45-.89.15-.09.33-.08.5-.03.2.06.13.34.07.49-.13.33-.39.62-.44.98-.07.48.08.94.35,1.35.48.71,1.32,1.26,2.25,1.22.43-.02.86-.17,1.13-.49.24-.29.32-.66.33-1.01,0-.88-.34-1.77-.98-2.41-.65-.65-1.54-1.06-2.46-1.25-.35-.07-.93-.05-1.06-.44-.13-.41.14-.85.27-1.23.13-.4.12-.82.13-1.24,0-.44,0-.89,0-1.33,0-.89.02-1.79.23-2.66.2-.88.6-1.78,1.4-2.34.37-.26.84-.46,1.31-.34.37.09.81.37.86.75.05.41-.38.56-.74.62-.34.06-.83.08-1.09-.18-.32-.33-.31-.83-.63-1.15-.06-.06-.14.02-.16.07-.16.31-.11.72-.41.95-.27.21-.62.33-.95.43-.4.13-.83.14-1.25.17-.44.03-.86.11-1.28.25-.75.25-1.38.7-1.91,1.25-.53.55-.92,1.18-1.35,1.79-.57.8-1.56,2.03-.53,2.87.46.38,1.12.43,1.7.31.75-.15,1.44-.55,2.03-1.01.76-.59,1.42-1.31,2.03-2.03.28-.34.54-.69.76-1.06.11-.18.2-.37.28-.56.09-.21.18-.39.38-.54-.02,0-.05.01-.07.02.42,0,.56.37.87.57.18.11.39.16.59.21.23.05.43.11.62.24.4.27.62.69.77,1.12.13.36.22.74.3,1.12.05.24.09.52-.08.73-.23.29-.71.42-1.07.48-.49.09-1.03.05-1.48-.15-.36-.15-.58-.42-.69-.76-.14-.42-.19-.87-.23-1.3-.04-.42-.04-.85-.02-1.28.05-.86.23-1.71.44-2.55.49-1.96,1.23-3.85,1.83-5.78.15-.49.3-.99.43-1.49.12-.48.23-.96.39-1.43.31-.94.72-1.85,1.19-2.73.12-.22.24-.44.36-.66.07-.12-.06-.2-.13-.08h0Z" fill="#7c170f"/></g></g></g><text transform="translate(46.41 88.96) skewX(-5)" fill="#1e1e1c" font-family="SegoeScript, &apos;Segoe Script&apos;" font-size="12"><tspan x="0" y="0">11:30</tspan><tspan x="-.52" y="14.4">Выкуп</tspan></text><text transform="translate(107.62 132.98) skewX(-5)" fill="#1e1e1c" font-family="SegoeScript, &apos;Segoe Script&apos;" font-size="12"><tspan x="0" y="0">13:00</tspan><tspan x="1.72" y="14.4">Прогулка</tspan></text><text transform="translate(46.33 176.35) scale(.99) skewX(-9.93)" fill="#1e1e1c" font-family="SegoeScript, &apos;Segoe Script&apos;" font-size="12"><tspan x="0" y="0">15:30</tspan><tspan x="1.64" y="14.4" letter-spacing=".1em">Ц</tspan><tspan x="13.41" y="14.4">е</tspan><tspan x="18.13" y="14.4" letter-spacing=".14em">р</tspan><tspan x="27.36" y="14.4">емония</tspan></text><text transform="translate(69.34 275.85) skewX(-5)" fill="#1e1e1c" font-family="SegoeScript, &apos;Segoe Script&apos;" font-size="12" text-decoration="underline"><tspan x="0" y="0">16:00</tspan><tspan x="-4.25" y="14.4">Банкет</tspan></text><g id="uuid-98a6fa84-922c-4c83-82df-ce3a4ad637ac"><path id="uuid-a5540a9c-7525-418e-9123-2b2f7d3f33da" d="M80.93,248.49c.43-3.2,1.38-8.13,3.86-13.6,10.08-22.33,35.93-32.86,56.06-34.25,14.9-1.03,31.51,2.62,31.49,5.61-.03,5.34-52.76,11.89-103.91,1.78,0,0-46.58-9.21-48.34-24.38-.44-3.8.42-7.26.42-7.26.18-.76.42-1.53.75-2.34,8.4-21.04,58.78-9.76,67.95-31.04,1.67-3.88-.04-4.09,1.17-9.6,6.98-31.86,71.36-35.06,73.19-57.23.44-5.3-2.46-9.74-6.97-14.32-12.84-13.02-44.88-18.83-81.06-11.93-17.28,3.29-42.96,8.31-51.09,27.43-2,4.71-2.46,9.14-2.49,12.32" fill="none" stroke="#c1292e" stroke-linecap="round" stroke-miterlimit="10" stroke-width=".5"/><path d="M98.8,129.45c2.9,3.53-7.34,13.47-9.6,13.57-1.77.08-10.87-6.98-8.3-11.03,5.5-8.68,7.96-.31,9.47,1.44.36.42,4.58-8.67,8.44-3.97Z" fill="#e52629"/><path d="M29.68,170.09c2.9,3.53-7.34,13.47-9.6,13.57-1.77.08-10.87-6.98-8.3-11.03,5.5-8.68,7.96-.31,9.47,1.44.36.42,4.58-8.67,8.44-3.97Z" fill="#e52629"/><path d="M89.37,244.52c2.9,3.53-7.34,13.47-9.6,13.57-1.77.08-10.87-6.98-8.3-11.03,5.5-8.68,7.96-.31,9.47,1.44.36.42,4.58-8.67,8.44-3.97Z" fill="#e52629"/><path d="M30.37,85.71c2.9,3.53-7.34,13.47-9.6,13.57-1.77.08-10.87-6.98-8.3-11.03,5.5-8.68,7.96-.31,9.47,1.44.36.42,4.58-8.67,8.44-3.97Z" fill="#e52629"/></g><text transform="translate(67.29 20.85) scale(.97 1)" fill="#7c170f" font-family="Georgia, Georgia" font-size="16"><tspan x="0" y="0">Тайминг</tspan></text><path d="M190.56,29.09c.26,0,.47.21.47.47s-.21.47-.47.47h-.12c-.19.29-.8,1.35-.74,2.42h.03c.26,0,.47.21.47.47s-.21.47-.47.47h-.02v.35c0,.32-.1.63-.29.88.17.07.29.24.29.43s-.12.36-.29.43c.19.25.29.56.29.89v2.25c0,.32-.1.63-.29.89.17.07.29.24.29.43,0,.18-.1.34-.26.42l-.04.02h-.47v.96c0,1.97-1.6,3.56-3.56,3.56h-5.8c.1.24.15.49.15.75v3.07c0,.55-.23,1.06-.62,1.43h.05c.18,0,.34.08.45.22.11.14.14.32.1.5-.05.2-.22.35-.42.4.29.35.44.79.44,1.25v3.07c0,.46-.16.9-.44,1.25.13.03.24.1.33.21.11.14.14.32.1.5-.05.2-.22.35-.42.4.29.35.44.79.44,1.25v.55h.1c.31,0,.57.25.57.57s-.25.56-.57.56h-.11c-.11,1.55.8,3.08,1.04,3.44h.42c.31,0,.57.25.57.57,0,.07-.01.13-.03.18h3.73c.66,0,1.26.42,1.47,1.06l.09.25h-18.27s.09-.25.09-.25c.21-.63.81-1.06,1.47-1.06h3.62c-.02-.06-.03-.12-.03-.18,0-.31.25-.57.57-.57h.19c1.26-1.93,1.09-3.13,1.01-3.46-.24-.07-.42-.28-.42-.54,0-.3.24-.55.54-.56v-.55c0-.45.15-.88.43-1.23h-.04c-.18,0-.34-.08-.45-.22s-.14-.32-.1-.5c.07-.24.3-.41.56-.41h.03c-.28-.35-.43-.78-.43-1.23v-3.07c0-.46.15-.88.43-1.23h-.04c-.18,0-.34-.08-.45-.22-.11-.14-.14-.32-.1-.5.07-.24.3-.42.56-.42h.21c-.38-.37-.61-.89-.61-1.43v-3.07c0-.26.05-.51.15-.75h-5.9c-1.96,0-3.56-1.6-3.56-3.56v-.96h-.48s-.04-.02-.04-.02c-.16-.08-.26-.24-.26-.42,0-.19.12-.36.29-.43-.19-.25-.29-.56-.29-.89v-2.25c0-.32.1-.63.29-.89-.17-.07-.29-.24-.29-.43s.12-.36.29-.43c-.19-.25-.29-.56-.29-.88v-.35h-.02c-.26,0-.47-.21-.47-.47s.21-.47.47-.47h.03c.06-1.07-.55-2.12-.74-2.42h-.13c-.26,0-.47-.21-.47-.47s.21-.47.47-.47h.85v-13.1s1.27,0,1.27,0v-.19c-.63-.08-1.12-.62-1.12-1.28,0-.42.41-1.56.5-1.78.26-.71.43-1.07.55-1.25s.18-.18.24-.18c.02,0,.22,0,.22.27,0,1.03.35,1.48.65,1.87.24.31.47.6.43,1.08-.05.65-.5,1.16-1.08,1.26v.2h1.49s0,13.1,0,13.1h.93c.26,0,.47.21.47.47s-.21.47-.47.47h-.26c-.88,1.36-.79,2.19-.73,2.44.18.06.32.23.32.44,0,.23-.17.42-.39.46v.36c0,.31-.09.61-.27.86.22.03.4.23.4.46s-.17.43-.4.46c.17.25.27.54.27.86v2.25c0,.31-.09.61-.27.86.22.03.4.23.4.46,0,.18-.1.34-.26.42l-.04.02h-.45v.59c0,1.16.94,2.1,2.1,2.1h5.49v-1.98c0-.55.23-1.06.61-1.43h-.05c-.18,0-.34-.08-.45-.22-.11-.14-.14-.32-.1-.49.05-.2.22-.35.42-.4-.29-.35-.44-.79-.44-1.25v-3.08c0-.46.16-.9.44-1.25-.13-.03-.24-.1-.33-.21-.11-.14-.14-.32-.1-.5.05-.2.22-.35.42-.4-.29-.35-.44-.79-.44-1.25v-.55h-.1c-.31,0-.57-.25-.57-.57s.25-.57.57-.57h.11c.12-1.56-.82-3.11-1.04-3.45h-.19c-.31,0-.57-.25-.57-.57s.25-.57.57-.57h1.57v-13.05s1.27,0,1.27,0v-.19c-.63-.08-1.12-.63-1.12-1.28,0-.42.41-1.55.49-1.78.53-1.43.67-1.43.79-1.43.02,0,.22,0,.22.27,0,1.03.35,1.48.65,1.87.24.31.47.6.43,1.08-.05.65-.5,1.16-1.08,1.26v.2h1.49s0,13.05,0,13.05h2.02c.31,0,.57.25.57.57s-.25.57-.57.57h-.41c-1.27,1.94-1.1,3.14-1.01,3.47.24.07.42.28.42.55,0,.3-.24.55-.54.56v.55c0,.46-.15.88-.43,1.23h.04c.18,0,.34.08.45.22.11.14.14.32.1.5-.07.24-.29.42-.56.42h-.03c.28.35.43.78.43,1.23v3.08c0,.45-.15.88-.43,1.23h.04c.18,0,.34.08.45.22.11.14.14.32.1.5-.07.24-.29.42-.56.42h-.21c.38.37.61.89.61,1.43v1.98h5.59c1.16,0,2.1-.94,2.1-2.1v-.59h-.45s-.04-.02-.04-.02c-.16-.08-.26-.24-.26-.42,0-.23.17-.43.4-.46-.17-.25-.27-.55-.27-.86v-2.25c0-.31.09-.61.27-.86-.22-.03-.4-.23-.4-.46s.17-.43.4-.46c-.17-.25-.27-.55-.27-.86v-.36c-.22-.03-.39-.23-.39-.46,0-.2.13-.38.32-.44.06-.26.14-1.1-.72-2.44h-.26c-.26,0-.47-.21-.47-.47s.21-.47.47-.47h.89v-13.1s1.27,0,1.27,0v-.19c-.63-.08-1.12-.62-1.12-1.28,0-.42.41-1.56.49-1.78.53-1.42.67-1.42.79-1.42.02,0,.22,0,.22.27,0,1.03.35,1.48.65,1.87.24.31.47.6.43,1.08-.05.65-.5,1.16-1.08,1.26v.2h1.49s0,13.1,0,13.1h.89ZM190.65,29.55s-.04-.08-.08-.08h-.89s-3.14,0-3.14,0h-.89s-.08.04-.08.08.04.08.08.08h0s4.92,0,4.92,0c.05,0,.08-.04.08-.08ZM189.99,30.02h-3.64c.72,1.2.73,2.02.66,2.42h2.3c-.05-1,.41-1.95.68-2.42ZM189.82,32.9s-.04-.08-.08-.08h-2.96s-.08.04-.08.08.04.08.08.08h2.94s.02,0,.02,0c.05,0,.08-.04.08-.08ZM189.33,38.6v-2.25c0-.35-.16-.67-.44-.89l-.44-.34h.8s.08-.04.08-.08-.04-.08-.08-.08h-.8s.44-.34.44-.34c.28-.22.44-.54.44-.89v-.35h-2.25v.35c0,.35.16.67.44.89l.44.34h-.93s-.08.04-.08.08.04.08.08.08h.93s-.44.34-.44.34c-.28.22-.44.54-.44.89v2.25c0,.35.16.68.44.89l.45.34h-.93s-.08.04-.08.08c0,.02,0,.04.02.05h2.34s.02-.03.02-.05c0-.04-.04-.08-.08-.08h-.8s.44-.34.44-.34c.28-.22.44-.54.44-.89ZM189.29,29.09v-12.72h-2.38v12.72h2.38ZM188.88,14.5c.03-.33-.13-.53-.35-.81-.27-.35-.6-.77-.7-1.57-.31.71-.77,2.02-.77,2.4,0,.44.32.81.74.89v-.52s.38,0,.38,0v.51c.38-.1.66-.44.7-.9ZM188.56,41.32v-.87h-.86v.49c0,1.37-1.11,2.48-2.48,2.48h-5.98s0-2.36,0-2.36c0-.61-.36-1.18-.92-1.45l-.69-.33-.69.33c-.56.27-.92.84-.92,1.45v2.36s-5.88,0-5.88,0c-1.37,0-2.48-1.11-2.48-2.48v-.49h-.86v.87c0,1.75,1.43,3.18,3.18,3.18h6.55s-.18.29-.18.29c-.16.25-.24.55-.24.84v3.07c0,.62.36,1.18.92,1.45l.69.33.68-.33c.56-.27.92-.84.92-1.45v-3.07c0-.29-.08-.58-.24-.84l-.18-.29h6.45c1.75,0,3.18-1.43,3.18-3.18ZM169.29,65.97h17.13c-.21-.33-.58-.55-.99-.55h-4.27s-6.73,0-6.73,0h-4.15c-.41,0-.78.21-.99.55ZM181.35,24.9c0-.1-.08-.18-.18-.18h-2.02v.05s-3.14,0-3.14,0v-.05h-1.57c-.1,0-.18.08-.18.18s.08.18.18.18h6.73c.1,0,.18-.08.18-.18ZM181.35,64.86c0-.1-.08-.18-.18-.18h-.15s-.37,0-.37,0h-6.22c-.1,0-.18.08-.18.18s.08.18.18.18h6.73c.1,0,.18-.08.18-.18ZM180.3,25.47h-5.22c.36.6,1.07,1.99.97,3.44h3.3c-.1-.5-.14-1.67.95-3.44ZM175.08,64.3h5.22c-.36-.6-1.07-1.99-.97-3.44h-3.3c.1.5.14,1.68-.95,3.44ZM180.01,60.29c0-.1-.08-.18-.18-.18h-.1s-3.95,0-3.95,0c-.1,0-.18.08-.18.18s.08.18.18.18h4.05c.1,0,.18-.08.18-.18ZM179.78,29.48c0-.1-.08-.18-.18-.18h-4.05c-.1,0-.18.08-.18.18s.08.18.18.18h.1s3.95,0,3.95,0c.1,0,.18-.08.18-.18ZM179.41,32.44c.02-.08,0-.14-.03-.16-.03-.05-.09-.07-.15-.07h-1.07s.44-.34.44-.34c.4-.31.63-.77.63-1.27v-.55h-3.22v.55c0,.5.23.96.63,1.27l.44.34h-.88c-.09,0-.17.06-.19.13-.02.08,0,.14.03.16.03.05.09.07.15.07h.89s-.45.34-.45.34c-.4.31-.63.77-.63,1.27v3.08c0,.5.23.96.63,1.27l.45.34h-.88c-.09,0-.17.06-.19.13-.02.08,0,.14.03.16.03.05.09.07.15.07h1.34s1.67,0,1.67,0c.09,0,.17-.06.19-.13.02-.08,0-.14-.03-.16-.03-.05-.09-.07-.15-.07h-1.07s.44-.34.44-.34c.4-.31.63-.77.63-1.27v-3.08c0-.5-.23-.96-.63-1.27l-.44-.34h1.05c.09,0,.17-.06.19-.13ZM179.35,59.72v-.55c0-.5-.23-.96-.63-1.27l-.44-.34h.88c.09,0,.17-.05.19-.13.02-.08,0-.14-.03-.16-.04-.05-.09-.07-.15-.07h-.89s.44-.34.44-.34c.4-.31.63-.77.63-1.27v-3.07c0-.5-.23-.96-.63-1.27l-.45-.34h.88c.09,0,.17-.06.19-.13.02-.08,0-.14-.03-.16-.04-.05-.09-.07-.15-.07h-3.01c-.09,0-.17.06-.19.13-.02.08,0,.14.03.16.03.05.09.07.15.07h1.07s-.44.34-.44.34c-.4.31-.63.77-.63,1.27v3.07c0,.5.23.96.63,1.27l.44.34h-1.05c-.09,0-.17.05-.19.13-.02.08,0,.14.03.16.03.05.09.07.15.07h1.07s-.45.34-.45.34c-.4.31-.63.77-.63,1.27v.55h3.22ZM178.76,24.33v-12.67h-2.38v12.67h2.38ZM178.35,9.8c.02-.33-.13-.53-.35-.81-.27-.35-.6-.77-.7-1.57-.31.71-.77,2.02-.77,2.4,0,.44.32.81.74.89v-.52s.38,0,.38,0v.51c.38-.1.66-.44.7-.9ZM169.82,29.55s-.04-.08-.08-.08h-.93s-3.15,0-3.15,0h-.85s-.08.04-.08.08.04.08.08.08h4.92s0,0,0,0c.04,0,.08-.04.08-.08ZM169.03,30.02h-3.64c.27.47.73,1.42.68,2.42h2.3c-.06-.4-.05-1.22.66-2.42ZM168.69,32.9s-.04-.08-.08-.08h-2.96s-.08.04-.08.08.04.08.08.08h.02s2.95,0,2.95,0c.04,0,.08-.04.08-.08ZM168.42,29.09v-12.72h-2.38v12.72h2.38ZM168.4,39.97s.02-.03.02-.05c0-.04-.04-.08-.08-.08h-.93s.45-.34.45-.34c.28-.22.44-.54.44-.89v-2.25c0-.35-.16-.67-.44-.89l-.44-.34h.93s.08-.04.08-.08-.04-.08-.08-.08h-.93s.44-.34.44-.34c.28-.22.44-.54.44-.89v-.35h-2.25v.35c0,.35.16.67.44.89l.44.34h-.8s-.08.04-.08.08.04.08.08.08h.8s-.44.34-.44.34c-.28.22-.44.54-.44.89v2.25c0,.35.16.68.44.89l.45.34h-.81s-.08.04-.08.08c0,.02,0,.04.02.05h2.34ZM168.01,14.5c.02-.33-.13-.53-.35-.81-.27-.35-.6-.77-.7-1.57-.31.71-.77,2.02-.77,2.4,0,.44.32.81.74.89v-.52s.38,0,.38,0v.51c.38-.1.66-.44.7-.9Z" fill="#7c170f"/></svg>