<?xml version="1.0" encoding="UTF-8"?>
<svg id="_Обложка_web" data-name="Обложка_web" xmlns="http://www.w3.org/2000/svg" version="1.1" viewBox="0 0 198.4 368.5">
  <!-- Generator: Adobe Illustrator 29.8.3, SVG Export Plug-In . SVG Version: 2.1.1 Build 3)  -->
  <defs>
    <style>
      .st0 {
        fill: #010101;
      }

      .st1 {
        fill: #faf6c9;
      }
    </style>
  </defs>
  <rect id="_Фон" data-name="Фон" class="st1" x="0" width="198.4" height="368.5"/>
  <g>
    <path class="st0" d="M11.1,289.5c.3-.5.5-.7.6-.6,1.7.6,5.6,2.3,11.9,5.2,6.9,3.2,11.9,5.6,14.9,7.3l.4-.9.4-.8c.2-.6.4-1.2.5-1.7.2-1.2-.2-2.4-1-3.5,0-.1,0-.4.4-.9.4-.5.6-.7.7-.6.5.3.8.8,1.1,1.5.2.6.3,1.2.2,1.9,0,.8-.3,1.7-.8,2.6-.1.3-.4.7-.7,1.3l-.4.6-.4.7c.3.1.5.3.7.4l.8.4c.6.3,1.1.7,1.6,1,1.2.9,2,1.7,2.4,2.6.5,1.1.5,2,0,2.7-.5.8-1,1.2-1.6,1.3-.2,0-.5,0-.8,0-.3,0-.5-.1-.8-.2-1.5-.6-2.5-1.7-3.1-3.1-.4-1.1-.5-2.3-.2-3.5-3.7-2-7.3-3.8-10.9-5.5.6.6,1.2,1.1,1.9,1.7.8.8,1.5,1.6,2.2,2.3,1.7,1.9,2.7,3.5,3,4.8.1.6-.2,1.2-1,1.8-.8.6-1.5.9-2.2.7-.4,0-3-1.2-7.6-3.4-1.6-.7-3.5-1.6-5.8-2.7-.4-.2-.9-.4-1.3-.6l-.6-.3-.6-.3c-1-.5-1.7-.8-2.1-1-1.7-.7-2.8-1-3.5-.8h-.2c0,0,0,0-.1.1,0,.1-.1.3-.1.6,0,.5.2,1.2.5,2,1.3,3.5,2.4,6.1,3.2,7.8,1.3,2.9,2.6,5.3,4,7.5l.5.8.5.8c.4.6.8,1.2,1.2,1.6,1,1.2,1.9,2,3,2.6,1.1.6,2.1.8,3.2.7.6,0,1.1-.3,1.5-.5.5-.3.8-.7,1-1.2,0-.2.2-.4.4-.5h0s.1-.1.1-.1c0,0,0,0,0,0-.4,1.3-1.2,2.3-2.6,2.9-1.3.6-2.6.6-3.9,0-1.2-.5-2.5-1.4-3.6-2.7-.5-.5-.9-1.1-1.4-1.8-.3-.5-.8-1.1-1.3-1.9-1.5-2.3-3-5.2-4.6-8.7-.6-1.2-1.2-2.7-1.9-4.5l-.2-.5-.2-.5c-.2-.4-.3-.8-.4-1-.3-.8-.3-1.5-.2-2.1.1-.7.5-1.3,1-1.9.6-.6,1.2-1,1.8-1.1.7,0,1.3,0,1.9.3,1.6.7,4.5,2,8.7,4l2.6,1.2,2.6,1.2c2,.9,3.6,1.7,4.8,2.2.4.1.9.3,1.7.3-.2-1.6-1.7-3.8-4.2-6.6-1-1.1-2-2.1-3.1-3.1-1-.9-1.7-1.6-2.3-2-.8-.4-2.6-1.2-5.4-2.5-2.6-1.2-4.9-2.2-7.1-3.1,0-.1,0-.4.3-.9ZM38.5,303.6c0,1.4.5,2.6,1.4,3.6,1,1,2.2,1.5,3.6,1.4,0-.4-.2-.9-.6-1.6-.7-1.1-2.2-2.2-4.4-3.4Z"/>
    <path class="st0" d="M30.1,282.2c.1.1.3.3.6.5l.4.3.5.4c.8.6,1.4,1.2,1.9,1.6,1.5,1.3,2.3,2.2,2.3,2.5,0,.4-.2.8-.5,1.3-.4.5-.8.7-1.2.5-.5-.2-2.2-.9-5-2.2h-.2s-.2,0-.2,0c-.1,0-.2,0-.2-.1,0-.2.1-.5.4-.8.2-.3.4-.5.6-.6h.1c0,0,0-.1,0-.1,0,0,.1,0,.2,0,1,.4,1.7.7,2.2.9l.5.3.5.2c.7.4,1.2.6,1.3.6-.1-.6-1.6-2-4.4-4-1-.7-2.2-1.5-3.4-2.4-.8-.5-1.5-1-2.2-1.4-.1,0-.2,0-.4-.1h-.2s-.2,0-.2,0c-.1,0-.2,0-.2-.1,0-.2.1-.5.4-.8.2-.3.4-.5.6-.6h.1c0,0,0-.1,0-.1,0,0,.1,0,.2,0,1.7.7,3.6,1.5,5.9,2.6.4.2.8.4,1.3.6l.5.3.5.2c.7.4,1.2.6,1.3.6-.1-.6-1.6-2-4.4-4-1-.7-2.2-1.5-3.4-2.4-1-.7-1.9-1.3-2.7-1.8l-.5-.2c0,0,0-.4.4-.9s.6-.8.8-.7c.3.1.6.3,1.1.5l.6.3.6.3c1.1.6,2,1,2.8,1.3,2.4,1,4.1,1.5,5.3,1.4,0-1.2-1.2-2.6-3.8-4.2-.1-.5-.1-.6,0-.5,3.5,1.9,4.9,3.7,4.3,5.2-.3.9-1.1,1.2-2.3,1.1-.5,0-1-.1-1.7-.3l-.8-.3-.8-.3c.2.1.4.3.7.6l.4.3.5.4c.8.6,1.4,1.2,1.9,1.6,1.5,1.3,2.3,2.2,2.3,2.5,0,.4-.2.8-.5,1.3-.4.5-.8.7-1.2.5-.5-.2-1.8-.8-3.9-1.7Z"/>
    <path class="st0" d="M33,270.1c.8,0,1.3-.3,1.5-.8.5-1.1.5-2.3-.1-3.8-.6-1.6-1.6-2.8-3.1-3.8,0,0-.2-.1-.2-.3,0-.1,0-.2.2-.3,1.7,1,2.9,2.3,3.7,4,.7,1.6.9,3.1.5,4.5-.2.7-.6,1.3-1.2,1.7-.7.5-1.6.7-2.7.5-2-.3-4-1.3-5.9-3-2.2-1.9-2.9-3.7-2.1-5.5.2-.4.4-.8.7-1,.4-.3.7-.5,1.1-.5,1.1,0,2.1.3,3,.8.8.5,1.3,1,1.4,1.7,0,.4.1.9.2,1.6,0,.4.1,1,.2,1.7.1,1.3.2,2,.3,2.1.8.4,1.6.6,2.4.5ZM26.3,266.7c.4.4.9.8,1.5,1.3l.8.6.8.5c0-1.5-.2-2.9-.3-4-.1-1.2-.9-1.8-2.3-2.1-.5,0-1,0-1.4,0-.4,0-.6.2-.6.3,0,1.1.5,2.2,1.6,3.3Z"/>
    <path class="st0" d="M28.4,255.4c-.2,0-.4-.2-.6-.3-.7-.3-1.3-.6-1.8-.8-.7-.3-1.5-.6-2.2-.9h-.3c0,0-.1,0-.1,0,0-.2.2-.6.4-.9.3-.3.5-.6.8-.7.2,0,.3,0,.5,0,.8.4,2,.9,3.4,1.6l.8.4.8.4c.6.3,1.1.5,1.4.6,2,.9,3.2,1,3.6.4,0-1.2-1.2-2.6-3.8-4.2-.1-.5-.1-.6,0-.5,3.3,1.9,4.8,3.6,4.3,5.2-.3.9-.9,1.4-1.7,1.6-.7,0-1.8-.2-3.3-.8-.1,0-.3-.1-.4-.2v.5c.2.6.3,1.2.4,1.8,0,.6,0,.9,0,1.1,0,0,0,0,.1,0l5,2.2s0,0,0,.3c0,.2-.1.4-.2.6-.1.2-.2.4-.3.6-.1.1-.3.2-.4.1-1.1-.5-3-1.3-5.6-2.4-3-1.2-4.8-1.9-5.6-2.2h-.1s0,0,0,0c0-.3.2-.6.5-1,.3-.4.6-.6.8-.5.6.2,1.5.6,2.8,1.1.6.3,1.2.5,1.9.8,0-.6,0-1.1-.1-1.7,0-.4-.1-.7-.2-.9,0-.4-.3-.7-.6-1Z"/>
    <path class="st0" d="M24.1,242.3c0,0-.1,0-.2-.1l-.5-.2c0,0,0-.4.4-.9.4-.5.6-.8.8-.7.3.1.6.3,1.1.5l.6.3.6.3c1.1.6,2,1,2.8,1.3,2.4,1,4.1,1.5,5.3,1.4,0-1.2-1.2-2.6-3.8-4.2-.1-.5-.1-.6,0-.5,3.5,1.9,4.9,3.7,4.3,5.2-.3.9-1.1,1.2-2.3,1.1-.5,0-1-.1-1.7-.3l-.8-.3-.8-.3c.2.1.4.3.7.6l.4.3.5.4c.8.6,1.4,1.2,1.9,1.6,1.5,1.3,2.3,2.2,2.3,2.5,0,.4-.2.8-.5,1.3-.4.5-.8.7-1.2.5-.5-.2-1.1-.5-1.7-.8-.6-.3-1.3-.7-2.1-1h-.2s-.2,0-.2,0c-.1,0-.2,0-.2-.1,0-.2.1-.5.4-.8.2-.3.4-.5.6-.6h.1c0,0,0-.1,0-.1,0,0,.1,0,.2,0,.7.5,1.4.9,2.1,1.2.7.3,1.1.5,1.2.5-.1-.6-1.6-2-4.4-4-.2-.1-.4-.3-.6-.5.4.7.5,1.3.3,1.7-.2.3-.4.6-.6.8-.3.3-.6.4-.9.3-1.3-.3-2.5-1.1-3.5-2.4-1-1.4-1.2-2.8-.5-4ZM27.5,244.6c-.3-.2-.6-.4-.9-.6-.7-.5-1.4-1-2.1-1.4.2,1,.7,2,1.5,2.9.8,1,1.9,1.6,3.1,2.1-.1-1-.6-2-1.5-3Z"/>
    <path class="st0" d="M34.9,234.7c.1,0,.4.1.9.3.4.2.7.4.9.5.3.3.6.7.8,1.2,0,0,0,0,0,.1s0,.1,0,.2,0,.2,0,.2,0,.1,0,.1c.2.5.3.8.3,1.1s-.1.3-.4.3-.2,0-.2,0c-.2-.9-.5-1.5-1-2-.1,0-.3-.2-.6-.4s-.5-.2-.6-.2c-.2,0-.5,0-1,.1,0,0-.2,0-.3.1-.1,0-.2.1-.3.1s-.2,0-.4-.1c-.2,0-.2-.2-.2-.2,0-.1,0-.3.1-.6s.2-.4.3-.5c.6-.2,1.1-.4,1.5-.4Z"/>
    <path class="st0" d="M55.7,200c-.6-.3-1-.4-1.1-.6.1,1.3.6,2.6,1.5,3.9.1.2.3.4.4.5l.7.3,1,.5c.8.4,1.5.6,2.2.8.1,0,.2,0,.2,0,0,.3-.1.7-.4,1.1-.3.5-.6.7-.8.6-1.3-.6-3.2-1.4-5.4-2.5-2.3-1.1-4-1.9-5.3-2.5h-.4c0-.4.2-.7.4-1.2.3-.4.5-.6.7-.5.3.1.8.3,1.3.6l.8.4.9.4.4.2-.9-1.2-.9-1.2c-.7-.9-1.5-1.7-2.1-2.2,0,0,0-.3.3-.8.3-.4.7-.6,1.3-.6.3,0,.6.2.9.5s.4.5.3.7c-.4.4-.5.7-.4.9h.1c0,.1.1.4.1.4.1.2.2.3.4.5.3.5.6,1,1,1.5.5.7,1,1.5,1.5,2.3h.1c-.2-.4-.4-.8-.5-1.3-.4-1.2-.6-2.4-.5-3.5,0-.2.3-.5.6-.8.4-.3.6-.4.8-.3l.9.5c1.3.8,2.8,1.2,4.3,1.2,0-1.2-1.2-2.6-3.8-4.2-.1-.5-.1-.6,0-.5,1.6.9,2.7,1.7,3.5,2.6.9,1,1.2,1.8.8,2.6-.5.9-1.3,1.3-2.3,1.2s-1.9-.2-2.5-.4Z"/>
    <path class="st0" d="M59.5,188.7c-.6-1.8-1.7-3.2-3.2-4.2,0,0-.2-.1-.2-.3,0-.1,0-.2.2-.3,1.7,1,3,2.4,3.7,4.2.8,1.8.9,3.4.2,4.7-.5,1-1.3,1.5-2.5,1.7-1.9.2-4-.6-6.3-2.3-2.4-1.9-3.4-3.8-3-5.8,0-.5.3-.9.7-1.3.4-.4.9-.6,1.4-.6.2,0,.5.1.9.3.4.1.7.3,1,.5.7.6.9,1.1.6,1.7,0,0,0,0,0,.1v.2c-.3.2-.3.2-.4.2,0,0,0,0,0,0h0c0-.5-.3-.8-.9-1.1-.6-.2-1.3-.4-2.1-.4.1,1.9,1.4,3.6,3.6,5.1,2.4,1.6,4.5,2,6.5,1.4.4-.8.3-2.1-.2-3.6Z"/>
    <path class="st0" d="M54.2,174.2c-.3-.1-.6-.3-.9-.4,2.2,2.3,4.5,4.1,7,5.5.1,0,0,.3-.3.8-.4.4-.7.6-1,.6-.6,0-1.9-.5-3.9-1.4-.6-.3-1.4-.7-2.3-1.2l-.5-.3-.5-.2-.8-.4c3.5,3.4,6.7,5.9,9.7,7.4.1,0,0,.4-.4.9-.4.5-.7.7-.9.6-.2,0-.6-.3-1-.5h-.3c0-.1-.3-.3-.3-.3l-.8-.4c-1.3-.6-2.5-1.2-3.4-1.6-2.9-1.3-4.6-2.1-5.1-2.1,0,0-.1,0,0-.3,0-.1.2-.3.3-.5.1-.2.3-.4.4-.5.1-.2.3-.2.3-.2,1.3.5,3.1,1.3,5.6,2.5-.4-.3-.9-.8-1.7-1.4l-1.7-1.4c-1.4-1.2-2.5-2.1-3.3-2.9,0,0,0-.2.1-.4,0,0,0-.1.1-.2h0c0,0,0-.1,0-.1.5-.6,1.1-.7,1.8-.4.6.2,1.5.6,2.8,1.2l1.5.6c.6.2,1,.4,1.4.6-.5-.4-1-.9-1.7-1.5l-1.8-1.5c-1.4-1.2-2.6-2.3-3.4-3.1,0,0,0-.3.3-.6.3-.4.4-.5.5-.5.7.4,1.3.7,1.9,1,.6.3,1.1.5,1.7.8.3,0,.5.2.8.3,2.1.8,3.9,1.2,5.4,1.2,0-1.2-1.2-2.6-3.8-4.2-.1-.5-.1-.6,0-.5,1.6.9,2.7,1.7,3.5,2.6.9,1,1.2,1.8.8,2.6-.5.9-1.6,1.2-3.3.9-.6,0-1.4-.3-2.2-.5-.3,0-.6-.2-.9-.3Z"/>
    <path class="st0" d="M49.8,157.8h.3c0,.1.6.4.6.4.5.3,1,.5,1.4.7,1.2.6,2.3,1.1,3.2,1.4,2.6,1.1,4.2,1.4,4.8,1.1-.3-1.4-1.6-2.8-3.8-4.2-.2-.5-.2-.7,0-.5,1.4.9,2.5,1.7,3.3,2.6,1,1.1,1.3,2,1,2.7-.5.9-1.4,1.2-2.8,1-.6,0-1.2-.2-1.9-.5l-.9-.3c-.2,0-.5-.2-.9-.3,0,0,.3.3.6.6.2.1.3.3.5.4l.5.4c.9.7,1.6,1.4,2.2,2,1.9,1.8,2.9,2.9,2.8,3.4,0,.3-.2.6-.5.9-.3.3-.5.5-.8.6-.4.2-.8.2-1.4.1-1.8-.3-3.9-1.3-6.3-3.1-2.7-2.1-3.8-4-3.2-5.7.2-.6.6-1.2,1.3-1.7-.2-.2-.6-.4-1.2-.6-.1,0-.2,0-.3,0,0-.2,0-.6.4-1,.3-.4.6-.6.8-.5h.3ZM59.5,168.7c-1.8-2.1-3.6-3.8-5.1-5.1l-1-.8-1-.8c-.8-.7-1.6-1.3-2.2-1.8-.1,0-.3.1-.4.2-.2.1-.3.3-.4.4-.8,1.3.4,3,3.6,5.1,1.2.8,2.4,1.5,3.7,2.1,1.2.6,2,.9,2.5.9h.3Z"/>
    <path class="st0" d="M54.2,146.9c-.3-.1-.6-.3-.9-.4,2.2,2.3,4.5,4.1,7,5.5.1,0,0,.3-.3.8-.4.4-.7.6-1,.6-.6,0-1.9-.5-3.9-1.4-.6-.3-1.4-.7-2.3-1.2l-.5-.3-.5-.2-.8-.4c3.5,3.4,6.7,5.9,9.7,7.4.1,0,0,.4-.4.9-.4.5-.7.7-.9.6-.2,0-.6-.3-1-.5h-.3c0-.1-.3-.3-.3-.3l-.8-.4c-1.3-.6-2.5-1.2-3.4-1.6-2.9-1.3-4.6-2.1-5.1-2.1,0,0-.1,0,0-.3,0-.1.2-.3.3-.5.1-.2.3-.4.4-.5.1-.2.3-.2.3-.2,1.3.5,3.1,1.3,5.6,2.5-.4-.3-.9-.8-1.7-1.4l-1.7-1.4c-1.4-1.2-2.5-2.1-3.3-2.9,0,0,0-.2.1-.4,0,0,0-.1.1-.2h0c0,0,0-.1,0-.1.5-.6,1.1-.7,1.8-.4.6.2,1.5.6,2.8,1.2l1.5.6c.6.2,1,.4,1.4.6-.5-.4-1-.9-1.7-1.5l-1.8-1.5c-1.4-1.2-2.6-2.3-3.4-3.1,0,0,0-.3.3-.6.3-.4.4-.5.5-.5.7.4,1.3.7,1.9,1,.6.3,1.1.5,1.7.8.3,0,.5.2.8.3,2.1.8,3.9,1.2,5.4,1.2,0-1.2-1.2-2.6-3.8-4.2-.1-.5-.1-.6,0-.5,1.6.9,2.7,1.7,3.5,2.6.9,1,1.2,1.8.8,2.6-.5.9-1.6,1.2-3.3.9-.6,0-1.4-.3-2.2-.5-.3,0-.6-.2-.9-.3Z"/>
    <path class="st0" d="M50.7,132.1l.6.3.6.3c1.1.6,2,1,2.8,1.3,2.4,1,4.1,1.5,5.3,1.4,0-1.2-1.2-2.6-3.8-4.2-.1-.5-.1-.6,0-.5,3.5,1.9,4.9,3.7,4.3,5.2-.3.9-1.1,1.2-2.3,1.1-.5,0-1-.1-1.7-.3l-.8-.3-.8-.3c.2.1.4.3.7.6l.4.3.5.4c.8.6,1.4,1.2,1.9,1.6,1.5,1.3,2.3,2.2,2.3,2.5,0,.4-.2.8-.5,1.3-.4.5-.8.7-1.2.5-.5-.2-2-.8-4.4-1.9-1.2-.6-2.2-1-2.9-1.3-1.1-.5-2-.9-2.8-1.2h-.2s-.2,0-.2,0c-.1,0-.2,0-.2-.1,0-.2.1-.5.4-.8.2-.3.4-.5.6-.6h.1c0,0,0-.1,0-.1,0,0,.1,0,.2,0,1.7.7,3.6,1.5,5.9,2.6.4.2.8.4,1.3.6l.5.3.5.2c.7.4,1.2.6,1.3.6-.1-.6-1.6-2-4.4-4-1-.7-2.2-1.5-3.4-2.4-1-.7-1.9-1.3-2.7-1.8l-.5-.2c0,0,0-.4.4-.9.4-.5.6-.8.8-.7.3.1.6.3,1.1.5Z"/>
    <path class="st0" d="M59.9,125.9c.1,0,.4.1.9.3.4.2.7.4.9.5.3.3.6.7.8,1.2,0,0,0,0,0,.1s0,.1,0,.2,0,.2,0,.2,0,.1,0,.1c.2.5.3.8.3,1.1s-.1.3-.4.3-.2,0-.2,0c-.2-.9-.5-1.5-1-2-.1,0-.3-.2-.6-.4s-.5-.2-.6-.2c-.2,0-.5,0-1,.1,0,0-.2,0-.3.1-.1,0-.2.1-.3.1s-.2,0-.4-.1c-.2,0-.2-.2-.2-.2,0-.1,0-.3.1-.6s.2-.4.3-.5c.6-.2,1.1-.4,1.5-.4Z"/>
    <path class="st0" d="M79.2,80.1c-.3-.1-.6-.3-.9-.4,2.2,2.3,4.5,4.1,7,5.5.1,0,0,.3-.3.8-.4.4-.7.6-1,.6-.6,0-1.9-.5-3.9-1.4-.6-.3-1.4-.7-2.3-1.2l-.5-.3-.5-.2-.8-.4c3.5,3.4,6.7,5.9,9.7,7.4.1,0,0,.4-.4.9-.4.5-.7.7-.9.6-.2,0-.6-.3-1-.5h-.3c0-.1-.3-.3-.3-.3l-.8-.4c-1.3-.6-2.5-1.2-3.4-1.6-2.9-1.3-4.6-2.1-5.1-2.1,0,0-.1,0,0-.3,0-.1.2-.3.3-.5.1-.2.3-.4.4-.5.1-.2.3-.2.3-.2,1.3.5,3.1,1.3,5.6,2.5-.4-.3-.9-.8-1.7-1.4l-1.7-1.4c-1.4-1.2-2.5-2.1-3.3-2.9,0,0,0-.2.1-.4,0,0,0-.1.1-.2h0c0,0,0-.1,0-.1.5-.6,1.1-.7,1.8-.4.6.2,1.5.6,2.8,1.2l1.5.6c.6.2,1,.4,1.4.6-.5-.4-1-.9-1.7-1.5l-1.8-1.5c-1.4-1.2-2.6-2.3-3.4-3.1,0,0,0-.3.3-.6.3-.4.4-.5.5-.5.7.4,1.3.7,1.9,1,.6.3,1.1.5,1.7.8.3,0,.5.2.8.3,2.1.8,3.9,1.2,5.4,1.2,0-1.2-1.2-2.6-3.8-4.2-.1-.5-.1-.6,0-.5,1.6.9,2.7,1.7,3.5,2.6.9,1,1.2,1.8.8,2.6-.5.9-1.6,1.2-3.3.9-.6,0-1.4-.3-2.2-.5-.3,0-.6-.2-.9-.3Z"/>
    <path class="st0" d="M84.6,73.3c.8.7,1.2,1.2,1.2,1.4,0,.4-.2.8-.5,1.3-.4.5-.8.7-1.2.5-.5-.2-2-.8-4.4-1.9-1.2-.6-2.2-1-2.9-1.3-1.1-.5-2-.9-2.8-1.2h-.2s-.2,0-.2,0c-.1,0-.2,0-.2-.1,0-.2.1-.5.4-.8.2-.3.4-.5.6-.6h.1c0,0,0-.1,0-.1,0,0,.1,0,.2,0,1.4.6,2.9,1.2,4.7,2.1.3-.3.7-.6,1.2-.8.1,0,.3,0,.4,0-.4-.3-.7-.6-1.2-.9-1-.7-2.2-1.5-3.4-2.4-1-.7-1.9-1.3-2.7-1.8l-.5-.2c0,0,0-.4.4-.9.4-.5.6-.8.8-.7.3.1.6.3,1.1.5l.6.3.6.3c1.1.6,2,1,2.8,1.3,2.4,1,4.1,1.5,5.3,1.4,0-1.2-1.2-2.6-3.8-4.2-.1-.5-.1-.6,0-.5,3.5,1.9,4.9,3.7,4.3,5.2-.3.9-1.1,1.2-2.3,1.1-.5,0-1-.1-1.7-.3l-.8-.3-.8-.3c.2.1.4.3.7.6l.4.3.5.4c.8.6,1.4,1.2,1.9,1.6.2.2.5.4.7.6.2.2.4.3.5.4h0ZM80.3,72.8c.1,0,.3.1.4.2.4.2.8.4,1.3.6l.5.3.5.2c.7.4,1.2.6,1.3.6,0-.1-.1-.3-.3-.6,0,0-.1,0-.2-.1h-.1c0-.1-.1-.2-.1-.2-.3-.3-.8-.7-1.4-1-.6-.3-1-.5-1.5-.6-.1,0-.3,0-.5,0h0c0,.2,0,.4,0,.6Z"/>
    <path class="st0" d="M83.8,60.4c.2-.2.5-.3.7-.3,0,0,.2,0,.4.1l.4.2.4.2.4.2c0,0,0,.2-.1.5h0c0,.1-.1.3-.1.3v.2c-.1,0-.2,0-.2,0h0c0,.2-.1.3-.2.4-.2.2-.3.3-.4.3l-.5-.3-.5-.3h-.1s-.1-.1-.1-.1c0,0-.2,0-.2-.1,0,0,0-.3,0-.6,0-.2.2-.5.4-.6Z"/>
    <path class="st0" d="M83.8,53.2c.2-.2.5-.3.7-.3,0,0,.2,0,.4.1l.4.2.4.2.4.2c0,0,0,.2-.1.5h0c0,.1-.1.3-.1.3v.2c-.1,0-.2,0-.2,0h0c0,.2-.1.3-.2.4-.2.2-.3.3-.4.3l-.5-.3-.5-.3h-.1s-.1-.1-.1-.1c0,0-.2,0-.2-.1,0,0,0-.3,0-.6,0-.2.2-.5.4-.6Z"/>
    <path class="st0" d="M83.8,46c.2-.2.5-.3.7-.3,0,0,.2,0,.4.1l.4.2.4.2.4.2c0,0,0,.2-.1.5h0c0,.1-.1.3-.1.3v.2c-.1,0-.2,0-.2,0h0c0,.2-.1.3-.2.4-.2.2-.3.3-.4.3l-.5-.3-.5-.3h-.1s-.1-.1-.1-.1c0,0-.2,0-.2-.1,0,0,0-.3,0-.6,0-.2.2-.5.4-.6Z"/>
  </g>
  <g>
    <path class="st0" d="M128.1,306.2c.7.8,1.7,1.8,2.8,3l.6.7.6.6c.5.5.9.9,1.2,1.3,1.7,1.7,2.7,2.7,3,2.8,2.2-1.2,4.2-2.5,5.9-4,2-1.7,3.1-3.2,3.4-4.6,0,0,0-.1.3-.4.2-.2.3-.4.5-.6.5-.5.7-.6.6-.1.1,1.2-.6,2.7-2.2,4.6-1.9,2.3-4.5,4.4-7.8,6.2,0,0,.1,0,.3.1h.2c0,.1.2.2.2.2.4.2.7.3,1,.5,1,.5,1.9.9,2.7,1.2,2.4,1.1,3.6,1.5,3.7,1.3,0,.4-.4.8-.9,1.3-.5.5-1,.6-1.4.4-7.9-3.7-15.9-7.6-24-11.6.1.4.3.9.7,1.7.4,1,.8,2,1.3,3.1,1.3,3,2.6,5.6,3.9,7.9,3.7,6.9,6.4,9.4,8,7.5,0,0,0,0,.1.2,0,.2,0,.4,0,.6s0,.6,0,.8c0,.3-.2.4-.4.5-2.3.7-5.5-2.8-9.5-10.6-1.3-2.5-2.7-5.3-3.9-8.3-.5-1.1-.9-2.1-1.2-2.9-.3-.8-.4-1.2-.5-1.4,0-.2.1-.5.5-.9.3-.5.5-.6.7-.6l3.7,1.9c1.6.8,2.9,1.5,3.9,1.9,3,1.5,5.8,2.9,8.4,4.1-2-2.3-4.4-4.7-7.3-7.3-3.7-3.3-7-5.9-10.1-7.7,0-.2,0-.4.3-.6.2-.3.5-.4.8-.4,1.7,0,5.1,2.6,10.1,7.8Z"/>
    <path class="st0" d="M132.1,297.6h.3c0,.1.6.4.6.4.5.3,1,.5,1.4.7,1.2.6,2.3,1.1,3.2,1.4,2.6,1.1,4.2,1.4,4.8,1.1-.3-1.4-1.6-2.8-3.8-4.2-.2-.5-.2-.7,0-.5,1.4.9,2.5,1.7,3.3,2.6,1,1.1,1.3,2,1,2.7-.5.9-1.4,1.2-2.8,1-.6,0-1.2-.2-1.9-.5l-.9-.3c-.2,0-.5-.2-.9-.3,0,0,.3.3.6.6.2.1.3.3.5.4l.5.4c.9.7,1.6,1.4,2.2,2,1.9,1.8,2.9,2.9,2.8,3.4,0,.3-.2.6-.5.9-.3.3-.5.5-.8.6-.4.2-.8.2-1.4.1-1.8-.3-3.9-1.3-6.3-3.1-2.7-2.1-3.8-4-3.2-5.7.2-.6.6-1.2,1.3-1.7-.2-.2-.6-.4-1.2-.6-.1,0-.2,0-.3,0,0-.2,0-.6.4-1,.3-.4.6-.6.8-.5h.3ZM141.8,308.4c-1.8-2.1-3.6-3.8-5.1-5.1l-1-.8-1-.8c-.8-.7-1.6-1.3-2.2-1.8-.1,0-.3.1-.4.2-.2.1-.3.3-.4.4-.8,1.3.4,3,3.6,5.1,1.2.8,2.4,1.5,3.7,2.1,1.2.6,2,.9,2.5.9h.3Z"/>
    <path class="st0" d="M138,291.3c-.6-.3-1-.4-1.1-.6.1,1.3.6,2.6,1.5,3.9.1.2.3.4.4.5l.7.3,1,.5c.8.4,1.5.6,2.2.8.1,0,.2,0,.2,0,0,.3-.1.7-.4,1.1-.3.5-.6.7-.8.6-1.3-.6-3.2-1.4-5.4-2.5-2.3-1.1-4-1.9-5.3-2.5h-.4c0-.4.2-.7.4-1.2.3-.4.5-.6.7-.5.3.1.8.3,1.3.6l.8.4.9.4.4.2-.9-1.2-.9-1.2c-.7-.9-1.5-1.7-2.1-2.2,0,0,0-.3.3-.8.3-.4.7-.6,1.3-.6.3,0,.6.2.9.5s.4.5.3.7c-.4.4-.5.7-.4.9h.1c0,.1.1.4.1.4.1.2.2.3.4.5.3.5.6,1,1,1.5.5.7,1,1.5,1.5,2.3h.1c-.2-.4-.4-.8-.5-1.3-.4-1.2-.6-2.4-.5-3.5,0-.2.3-.5.6-.8.4-.3.6-.4.8-.3l.9.5c1.3.8,2.8,1.2,4.3,1.2,0-1.2-1.2-2.6-3.8-4.2-.1-.5-.1-.6,0-.5,1.6.9,2.7,1.7,3.5,2.6.9,1,1.2,1.8.8,2.6-.5.9-1.3,1.3-2.3,1.2s-1.9-.2-2.5-.4Z"/>
    <path class="st0" d="M133,275.7l.6.3.6.3c1.1.6,2,1,2.8,1.3,2.4,1,4.1,1.5,5.3,1.4,0-1.2-1.2-2.6-3.8-4.2-.1-.5-.1-.6,0-.5,3.5,1.9,4.9,3.7,4.3,5.2-.3.9-1.1,1.2-2.3,1.1-.5,0-1-.1-1.7-.3l-.8-.3-.8-.3c.2.1.4.3.7.6l.4.3.5.4c.8.6,1.4,1.2,1.9,1.6,1.5,1.3,2.3,2.2,2.3,2.5,0,.4-.2.8-.5,1.3-.4.5-.8.7-1.2.5-.5-.2-2-.8-4.4-1.9-1.2-.6-2.2-1-2.9-1.3-1.1-.5-2-.9-2.8-1.2h-.2s-.2,0-.2,0c-.1,0-.2,0-.2-.1,0-.2.1-.5.4-.8.2-.3.4-.5.6-.6h.1c0,0,0-.1,0-.1,0,0,.1,0,.2,0,1.7.7,3.6,1.5,5.9,2.6.4.2.8.4,1.3.6l.5.3.5.2c.7.4,1.2.6,1.3.6-.1-.6-1.6-2-4.4-4-1-.7-2.2-1.5-3.4-2.4-1-.7-1.9-1.3-2.7-1.8l-.5-.2c0,0,0-.4.4-.9.4-.5.6-.8.8-.7.3.1.6.3,1.1.5Z"/>
    <path class="st0" d="M140.3,273.2c.8,0,1.3-.3,1.5-.8.5-1.1.5-2.3-.1-3.8-.6-1.6-1.6-2.8-3.1-3.8,0,0-.2-.1-.2-.3,0-.1,0-.2.2-.3,1.7,1,2.9,2.3,3.7,4,.7,1.6.9,3.1.5,4.5-.2.7-.6,1.3-1.2,1.7-.7.5-1.6.7-2.7.5-2-.3-4-1.3-5.9-3-2.2-1.9-2.9-3.7-2.1-5.5.2-.4.4-.8.7-1,.4-.3.7-.5,1.1-.5,1.1,0,2.1.3,3,.8.8.5,1.3,1,1.4,1.7,0,.4.1.9.2,1.6,0,.4.1,1,.2,1.7.1,1.3.2,2,.3,2.1.8.4,1.6.6,2.4.5ZM133.6,269.7c.4.4.9.8,1.5,1.3l.8.6.8.5c0-1.5-.2-2.9-.3-4-.1-1.2-.9-1.8-2.3-2.1-.5,0-1,0-1.4,0-.4,0-.6.2-.6.3,0,1.1.5,2.2,1.6,3.3Z"/>
    <path class="st0" d="M131.9,233.4l.5.3c.4.3.8.5,1.2.7,1,.6,1.9,1.1,2.7,1.5,2.4,1.1,4.4,1.6,6.1,1.5,0-1.2-1.2-2.6-3.8-4.2-.1-.5-.1-.6,0-.5,1.6.9,2.7,1.8,3.5,2.7.9,1,1.1,1.9.6,2.6-.7,1-2.2,1.2-4.4.6-.8-.2-1.7-.6-2.6-1-.7-.3-1.3-.7-2-1,1.9,1.9,5,4.3,9.2,7.1,0,0,0,0,0,.3,0,.2-.1.4-.2.6-.1.2-.2.4-.3.6-.1.1-.3.2-.4.1-1.1-.5-3-1.3-5.6-2.4-3-1.2-4.8-1.9-5.6-2.2h-.1s0,0,0,0c0-.3.2-.6.5-1,.3-.4.6-.6.8-.5.6.2,1.5.6,2.8,1.1,1.1.5,2.2.9,3.2,1.4-.3-.2-.6-.5-1-.9l-1.1-.9c-1-.8-1.7-1.4-2.2-1.9-1.7-1.5-2.7-2.7-3.1-3.6,0-.1,0-.3.3-.6.2-.3.4-.4.5-.4l.5.3Z"/>
    <path class="st0" d="M133,223.1l.6.3.6.3c1.1.6,2,1,2.8,1.3,2.4,1,4.1,1.5,5.3,1.4,0-1.2-1.2-2.6-3.8-4.2-.1-.5-.1-.6,0-.5,3.5,1.9,4.9,3.7,4.3,5.2-.3.9-1.1,1.2-2.3,1.1-.5,0-1-.1-1.7-.3l-.8-.3-.8-.3c.2.1.4.3.7.6l.4.3.5.4c.8.6,1.4,1.2,1.9,1.6,1.5,1.3,2.3,2.2,2.3,2.5,0,.4-.2.8-.5,1.3-.4.5-.8.7-1.2.5-.5-.2-1.1-.5-1.7-.8-.6-.3-1.3-.7-2.1-1h-.2s-.2,0-.2,0c-.1,0-.2,0-.2-.1,0-.2.1-.5.4-.8.2-.3.4-.5.6-.6h.1c0,0,0-.1,0-.1,0,0,.1,0,.2,0,.7.5,1.4.9,2.1,1.2.7.3,1.1.4,1.2.5-.1-.6-1.6-2-4.4-4-1-.7-2.2-1.5-3.4-2.4-1-.7-1.9-1.3-2.7-1.8l-.5-.2c0,0,0-.4.4-.9.4-.5.6-.8.8-.7.3.1.6.3,1.1.5Z"/>
    <path class="st0" d="M132.1,210.6h.3c0,.1.6.4.6.4.5.3,1,.5,1.4.7,1.2.6,2.3,1.1,3.2,1.4,2.6,1.1,4.2,1.4,4.8,1.1-.3-1.4-1.6-2.8-3.8-4.2-.2-.5-.2-.7,0-.5,1.4.9,2.5,1.7,3.3,2.6,1,1.1,1.3,2,1,2.7-.5.9-1.4,1.2-2.8,1-.6,0-1.2-.2-1.9-.5l-.9-.3c-.2,0-.5-.2-.9-.3,0,0,.3.3.6.6.2.1.3.3.5.4l.5.4c.9.7,1.6,1.4,2.2,2,1.9,1.8,2.9,2.9,2.8,3.4,0,.3-.2.6-.5.9-.3.3-.5.5-.8.6-.4.2-.8.2-1.4.1-1.8-.3-3.9-1.3-6.3-3.1-2.7-2.1-3.8-4-3.2-5.7.2-.6.6-1.2,1.3-1.7-.2-.2-.6-.4-1.2-.6-.1,0-.2,0-.3,0,0-.2,0-.6.4-1,.3-.4.6-.6.8-.5h.3ZM141.8,221.5c-1.8-2.1-3.6-3.8-5.1-5.1l-1-.8-1-.8c-.8-.7-1.6-1.3-2.2-1.8-.1,0-.3.1-.4.2-.2.1-.3.3-.4.4-.8,1.3.4,3,3.6,5.1,1.2.8,2.4,1.5,3.7,2.1,1.2.6,2,.9,2.5.9h.3Z"/>
    <path class="st0" d="M135.8,203.7c-.2,0-.4-.2-.6-.3-.7-.3-1.3-.6-1.8-.8-.7-.3-1.5-.6-2.2-.9h-.3c0,0-.1,0-.1,0,0-.2.2-.6.4-.9.3-.3.5-.6.8-.7.2,0,.3,0,.5,0,.8.4,2,.9,3.4,1.6l.8.4.8.4c.6.3,1.1.5,1.4.6,2,.9,3.2,1,3.6.4,0-1.2-1.2-2.6-3.8-4.2-.1-.5-.1-.6,0-.5,3.3,1.9,4.8,3.6,4.3,5.2-.3.9-.9,1.4-1.7,1.6-.7,0-1.8-.2-3.3-.8-.1,0-.3-.1-.4-.2v.5c.2.6.3,1.2.4,1.8,0,.6,0,.9,0,1.1,0,0,0,0,.1,0l5,2.2s0,0,0,.3c0,.2-.1.4-.2.6-.1.2-.2.4-.3.6-.1.1-.3.2-.4.1-1.1-.5-3-1.3-5.6-2.4-3-1.2-4.8-1.9-5.6-2.2h-.1s0,0,0,0c0-.3.2-.6.5-1,.3-.4.6-.6.8-.5.6.2,1.5.6,2.8,1.1.6.3,1.2.5,1.9.8,0-.6,0-1.1-.1-1.7,0-.4-.1-.7-.2-.9,0-.4-.3-.7-.6-1Z"/>
    <path class="st0" d="M141.9,197.1c.8.7,1.2,1.2,1.2,1.4,0,.4-.2.8-.5,1.3-.4.5-.8.7-1.2.5-.5-.2-2-.8-4.4-1.9-1.2-.6-2.2-1-2.9-1.3-1.1-.5-2-.9-2.8-1.2h-.2s-.2,0-.2,0c-.1,0-.2,0-.2-.1,0-.2.1-.5.4-.8.2-.3.4-.5.6-.6h.1c0,0,0-.1,0-.1,0,0,.1,0,.2,0,1.4.6,2.9,1.2,4.7,2.1.3-.3.7-.6,1.2-.8.1,0,.3,0,.4,0-.4-.3-.7-.6-1.2-.9-1-.7-2.2-1.5-3.4-2.4-1-.7-1.9-1.3-2.7-1.8l-.5-.2c0,0,0-.4.4-.9.4-.5.6-.8.8-.7.3.1.6.3,1.1.5l.6.3.6.3c1.1.6,2,1,2.8,1.3,2.4,1,4.1,1.5,5.3,1.4,0-1.2-1.2-2.6-3.8-4.2-.1-.5-.1-.6,0-.5,3.5,1.9,4.9,3.7,4.3,5.2-.3.9-1.1,1.2-2.3,1.1-.5,0-1-.1-1.7-.3l-.8-.3-.8-.3c.2.1.4.3.7.6l.4.3.5.4c.8.6,1.4,1.2,1.9,1.6.2.2.5.4.7.6.2.2.4.3.5.4h0ZM137.6,196.6c.1,0,.3.1.4.2.4.2.8.4,1.3.6l.5.3.5.2c.7.4,1.2.6,1.3.6,0-.1-.1-.3-.3-.6,0,0-.1,0-.2-.1h-.1c0-.1-.1-.2-.1-.2-.3-.3-.8-.7-1.4-1-.6-.3-1-.5-1.5-.6-.1,0-.3,0-.5,0h0c0,.2,0,.4,0,.6Z"/>
    <path class="st0" d="M179,175.2c-.2,0-.4-.2-.6-.3-.7-.3-1.3-.6-1.8-.8-.7-.3-1.5-.6-2.2-.9h-.3c0,0-.1,0-.1,0,0-.2.2-.6.4-.9.3-.3.5-.6.8-.7.2,0,.3,0,.5,0,.8.4,2,.9,3.4,1.6l.8.4.8.4c.6.3,1.1.5,1.4.6,2,.9,3.2,1,3.6.4,0-1.2-1.2-2.6-3.8-4.2-.1-.5-.1-.6,0-.5,3.3,1.9,4.8,3.6,4.3,5.2-.3.9-.9,1.4-1.7,1.6-.7,0-1.8-.2-3.3-.8-.1,0-.3-.1-.4-.2v.5c.2.6.3,1.2.4,1.8,0,.6,0,.9,0,1.1,0,0,0,0,.1,0l5,2.2s0,0,0,.3c0,.2-.1.4-.2.6-.1.2-.2.4-.3.6-.1.1-.3.2-.4.1-1.1-.5-3-1.3-5.6-2.4-3-1.2-4.8-1.9-5.6-2.2h-.1s0,0,0,0c0-.3.2-.6.5-1,.3-.4.6-.6.8-.5.6.2,1.5.6,2.8,1.1.6.3,1.2.5,1.9.8,0-.6,0-1.1-.1-1.7,0-.4-.1-.7-.2-.9,0-.4-.3-.7-.6-1Z"/>
    <path class="st0" d="M175.3,159.1h.3c0,.1.6.4.6.4.5.3,1,.5,1.4.7,1.2.6,2.3,1.1,3.2,1.4,2.6,1.1,4.2,1.4,4.8,1.1-.3-1.4-1.6-2.8-3.8-4.2-.2-.5-.2-.7,0-.5,1.4.9,2.5,1.7,3.3,2.6,1,1.1,1.3,2,1,2.7-.5.9-1.4,1.2-2.8,1-.6,0-1.2-.2-1.9-.5l-.9-.3c-.2,0-.5-.2-.9-.3,0,0,.3.3.6.6.2.1.3.3.5.4l.5.4c.9.7,1.6,1.4,2.2,2,1.9,1.8,2.9,2.9,2.8,3.4,0,.3-.2.6-.5.9-.3.3-.5.5-.8.6-.4.2-.8.2-1.4.1-1.8-.3-3.9-1.3-6.3-3.1-2.7-2.1-3.8-4-3.2-5.7.2-.6.6-1.2,1.3-1.7-.2-.2-.6-.4-1.2-.6-.1,0-.2,0-.3,0,0-.2,0-.6.4-1,.3-.4.6-.6.8-.5h.3ZM185,169.9c-1.8-2.1-3.6-3.8-5.1-5.1l-1-.8-1-.8c-.8-.7-1.6-1.3-2.2-1.8-.1,0-.3.1-.4.2-.2.1-.3.3-.4.4-.8,1.3.4,3,3.6,5.1,1.2.8,2.4,1.5,3.7,2.1,1.2.6,2,.9,2.5.9h.3Z"/>
    <path class="st0" d="M175.2,132.2h0c1,.5,1.8.8,2.3,1l-.5-.5-.5-.5c-.5-.4-.8-.8-1.1-1.1-.8-.9-1.4-1.8-1.5-2.6,0-.2,0-.5.1-.8l.2-.3.2-.3c.9-1,2.6-1,5.1.2.9.4,1.8.9,2.7,1.5.7.5,1.3.9,1.5,1.2.5-1.7-.1-3.2-2-4.4-.1,0-.2-.2-.2-.3s0-.2.2-.2c1.2.7,2,1.4,2.4,2.1.5.9.5,1.9,0,3.2.8.8,1.4,1.6,1.7,2.4.4,1.1.4,2.1-.2,2.9-.1.2-.3.4-.5.5-.2.2-.5.4-.7.4l1.7.8c.1,0,0,.4,0,1-.2.6-.4.9-.6.8-.7-.3-1.5-.7-2.4-1.2l-1.3-.6-1.3-.6c-1-.5-1.9-.9-2.7-1.3-.6-.3-1.1-.5-1.5-.7l-.5-.2c-1-.4-1.9-.8-2.5-1l-.9-.4c-.7-.4-1.4-.7-2-1.1-.8-.5-1.6-1-2.3-1.4-1.7-1.2-2.9-2.4-3.4-3.6-.6-1.3-.4-2.4.5-3.3.7-.7,2,0,4,2.4.7.8,1.4,1.8,2.1,2.8.6.9,1,1.5,1.2,2,.5.2,1,.5,1.5.8l.6.3.6.3ZM167.5,127.8c.5.5,1.1.9,1.8,1.4.5.3,1,.7,1.7,1.1-.6-1.1-1.4-2.3-2.4-3.4-1.2-1.4-2.3-2.2-3.1-2.4,0,1.1.7,2.2,2.1,3.4ZM183.5,135.8c0-.1,0-.3-.1-.4-.1-.4-.2-.7-.3-1-.2-1-.2-1.8,0-2.4-1-.9-2.3-1.8-4-2.7-1.9-1.1-3.4-1.6-4.5-1.6,0,.9.7,2.1,2.3,3.7s1.1,1.1,1.9,1.8l.5.4.4.4c.3.3.5.5.7.6l3.3,1.6c0,0,0-.2-.1-.3ZM183.5,132.3c0,.4,0,.9,0,1.3,0,.6.3,1.3.6,1.9,0,.2.3.3.6.3s.5,0,.7-.1c0-.9-.6-2-1.8-3.3Z"/>
    <path class="st0" d="M183.5,124c.8,0,1.3-.3,1.5-.8.5-1.1.5-2.3-.1-3.8-.6-1.6-1.6-2.8-3.1-3.8,0,0-.2-.1-.2-.3,0-.1,0-.2.2-.3,1.7,1,2.9,2.3,3.7,4,.7,1.6.9,3.1.5,4.5-.2.7-.6,1.3-1.2,1.7-.7.5-1.6.7-2.7.5-2-.3-4-1.3-5.9-3-2.2-1.9-2.9-3.7-2.1-5.5.2-.4.4-.8.7-1,.4-.3.7-.5,1.1-.5,1.1,0,2.1.3,3,.8.8.5,1.3,1,1.4,1.7,0,.4.1.9.2,1.6,0,.4.1,1,.2,1.7.1,1.3.2,2,.3,2.1.8.4,1.6.6,2.4.5ZM176.8,120.5c.4.4.9.8,1.5,1.3l.8.6.8.5c0-1.5-.2-2.9-.3-4-.1-1.2-.9-1.8-2.3-2.1-.5,0-1,0-1.4,0-.4,0-.6.2-.6.3,0,1.1.5,2.2,1.6,3.3Z"/>
    <path class="st0" d="M178.1,114c-1.6-.5-2.9-.7-4.1-.7-.3.3-.7.6-1.2.9-.5.3-.9.4-1.2.4,0,0,0-.2.1-.5,0,0,.1-.2.2-.3,0,0,0-.2.1-.2h0c0-.1,0-.2,0-.2l.2-.2c.1-.2.3-.3.4-.3,0,0,.2-.1.4-.3.1-.2.3-.4.4-.7.3-.7.5-1.5.4-2.4,0-.2.2-.5.5-.9.3-.5.6-.7.8-.6.7.3,1.5.7,2.5,1.3l1.3.7,1.3.7c2.2,1.2,4,2.1,5.2,2.4,0-.6-.3-1.4-1-2.4-.8-1.1-1.7-2-2.7-2.7-.1-.5-.1-.6,0-.5,1.5.8,2.6,1.8,3.5,3.1.9,1.2,1.2,2.3.8,3-.1.3-.3.6-.6.8-.3.3-.6.4-.9.4-1-.3-2.6-1-4.9-2.2-.8-.4-1.6-.8-2.6-1.3l-.6-.3-.5-.3c-.4-.2-.6-.3-.8-.4,0,.1,0,.5-.3,1-.2.5-.4.9-.6,1.4,2.3,0,4.8.8,7.5,2.4.4.3.6.5.6.6s-.2.2-.6-.1c-1.1-.6-2.3-1.2-3.7-1.7Z"/>
    <path class="st0" d="M179,101.7c-.2,0-.4-.2-.6-.3-.7-.3-1.3-.6-1.8-.8-.7-.3-1.5-.6-2.2-.9h-.3c0,0-.1,0-.1,0,0-.2.2-.6.4-.9.3-.3.5-.6.8-.7.2,0,.3,0,.5,0,.8.4,2,.9,3.4,1.6l.8.4.8.4c.6.3,1.1.5,1.4.6,2,.9,3.2,1,3.6.4,0-1.2-1.2-2.6-3.8-4.2-.1-.5-.1-.6,0-.5,3.3,1.9,4.8,3.6,4.3,5.2-.3.9-.9,1.4-1.7,1.6-.7,0-1.8-.2-3.3-.8-.1,0-.3-.1-.4-.2v.5c.2.6.3,1.2.4,1.8,0,.6,0,.9,0,1.1,0,0,0,0,.1,0l5,2.2s0,0,0,.3c0,.2-.1.4-.2.6-.1.2-.2.4-.3.6-.1.1-.3.2-.4.1-1.1-.5-3-1.3-5.6-2.4-3-1.2-4.8-1.9-5.6-2.2h-.1s0,0,0,0c0-.3.2-.6.5-1,.3-.4.6-.6.8-.5.6.2,1.5.6,2.8,1.1.6.3,1.2.5,1.9.8,0-.6,0-1.1-.1-1.7,0-.4-.1-.7-.2-.9,0-.4-.3-.7-.6-1Z"/>
    <path class="st0" d="M179.2,87.9c2.3.7,4.1,1.9,5.4,3.5,0-.7,0-1.4-.4-2.1-.5-.9-1.3-1.7-2.4-2.4,0,0-.2-.1-.2-.3,0-.1,0-.2.2-.3,2.7,1.6,3.8,3.5,3.3,5.8.3.4.6,1,.8,1.7.2.6.3,1.1.3,1.5,0,.6-.3,1.1-.8,1.5-.5.4-1.1.6-1.8.6-1.5,0-3.3-.6-5.6-1.9-1.8-.7-3-1.8-3.7-3.5-.7-1.6-.6-2.9.4-3.9.8-.8,2.3-.8,4.5-.1ZM177.6,91.9c.6.6,1.3,1.3,2.1,2,1,.3,1.9.2,2.8,0,.8-.3,1.4-.7,1.8-1.4-1-1.2-2.6-2.2-4.6-3-1.9-.7-3.3-.9-4.1-.5-.4.1-.6.5-.5,1,0,.5.3.9.6,1.3.2-.2.4-.4.6-.5.1,0,.2,0,.3,0,.1.2.5.6,1,1.2ZM184.8,93c-.6,1.2-1.6,2-3,2.3.7.4,1.4.6,2.2.5.8,0,1.3-.2,1.5-.6.2-.5,0-1.2-.7-2.2Z"/>
    <path class="st0" d="M185,81.1c-.6-1.8-1.7-3.2-3.2-4.2,0,0-.2-.1-.2-.3,0-.1,0-.2.2-.3,1.7,1,3,2.4,3.7,4.2.8,1.8.9,3.4.2,4.7-.5,1-1.3,1.5-2.5,1.7-1.9.2-4-.6-6.3-2.3-2.4-1.9-3.4-3.8-3-5.8,0-.5.3-.9.7-1.3.4-.4.9-.6,1.4-.6.2,0,.5.1.9.3.4.1.7.3,1,.5.7.6.9,1.1.6,1.7,0,0,0,0,0,.1v.2c-.3.2-.3.2-.4.2,0,0,0,0,0,0h0c0-.5-.3-.8-.9-1.1-.6-.2-1.3-.4-2.1-.4.1,1.9,1.4,3.6,3.6,5.1,2.4,1.6,4.5,2,6.5,1.4.4-.8.3-2.1-.2-3.6Z"/>
    <path class="st0" d="M179.7,66.5c-.3-.1-.6-.3-.9-.4,2.2,2.3,4.5,4.1,7,5.5.1,0,0,.3-.3.8-.4.4-.7.6-1,.6-.6,0-1.9-.5-3.9-1.4-.6-.3-1.4-.7-2.3-1.2l-.5-.3-.5-.2-.8-.4c3.5,3.4,6.7,5.9,9.7,7.4.1,0,0,.4-.4.9-.4.5-.7.7-.9.6-.2,0-.6-.3-1-.5h-.3c0-.1-.3-.3-.3-.3l-.8-.4c-1.3-.6-2.5-1.2-3.4-1.6-2.9-1.3-4.6-2.1-5.1-2.1,0,0-.1,0,0-.3,0-.1.2-.3.3-.5.1-.2.3-.4.4-.5.1-.2.3-.2.3-.2,1.3.5,3.1,1.3,5.6,2.5-.4-.3-.9-.8-1.7-1.4l-1.7-1.4c-1.4-1.2-2.5-2.1-3.3-2.9,0,0,0-.2.1-.4,0,0,0-.1.1-.2h0c0,0,0-.1,0-.1.5-.6,1.1-.7,1.8-.4.6.2,1.5.6,2.8,1.2l1.5.6c.6.2,1,.4,1.4.6-.5-.4-1-.9-1.7-1.5l-1.8-1.5c-1.4-1.2-2.6-2.3-3.4-3.1,0,0,0-.3.3-.6.3-.4.4-.5.5-.5.7.4,1.3.7,1.9,1,.6.3,1.1.5,1.7.8.3,0,.5.2.8.3,2.1.8,3.9,1.2,5.4,1.2,0-1.2-1.2-2.6-3.8-4.2-.1-.5-.1-.6,0-.5,1.6.9,2.7,1.7,3.5,2.6.9,1,1.2,1.8.8,2.6-.5.9-1.6,1.2-3.3.9-.6,0-1.4-.3-2.2-.5-.3,0-.6-.2-.9-.3Z"/>
    <path class="st0" d="M185.5,57.9c.6,1.1.9,2.1.6,2.9-.3.9-.9,1.4-1.7,1.6-.7,0-1.8-.2-3.3-.8-.4-.2-1.3-.6-2.7-1.2-.7-.3-1.3-.6-1.8-.8-.7-.3-1.5-.6-2.2-.9h-.3c0,0-.1,0-.1,0,0-.2.2-.6.4-.9.3-.3.5-.6.8-.7.2,0,.3,0,.5,0,.8.4,2,.9,3.4,1.6l.8.4.8.4c.2,0,.4.2.6.3-.2-.1-.3-.3-.5-.4-.4-.4-.6-.8-.5-1.2.1-.6.5-1.1,1.2-1.5.5-.1,1.3,0,2.6.6-.6-.8-1.3-1.5-2.2-2.1,0,0-.2-.1-.2-.3,0-.1,0-.2.2-.3,1.8,1.2,3,2.4,3.7,3.5ZM185,60.7c0,0,.1,0,.2,0h0c0-.2,0-.2,0-.3,0-.2,0-.5-.2-.8h0c-.1,0-.2,0-.3-.1h-.1c0-.1-.1-.3-.1-.3-.3-.4-.8-.7-1.4-1.1-.6-.3-1-.5-1.5-.6-.1,0-.3,0-.5,0h0c0,.3,0,.7.3,1,.2.3.5.6.8.9.4.3.8.6,1.1.8.5.3.9.4,1.4.5h.2s0,0,0,0Z"/>
    <path class="st0" d="M165.2,38.3c.6-.7,1.2-1,1.9-1.1.6,0,1.3,0,2,.3.5.2,1.1.4,1.9.8,1.5.8,3.1,1.8,4.9,3.1.7.5,1.4,1.1,2.3,1.8l2.2,1.8,1.8,1.5c.7.6,1.3,1.1,1.8,1.4l.6.4.6.4c0,0,.2,0,.3.1.2,0,.3,0,.3,0,0,.2,0,.4-.2.6l-.2.3-.2.3c-.3.4-.6.5-.9.4-.3-.1-.7-.4-1-.6-.5-.3-1-.8-1.7-1.3l-1.7-1.4-2.2-1.8c-.8-.6-1.6-1.2-2.2-1.7-1.7-1.2-3.2-2.3-4.6-3.1-1.6-.9-2.9-1.5-4-1.6-.6,0-1.1,0-1.5.1,0,0-.1.1-.1.2-.4,1.3-.3,2.9.3,4.8.5,1.8,1.4,3.5,2.5,4.9,1.3,1.5,2.7,2.3,4,2.3.9,0,1.7-.3,2.6-.9.6-.4,1.2-1.1,1.9-2,0,0,0,0,0-.1v-.2c.3-.1.3-.2.4-.2,0,0,0,0,0,.1h0c0,0,0,.2,0,.2-.3.6-.8,1.2-1.3,1.8-.7.9-1.5,1.5-2.2,2-.9.6-1.9.8-2.8.8-1.5-.2-2.8-1-4-2.6-1.1-1.4-1.9-3.1-2.4-5.1-.5-2-.5-3.6,0-4.8.3-.8.6-1.4,1.2-1.9ZM186.4,49.6h.1c.1-.3.2-.3.2-.2,0,.2.2.4.5.4,0,0,.2,0,.4,0h1.2c.3,0,.6.1.8.2h0c0,.4-.3.7-.5,1.1h-.1c0,.1-.1.3-.1.3-.1.1-.2.2-.3.2,0,0-.2,0-.3,0h-.1s-.1,0-.1,0h-.3s-.3,0-.3,0h-.3s-.3,0-.3,0c-.2,0-.4,0-.5-.1-.4-.1-.6-.4-.6-.8s0-.3.2-.4v-.2c.1,0,.3-.1.3-.1,0,0,0,0,0-.1Z"/>
  </g>
</svg>