<?xml version="1.0" encoding="utf-8"?>
<!-- Generator: Adobe Illustrator 28.0.0, SVG Export Plug-In . SVG Version: 6.00 Build 0)  -->
<svg version="1.1" id="_Обложка_web" xmlns="http://www.w3.org/2000/svg" xmlns:xlink="http://www.w3.org/1999/xlink"
	 x="0px" y="0px" viewBox="0 0 198.4 368.5" style="enable-background:new 0 0 198.4 368.5;" xml:space="preserve">
<style type="text/css">
	.st0{fill:#FAF6C9;}
	.st1{fill:#010101;}
	.st2{display:none;fill:none;stroke:#000000;stroke-width:0.5;stroke-miterlimit:10;}
</style>
<rect id="_Фон" y="0" class="st0" width="198.4" height="368.5"/>
<g>
	<path class="st1" d="M34.5,87.9c-0.7,0.6-1.6,1.5-2.6,2.5l-0.6,0.5l-0.5,0.5c-0.4,0.4-0.8,0.8-1.1,1.1c-1.5,1.5-2.4,2.4-2.5,2.6
		c1.1,1.9,2.2,3.7,3.5,5.2c1.5,1.8,2.8,2.7,4.1,3c0,0,0.1,0,0.4,0.3c0.2,0.2,0.4,0.3,0.5,0.4c0.4,0.4,0.5,0.6,0.1,0.5
		c-1.1,0.1-2.4-0.5-4.1-1.9c-2-1.7-3.9-4-5.5-6.9c0,0,0,0.1-0.1,0.3v0.2c-0.1,0-0.2,0.2-0.2,0.2c-0.2,0.4-0.3,0.6-0.4,0.9
		c-0.4,0.9-0.8,1.7-1.1,2.4c-1,2.1-1.3,3.2-1.1,3.3c-0.4,0-0.7-0.4-1.1-0.8c-0.4-0.4-0.5-0.9-0.4-1.2c3.3-7,6.7-14,10.2-21.1
		c-0.4,0.1-0.8,0.3-1.5,0.6c-0.9,0.4-1.8,0.7-2.7,1.1c-2.6,1.1-4.9,2.3-7,3.4c-6.1,3.3-8.3,5.6-6.6,7c0,0,0,0-0.2,0.1
		c-0.2,0-0.4,0-0.5,0c-0.2,0-0.5,0-0.7,0c-0.3,0-0.4-0.2-0.4-0.4c-0.6-2,2.5-4.8,9.3-8.4c2.2-1.1,4.7-2.4,7.3-3.4
		c1-0.4,1.9-0.8,2.6-1.1c0.7-0.3,1.1-0.4,1.2-0.4c0.2,0,0.4,0.1,0.8,0.4c0.4,0.3,0.5,0.4,0.5,0.6l-1.7,3.3c-0.7,1.4-1.3,2.6-1.7,3.4
		c-1.3,2.6-2.6,5.1-3.6,7.4c2-1.8,4.1-3.9,6.4-6.4c2.9-3.3,5.2-6.2,6.8-8.9c0.2,0,0.4,0,0.5,0.3c0.3,0.2,0.4,0.4,0.4,0.7
		c0,1.5-2.3,4.5-6.9,8.9L34.5,87.9z"/>
	<path class="st1" d="M42.1,91.4v0.3c-0.1,0-0.4,0.5-0.4,0.5c-0.3,0.4-0.4,0.9-0.6,1.2c-0.5,1.1-1,2-1.2,2.8c-1,2.3-1.2,3.7-1,4.2
		c1.2-0.3,2.5-1.4,3.7-3.3c0.4-0.2,0.6-0.2,0.4,0c-0.8,1.2-1.5,2.2-2.3,2.9c-1,0.9-1.8,1.1-2.4,0.9c-0.8-0.4-1.1-1.2-0.9-2.5
		c0-0.5,0.2-1.1,0.4-1.7l0.3-0.8c0-0.2,0.2-0.4,0.3-0.8c0,0-0.3,0.3-0.5,0.5c-0.1,0.2-0.3,0.3-0.4,0.4l-0.4,0.4
		c-0.6,0.8-1.2,1.4-1.8,1.9c-1.6,1.7-2.6,2.6-3,2.5c-0.3,0-0.5-0.2-0.8-0.4c-0.3-0.3-0.4-0.4-0.5-0.7C31,99.5,31,99.2,31,98.7
		c0.3-1.6,1.1-3.4,2.7-5.6c1.9-2.4,3.5-3.3,5-2.8c0.5,0.2,1.1,0.5,1.5,1.1c0.2-0.2,0.4-0.5,0.5-1.1c0-0.1,0-0.2,0-0.3
		c0.2,0,0.5,0,0.9,0.4c0.4,0.3,0.5,0.5,0.4,0.7L42.1,91.4L42.1,91.4z M32.5,100c1.9-1.6,3.3-3.2,4.5-4.5l0.7-0.9l0.7-0.9
		c0.6-0.7,1.1-1.4,1.6-1.9c0-0.1-0.1-0.3-0.2-0.4c-0.1-0.2-0.3-0.3-0.4-0.4c-1.1-0.7-2.6,0.4-4.5,3.2c-0.7,1.1-1.3,2.1-1.9,3.3
		c-0.5,1.1-0.8,1.8-0.8,2.2v0.3L32.5,100z"/>
	<path class="st1" d="M47.6,96.6c0.3-0.5,0.4-0.9,0.5-1c-1.1,0.1-2.3,0.5-3.4,1.3c-0.2,0.1-0.4,0.3-0.4,0.4L44,98l-0.4,0.9
		c-0.4,0.7-0.5,1.3-0.7,1.9c0,0.1,0,0.2,0,0.2c-0.3,0-0.6-0.1-1-0.4c-0.4-0.3-0.6-0.5-0.5-0.7c0.5-1.1,1.2-2.8,2.2-4.8
		c1-2,1.7-3.5,2.2-4.7v-0.4c0.4,0,0.6,0.2,1.1,0.4c0.4,0.3,0.5,0.4,0.4,0.6c-0.1,0.3-0.3,0.7-0.5,1.1l-0.4,0.7L46,93.7l-0.2,0.4
		l1.1-0.8l1.1-0.8c0.8-0.6,1.5-1.3,1.9-1.9c0,0,0.3,0,0.7,0.3c0.4,0.3,0.5,0.6,0.5,1.1c0,0.3-0.2,0.5-0.4,0.8
		c-0.3,0.3-0.4,0.4-0.6,0.3c-0.4-0.4-0.6-0.4-0.8-0.4v0.1c-0.1,0-0.4,0.1-0.4,0.1c-0.2,0.1-0.3,0.2-0.4,0.4
		c-0.4,0.3-0.9,0.5-1.3,0.9c-0.6,0.4-1.3,0.9-2,1.3v0.1c0.4-0.2,0.7-0.4,1.1-0.4c1.1-0.4,2.1-0.5,3.1-0.4c0.2,0,0.4,0.3,0.7,0.5
		c0.3,0.4,0.4,0.5,0.3,0.7l-0.4,0.8c-0.7,1.1-1.1,2.5-1.1,3.8c1.1,0,2.3-1.1,3.7-3.3c0.4-0.1,0.5-0.1,0.4,0
		c-0.8,1.4-1.5,2.4-2.3,3.1c-0.9,0.8-1.6,1.1-2.3,0.7c-0.8-0.4-1.1-1.1-1.1-2C47.4,98.1,47.5,97.3,47.6,96.6L47.6,96.6z"/>
	<path class="st1" d="M61.4,92.2l-0.3,0.5l-0.3,0.5c-0.5,1-0.9,1.8-1.1,2.5c-0.9,2.1-1.3,3.6-1.2,4.7c1.1,0,2.3-1.1,3.7-3.3
		c0.4-0.1,0.5-0.1,0.4,0c-1.7,3.1-3.3,4.3-4.6,3.8c-0.8-0.3-1.1-1-1-2c0-0.4,0.1-0.9,0.3-1.5l0.3-0.7l0.3-0.7
		c-0.1,0.2-0.3,0.4-0.5,0.6L57,96.9l-0.4,0.4c-0.5,0.7-1.1,1.2-1.4,1.7c-1.1,1.3-1.9,2-2.2,2c-0.4,0-0.7-0.2-1.1-0.4
		c-0.4-0.4-0.6-0.7-0.4-1.1c0.2-0.4,0.7-1.8,1.7-3.9c0.5-1.1,0.9-1.9,1.1-2.6c0.4-1,0.8-1.8,1.1-2.5v-0.2v-0.2c0-0.1,0-0.2,0.1-0.2
		c0.2,0,0.4,0.1,0.7,0.4c0.3,0.2,0.4,0.4,0.5,0.5v0.1h0.1c0,0,0,0.1,0,0.2c-0.6,1.5-1.3,3.2-2.3,5.2c-0.2,0.4-0.4,0.7-0.5,1.1
		l-0.3,0.4l-0.2,0.4c-0.4,0.6-0.5,1.1-0.5,1.1c0.5-0.1,1.8-1.4,3.5-3.9c0.6-0.9,1.3-1.9,2.1-3c0.6-0.9,1.1-1.7,1.6-2.4l0.2-0.4
		c0,0,0.4,0,0.8,0.4c0.4,0.4,0.7,0.5,0.6,0.7c-0.1,0.3-0.3,0.5-0.4,1V92.2z"/>
	<path class="st1" d="M63.6,98.7c0,0.7,0.3,1.1,0.7,1.3c1,0.4,2,0.4,3.3-0.1c1.4-0.5,2.5-1.4,3.3-2.7c0,0,0.1-0.2,0.3-0.2
		c0.1,0,0.2,0,0.3,0.2c-0.9,1.5-2,2.6-3.5,3.3c-1.4,0.6-2.7,0.8-4,0.4c-0.6-0.2-1.1-0.5-1.5-1.1c-0.4-0.6-0.6-1.4-0.4-2.4
		c0.3-1.8,1.1-3.5,2.6-5.2c1.7-1.9,3.3-2.6,4.8-1.9c0.4,0.2,0.7,0.4,0.9,0.6c0.3,0.4,0.4,0.6,0.4,1c0,1-0.3,1.9-0.7,2.6
		c-0.4,0.7-0.9,1.1-1.5,1.2c-0.4,0-0.8,0.1-1.4,0.2c-0.4,0-0.9,0.1-1.5,0.2c-1.1,0.1-1.8,0.2-1.9,0.3C63.6,97.2,63.4,97.9,63.6,98.7
		L63.6,98.7z M66.6,92.8c-0.4,0.4-0.7,0.8-1.1,1.3L65,94.8l-0.4,0.7c1.3,0,2.6-0.2,3.5-0.3c1.1-0.1,1.6-0.8,1.9-2c0-0.4,0-0.9,0-1.2
		c0-0.4-0.2-0.5-0.3-0.5C68.7,91.4,67.7,91.9,66.6,92.8L66.6,92.8z"/>
	<path class="st1" d="M13.8,124.6l-0.3,0.4c-0.3,0.4-0.4,0.7-0.6,1.1c-0.5,0.9-1,1.7-1.3,2.4c-1,2.1-1.4,3.9-1.3,5.4
		c1.1,0,2.3-1.1,3.7-3.3c0.4-0.1,0.5-0.1,0.4,0c-0.8,1.4-1.6,2.4-2.4,3.1c-0.9,0.8-1.7,1-2.3,0.5c-0.9-0.6-1.1-1.9-0.5-3.9
		c0.2-0.7,0.5-1.5,0.9-2.3c0.3-0.6,0.6-1.1,0.9-1.8c-1.7,1.7-3.8,4.4-6.3,8.1c0,0,0,0-0.3,0c-0.2,0-0.4-0.1-0.5-0.2
		c-0.2-0.1-0.4-0.2-0.5-0.3c-0.1-0.1-0.2-0.3-0.1-0.4c0.4-1,1.1-2.6,2.1-4.9c1.1-2.6,1.7-4.2,1.9-4.9v-0.1l0,0
		c0.3,0,0.5,0.2,0.9,0.4s0.5,0.5,0.4,0.7c-0.2,0.5-0.5,1.3-1,2.5c-0.4,1-0.8,1.9-1.2,2.8c0.2-0.3,0.4-0.5,0.8-0.9l0.8-1
		c0.7-0.9,1.2-1.5,1.7-1.9c1.3-1.5,2.4-2.4,3.2-2.7c0.1,0,0.3,0,0.5,0.3c0.3,0.2,0.4,0.4,0.4,0.4l-0.3,0.4L13.8,124.6z"/>
	<path class="st1" d="M22.9,125.6l-0.3,0.5l-0.3,0.5c-0.5,1-0.9,1.8-1.1,2.5c-0.9,2.1-1.3,3.6-1.2,4.7c1.1,0,2.3-1.1,3.7-3.3
		c0.4-0.1,0.5-0.1,0.4,0c-1.7,3.1-3.3,4.3-4.6,3.8c-0.8-0.3-1.1-1-1-2c0-0.4,0.1-0.9,0.3-1.5l0.3-0.7l0.3-0.7
		c-0.1,0.2-0.3,0.4-0.5,0.6l-0.3,0.4l-0.4,0.4c-0.5,0.7-1.1,1.2-1.4,1.7c-1.1,1.3-1.9,2-2.2,2c-0.4,0-0.7-0.2-1.1-0.4
		c-0.4-0.4-0.6-0.7-0.4-1.1c0.2-0.4,0.4-1,0.7-1.5c0.3-0.5,0.6-1.1,0.9-1.9v-0.2v-0.2c0-0.1,0-0.2,0.1-0.2c0.2,0,0.4,0.1,0.7,0.4
		c0.3,0.2,0.4,0.4,0.5,0.5v0.1H16c0,0,0,0.1,0,0.2c-0.4,0.6-0.8,1.2-1.1,1.9c-0.3,0.6-0.4,1-0.4,1.1c0.5-0.1,1.8-1.4,3.5-3.9
		c0.6-0.9,1.3-1.9,2.1-3c0.6-0.9,1.1-1.7,1.6-2.4l0.2-0.4c0,0,0.4,0,0.8,0.4c0.4,0.4,0.7,0.5,0.6,0.7c-0.1,0.3-0.3,0.5-0.4,1V125.6z
		"/>
	<path class="st1" d="M33.9,124.8v0.3c-0.1,0-0.4,0.5-0.4,0.5c-0.3,0.4-0.4,0.9-0.6,1.2c-0.5,1.1-1,2-1.2,2.8c-1,2.3-1.2,3.7-1,4.2
		c1.2-0.3,2.5-1.4,3.7-3.3c0.4-0.2,0.6-0.2,0.4,0c-0.8,1.2-1.5,2.2-2.3,2.9c-1,0.9-1.8,1.1-2.4,0.9c-0.8-0.4-1.1-1.2-0.9-2.5
		c0-0.5,0.2-1.1,0.4-1.7l0.3-0.8c0-0.2,0.2-0.4,0.3-0.8c0,0-0.3,0.3-0.5,0.5c-0.1,0.2-0.3,0.3-0.4,0.4l-0.4,0.4
		c-0.6,0.8-1.2,1.4-1.8,1.9c-1.6,1.7-2.6,2.6-3,2.5c-0.3,0-0.5-0.2-0.8-0.4c-0.3-0.3-0.4-0.4-0.5-0.7c-0.2-0.4-0.2-0.7-0.1-1.2
		c0.3-1.6,1.1-3.4,2.7-5.6c1.9-2.4,3.5-3.3,5-2.8c0.5,0.2,1.1,0.5,1.5,1.1c0.2-0.2,0.4-0.5,0.5-1.1c0-0.1,0-0.2,0-0.3
		c0.2,0,0.5,0,0.9,0.4c0.4,0.3,0.5,0.5,0.4,0.7L33.9,124.8L33.9,124.8z M24.3,133.3c1.9-1.6,3.3-3.2,4.5-4.5l0.7-0.9l0.7-0.9
		c0.6-0.7,1.1-1.4,1.6-1.9c0-0.1-0.1-0.3-0.2-0.4c-0.1-0.2-0.3-0.3-0.4-0.4c-1.1-0.7-2.6,0.4-4.5,3.2c-0.7,1.1-1.3,2.1-1.9,3.3
		c-0.5,1.1-0.8,1.8-0.8,2.2v0.3H24.3z"/>
	<path class="st1" d="M40,128c0-0.2,0.2-0.4,0.3-0.5c0.3-0.6,0.5-1.1,0.7-1.6c0.3-0.6,0.5-1.3,0.8-1.9v-0.3v-0.1
		c0.2,0,0.5,0.2,0.8,0.4c0.3,0.3,0.5,0.4,0.6,0.7c0,0.2,0,0.3,0,0.4c-0.4,0.7-0.8,1.8-1.4,3l-0.4,0.7l-0.4,0.7
		c-0.3,0.5-0.4,1-0.5,1.2c-0.8,1.8-0.9,2.8-0.4,3.2c1.1,0,2.3-1.1,3.7-3.3c0.4-0.1,0.5-0.1,0.4,0c-1.7,2.9-3.2,4.2-4.6,3.8
		c-0.8-0.3-1.2-0.8-1.4-1.5c0-0.6,0.2-1.6,0.7-2.9c0-0.1,0.1-0.3,0.2-0.4h-0.4c-0.5,0.2-1.1,0.3-1.6,0.4c-0.5,0-0.8,0-1,0
		c0,0,0,0,0,0.1l-1.9,4.4c0,0,0,0-0.3,0c-0.2,0-0.4-0.1-0.5-0.2c-0.2-0.1-0.4-0.2-0.5-0.3c-0.1-0.1-0.2-0.3-0.1-0.4
		c0.4-1,1.1-2.6,2.1-4.9c1.1-2.6,1.7-4.2,1.9-4.9v-0.1l0,0c0.3,0,0.5,0.2,0.9,0.4c0.4,0.3,0.5,0.5,0.4,0.7c-0.2,0.5-0.5,1.3-1,2.5
		c-0.3,0.5-0.4,1.1-0.7,1.7c0.5,0,1,0,1.5-0.1c0.4,0,0.6-0.1,0.8-0.2c0.4,0,0.6-0.3,0.9-0.5L40,128z"/>
	<path class="st1" d="M45.8,133.4c-0.6,0.7-1.1,1.1-1.2,1.1c-0.4,0-0.7-0.2-1.1-0.4c-0.4-0.4-0.6-0.7-0.4-1.1
		c0.2-0.4,0.7-1.8,1.7-3.9c0.5-1.1,0.9-1.9,1.1-2.6c0.4-1,0.8-1.8,1.1-2.5v-0.2v-0.2c0-0.1,0-0.2,0.1-0.2c0.2,0,0.4,0.1,0.7,0.4
		c0.3,0.2,0.4,0.4,0.5,0.5v0.1h0.1c0,0,0,0.1,0,0.2c-0.5,1.2-1.1,2.6-1.9,4.1c0.3,0.3,0.5,0.6,0.7,1.1c0,0.1,0,0.3,0,0.4
		c0.3-0.4,0.5-0.6,0.8-1.1c0.6-0.9,1.3-1.9,2.1-3c0.6-0.9,1.1-1.7,1.6-2.4l0.2-0.4c0,0,0.4,0,0.8,0.4c0.4,0.4,0.7,0.5,0.6,0.7
		c-0.1,0.3-0.3,0.5-0.4,1l-0.3,0.5l-0.3,0.5c-0.5,1-0.9,1.8-1.1,2.5c-0.9,2.1-1.3,3.6-1.2,4.7c1.1,0,2.3-1.1,3.7-3.3
		c0.4-0.1,0.5-0.1,0.4,0c-1.7,3.1-3.3,4.3-4.6,3.8c-0.8-0.3-1.1-1-1-2c0-0.4,0.1-0.9,0.3-1.5l0.3-0.7l0.3-0.7
		c-0.1,0.2-0.3,0.4-0.5,0.6l-0.3,0.4l-0.4,0.4c-0.5,0.7-1.1,1.2-1.4,1.7c-0.2,0.2-0.4,0.4-0.5,0.6c-0.2,0.2-0.3,0.4-0.4,0.4l0,0
		L45.8,133.4z M46.2,129.6c0,0.1-0.1,0.3-0.2,0.4c-0.2,0.4-0.4,0.7-0.5,1.1l-0.3,0.4l-0.2,0.4c-0.4,0.6-0.5,1.1-0.5,1.1
		c0.1,0,0.3-0.1,0.5-0.3c0,0,0-0.1,0.1-0.2v-0.1c0.1,0,0.2-0.1,0.2-0.1c0.3-0.3,0.6-0.7,0.9-1.2c0.3-0.5,0.4-0.9,0.5-1.3
		c0-0.1,0-0.3,0-0.4l0,0C46.6,129.5,46.4,129.5,46.2,129.6L46.2,129.6z"/>
	<path class="st1" d="M67.7,127.8c0-0.2,0.2-0.4,0.3-0.5c0.3-0.6,0.5-1.1,0.7-1.6c0.3-0.6,0.5-1.3,0.8-1.9v-0.3v-0.1
		c0.2,0,0.5,0.2,0.8,0.4c0.3,0.3,0.5,0.4,0.6,0.7c0,0.2,0,0.3,0,0.4c-0.4,0.7-0.8,1.8-1.4,3l-0.4,0.7l-0.4,0.7
		c-0.3,0.5-0.4,1-0.5,1.2c-0.8,1.8-0.9,2.8-0.4,3.2c1.1,0,2.3-1.1,3.7-3.3c0.4-0.1,0.5-0.1,0.4,0c-1.7,2.9-3.2,4.2-4.6,3.8
		c-0.8-0.3-1.2-0.8-1.4-1.5c0-0.6,0.2-1.6,0.7-2.9c0-0.1,0.1-0.3,0.2-0.4h-0.4c-0.5,0.2-1.1,0.3-1.6,0.4c-0.5,0-0.8,0-1,0
		c0,0,0,0,0,0.1l-1.9,4.4c0,0,0,0-0.3,0c-0.2,0-0.4-0.1-0.5-0.2c-0.2-0.1-0.4-0.2-0.5-0.3c-0.1-0.1-0.2-0.3-0.1-0.4
		c0.4-1,1.1-2.6,2.1-4.9c1.1-2.6,1.7-4.2,1.9-4.9v-0.1l0,0c0.3,0,0.5,0.2,0.9,0.4s0.5,0.5,0.4,0.7c-0.2,0.5-0.5,1.3-1,2.5
		c-0.3,0.5-0.4,1.1-0.7,1.7c0.5,0,1,0,1.5-0.1c0.4,0,0.6-0.1,0.8-0.2c0.4,0,0.6-0.3,0.9-0.5L67.7,127.8z"/>
	<path class="st1" d="M9,156.2L9,156.2c-0.4,0.9-0.7,1.6-0.9,2l0.4-0.4l0.4-0.4c0.4-0.4,0.7-0.7,1-1c0.8-0.7,1.6-1.2,2.3-1.3
		c0.2,0,0.4,0,0.7,0.1l0.3,0.2l0.3,0.2c0.9,0.8,0.9,2.3-0.2,4.5c-0.4,0.8-0.8,1.6-1.3,2.4c-0.4,0.6-0.8,1.1-1.1,1.3
		c1.5,0.4,2.8-0.1,3.9-1.8c0-0.1,0.2-0.2,0.3-0.2c0.1,0,0.2,0,0.2,0.2c-0.6,1.1-1.2,1.8-1.9,2.1c-0.8,0.4-1.7,0.4-2.8,0
		c-0.7,0.7-1.4,1.2-2.1,1.5c-1,0.4-1.9,0.4-2.6-0.2c-0.2-0.1-0.4-0.3-0.4-0.4c-0.2-0.2-0.4-0.4-0.4-0.6l-0.7,1.5c0,0.1-0.4,0-0.9,0
		c-0.5-0.2-0.8-0.4-0.7-0.5c0.3-0.6,0.6-1.3,1.1-2.1l0.5-1.1l0.5-1.1c0.4-0.9,0.8-1.7,1.1-2.4c0.3-0.5,0.4-1,0.6-1.3l0.2-0.4
		c0.4-0.9,0.7-1.7,0.9-2.2l0.4-0.8c0.4-0.6,0.6-1.2,1-1.8c0.4-0.7,0.9-1.4,1.2-2c1.1-1.5,2.1-2.6,3.2-3c1.1-0.5,2.1-0.4,2.9,0.4
		c0.6,0.6,0,1.8-2.1,3.5c-0.7,0.6-1.6,1.2-2.5,1.9c-0.8,0.5-1.3,0.9-1.8,1.1c-0.2,0.4-0.4,0.9-0.7,1.3l-0.3,0.5l-0.3,0.5L9,156.2z
		 M12.9,149.4c-0.4,0.4-0.8,1-1.2,1.6c-0.3,0.4-0.6,0.9-1,1.5c1-0.5,2-1.2,3-2.1c1.2-1.1,1.9-2,2.1-2.7
		C14.8,147.7,13.9,148.3,12.9,149.4L12.9,149.4z M5.8,163.5c0.1,0,0.3,0,0.4-0.1c0.4-0.1,0.6-0.2,0.9-0.3c0.9-0.2,1.6-0.2,2.1,0
		c0.8-0.9,1.6-2,2.4-3.5c1-1.7,1.4-3,1.4-4c-0.8,0-1.9,0.6-3.3,2s-1,1-1.6,1.7l-0.4,0.4l-0.4,0.4c-0.3,0.3-0.4,0.4-0.5,0.6l-1.4,2.9
		C5.5,163.7,5.7,163.7,5.8,163.5L5.8,163.5z M8.9,163.5c-0.4,0-0.8,0-1.1,0c-0.5,0-1.1,0.3-1.7,0.5c-0.2,0-0.3,0.3-0.3,0.5
		c0,0.3,0,0.4,0.1,0.6C6.7,165.2,7.7,164.7,8.9,163.5L8.9,163.5z"/>
	<path class="st1" d="M16.2,163.5c0,0.7,0.3,1.1,0.7,1.3c1,0.4,2,0.4,3.3-0.1c1.4-0.5,2.5-1.4,3.3-2.7c0,0,0.1-0.2,0.3-0.2
		c0.1,0,0.2,0,0.3,0.2c-0.9,1.5-2,2.6-3.5,3.3c-1.4,0.6-2.7,0.8-4,0.4c-0.6-0.2-1.1-0.5-1.5-1.1c-0.4-0.6-0.6-1.4-0.4-2.4
		c0.3-1.8,1.1-3.5,2.6-5.2c1.7-1.9,3.3-2.6,4.8-1.9c0.4,0.2,0.7,0.4,0.9,0.6c0.3,0.4,0.4,0.6,0.4,1c0,1-0.3,1.9-0.7,2.6
		c-0.4,0.7-0.9,1.1-1.5,1.2c-0.4,0-0.8,0.1-1.4,0.2c-0.4,0-0.9,0.1-1.5,0.2c-1.1,0.1-1.8,0.2-1.9,0.3
		C16.2,162,16.1,162.7,16.2,163.5L16.2,163.5z M19.3,157.6c-0.4,0.4-0.7,0.8-1.1,1.3l-0.5,0.7l-0.4,0.7c1.3,0,2.6-0.2,3.5-0.3
		c1.1-0.1,1.6-0.8,1.9-2c0-0.4,0-0.9,0-1.2c0-0.4-0.2-0.5-0.3-0.5C21.4,156.3,20.4,156.7,19.3,157.6L19.3,157.6z"/>
	<path class="st1" d="M25.1,158.8c0.4-1.4,0.6-2.6,0.6-3.6c-0.3-0.3-0.5-0.6-0.8-1.1c-0.3-0.4-0.4-0.8-0.4-1.1c0,0,0.2,0,0.4,0.1
		c0,0,0.2,0.1,0.3,0.2c0,0,0.2,0,0.2,0.1l0,0c0.1,0,0.2,0,0.2,0l0.2,0.2c0.2,0.1,0.3,0.3,0.3,0.4c0,0,0.1,0.2,0.3,0.4
		c0.2,0.1,0.4,0.3,0.6,0.4c0.6,0.3,1.3,0.4,2.1,0.4c0.2,0,0.4,0.2,0.8,0.4c0.4,0.3,0.6,0.5,0.5,0.7c-0.3,0.6-0.6,1.3-1.1,2.2
		l-0.6,1.1l-0.6,1.1c-1.1,1.9-1.9,3.5-2.1,4.6c0.5,0,1.2-0.3,2.1-0.9c1-0.7,1.8-1.5,2.4-2.4c0.4-0.1,0.5-0.1,0.4,0
		c-0.7,1.3-1.6,2.3-2.7,3.1c-1.1,0.8-2,1.1-2.6,0.7c-0.3-0.1-0.5-0.3-0.7-0.5c-0.3-0.3-0.4-0.5-0.4-0.8c0.3-0.9,0.9-2.3,1.9-4.3
		c0.4-0.7,0.7-1.4,1.1-2.3l0.3-0.5l0.3-0.4c0.2-0.4,0.3-0.5,0.4-0.7c-0.1,0-0.4,0-0.9-0.3c-0.4-0.2-0.8-0.4-1.2-0.5
		c0,2-0.7,4.2-2.1,6.6c-0.3,0.4-0.4,0.5-0.5,0.5s-0.2-0.2,0.1-0.5C24.2,161,24.7,159.9,25.1,158.8L25.1,158.8z"/>
	<path class="st1" d="M35.9,159.5c0-0.2,0.2-0.4,0.3-0.5c0.3-0.6,0.5-1.1,0.7-1.6c0.3-0.6,0.5-1.3,0.8-1.9v-0.3v-0.1
		c0.2,0,0.5,0.2,0.8,0.4c0.3,0.3,0.5,0.4,0.6,0.7c0,0.2,0,0.3,0,0.4c-0.4,0.7-0.8,1.8-1.4,3l-0.4,0.7l-0.4,0.7
		c-0.3,0.5-0.4,1-0.5,1.2c-0.8,1.8-0.9,2.8-0.4,3.2c1.1,0,2.3-1.1,3.7-3.3c0.4-0.1,0.5-0.1,0.4,0c-1.7,2.9-3.2,4.2-4.6,3.8
		c-0.8-0.3-1.2-0.8-1.4-1.5c0-0.6,0.2-1.6,0.7-2.9c0-0.1,0.1-0.3,0.2-0.4h-0.4c-0.5,0.2-1.1,0.3-1.6,0.4c-0.5,0-0.8,0-1,0
		c0,0,0,0,0,0.1l-1.9,4.4c0,0,0,0-0.3,0c-0.2,0-0.4-0.1-0.5-0.2c-0.2-0.1-0.4-0.2-0.5-0.3c-0.1-0.1-0.2-0.3-0.1-0.4
		c0.4-1,1.1-2.6,2.1-4.9c1.1-2.6,1.7-4.2,1.9-4.9v-0.1l0,0c0.3,0,0.5,0.2,0.9,0.4c0.4,0.3,0.5,0.5,0.4,0.7c-0.2,0.5-0.5,1.3-1,2.5
		c-0.3,0.5-0.4,1.1-0.7,1.7c0.5,0,1,0,1.5-0.1c0.4,0,0.6-0.1,0.8-0.2c0.4,0,0.6-0.3,0.9-0.5L35.9,159.5z"/>
	<path class="st1" d="M48,159.7c-0.6,2-1.7,3.6-3.1,4.8c0.6,0,1.2,0,1.9-0.4c0.8-0.4,1.5-1.1,2.1-2.1c0,0,0.1-0.2,0.3-0.2
		c0.1,0,0.2,0,0.3,0.2c-1.4,2.4-3.1,3.3-5.1,2.9c-0.4,0.3-0.9,0.5-1.5,0.7c-0.5,0.2-1,0.3-1.3,0.3c-0.5,0-1-0.3-1.3-0.7
		c-0.4-0.4-0.5-1-0.5-1.6c0-1.3,0.5-2.9,1.7-4.9c0.6-1.6,1.6-2.6,3.1-3.3c1.4-0.6,2.6-0.5,3.4,0.4C48.6,156.5,48.6,157.8,48,159.7
		L48,159.7z M44.5,158.3c-0.5,0.5-1.1,1.1-1.8,1.9c-0.3,0.9-0.2,1.7,0,2.5c0.3,0.7,0.6,1.2,1.2,1.6c1.1-0.9,1.9-2.3,2.6-4.1
		c0.6-1.7,0.8-2.9,0.4-3.6c-0.1-0.4-0.4-0.5-0.9-0.4c-0.4,0-0.8,0.3-1.1,0.5c0.2,0.2,0.4,0.4,0.4,0.5c0,0.1,0,0.2,0,0.3
		C45.3,157.5,45,157.9,44.5,158.3L44.5,158.3z M43.6,164.7c-1.1-0.5-1.8-1.4-2-2.6c-0.4,0.6-0.5,1.2-0.4,1.9c0,0.7,0.2,1.1,0.5,1.3
		C42.1,165.5,42.7,165.3,43.6,164.7z"/>
	<path class="st1" d="M54,164.8c1.6-0.5,2.8-1.5,3.7-2.8c0,0,0.1-0.2,0.3-0.2c0.1,0,0.2,0,0.3,0.2c-0.9,1.5-2.1,2.6-3.7,3.3
		c-1.6,0.7-3,0.8-4.1,0.2c-0.9-0.4-1.3-1.1-1.5-2.2c-0.2-1.7,0.5-3.5,2-5.6c1.7-2.1,3.3-3,5.1-2.6c0.4,0,0.8,0.3,1.1,0.6
		c0.4,0.4,0.5,0.8,0.5,1.2c0,0.2-0.1,0.4-0.3,0.8c-0.1,0.4-0.3,0.6-0.4,0.9c-0.5,0.6-1,0.8-1.5,0.5c0,0,0,0-0.1,0h-0.2
		c-0.2-0.3-0.2-0.3-0.2-0.4l0,0l0,0c0.4,0,0.7-0.3,1-0.8c0.2-0.5,0.4-1.1,0.4-1.9c-1.7,0.1-3.2,1.2-4.5,3.2c-1.4,2.1-1.8,4-1.2,5.7
		c0.7,0.4,1.9,0.3,3.2-0.2H54z"/>
	<path class="st1" d="M66.9,160.2c0.1-0.3,0.3-0.5,0.4-0.8c-2,1.9-3.6,4-4.8,6.2c0,0.1-0.3,0-0.7-0.3c-0.4-0.4-0.5-0.6-0.5-0.9
		c0-0.5,0.4-1.7,1.2-3.4c0.3-0.5,0.6-1.2,1.1-2l0.3-0.4l0.2-0.4l0.4-0.7c-3,3.1-5.2,5.9-6.5,8.5c0,0.1-0.4,0-0.8-0.4
		c-0.4-0.4-0.6-0.6-0.5-0.8c0-0.2,0.3-0.5,0.4-0.9v-0.3c0.1,0,0.3-0.3,0.3-0.3l0.4-0.7c0.5-1.1,1.1-2.2,1.4-3
		c1.1-2.6,1.9-4.1,1.9-4.5c0,0,0-0.1,0.3,0c0.1,0,0.3,0.2,0.4,0.3s0.4,0.3,0.4,0.4c0.2,0.1,0.2,0.3,0.2,0.3
		c-0.4,1.1-1.1,2.7-2.2,4.9c0.3-0.4,0.7-0.8,1.2-1.5l1.2-1.5c1.1-1.2,1.9-2.2,2.6-2.9c0,0,0.2,0,0.4,0.1c0,0,0.1,0,0.2,0.1l0,0h0.1
		c0.5,0.4,0.6,1,0.4,1.6c-0.2,0.5-0.5,1.3-1.1,2.5l-0.5,1.3c-0.2,0.5-0.4,0.9-0.5,1.2c0.4-0.4,0.8-0.9,1.3-1.5l1.3-1.6
		c1.1-1.2,2-2.3,2.7-3c0,0,0.3,0,0.5,0.3c0.4,0.3,0.4,0.4,0.4,0.4c-0.4,0.6-0.6,1.1-0.9,1.7c-0.3,0.5-0.4,1-0.7,1.5
		c0,0.3-0.2,0.4-0.3,0.7c-0.7,1.9-1.1,3.4-1.1,4.8c1.1,0,2.3-1.1,3.7-3.3c0.4-0.1,0.5-0.1,0.4,0c-0.8,1.4-1.5,2.4-2.3,3.1
		c-0.9,0.8-1.6,1.1-2.3,0.7c-0.8-0.4-1.1-1.4-0.8-2.9c0-0.5,0.3-1.2,0.4-1.9c0-0.3,0.2-0.5,0.3-0.8L66.9,160.2z"/>
	<path class="st1" d="M74.5,165.3c-1,0.5-1.9,0.8-2.6,0.5c-0.8-0.3-1.2-0.8-1.4-1.5c0-0.6,0.2-1.6,0.7-2.9c0.2-0.4,0.5-1.1,1.1-2.4
		c0.3-0.6,0.5-1.1,0.7-1.6c0.3-0.6,0.5-1.3,0.8-1.9v-0.3v-0.1c0.2,0,0.5,0.2,0.8,0.4c0.3,0.3,0.5,0.4,0.6,0.7c0,0.2,0,0.3,0,0.4
		c-0.4,0.7-0.8,1.8-1.4,3l-0.4,0.7l-0.4,0.7c0,0.2-0.2,0.4-0.3,0.5c0.1-0.2,0.3-0.3,0.4-0.4c0.4-0.4,0.7-0.5,1.1-0.4
		c0.5,0.1,1,0.4,1.3,1.1c0.1,0.4,0,1.1-0.5,2.3c0.7-0.5,1.3-1.1,1.9-1.9c0,0,0.1-0.2,0.3-0.2c0.1,0,0.2,0,0.3,0.2
		c-1.1,1.6-2.1,2.6-3.1,3.3L74.5,165.3z M72,164.8c0,0,0,0.1,0,0.2l0,0c0.2,0,0.2,0,0.3,0c0.2,0,0.4,0,0.7-0.2l0,0
		c0-0.1,0-0.2,0.1-0.3v-0.1c0.1,0,0.3-0.1,0.3-0.1c0.4-0.3,0.6-0.7,1-1.2c0.3-0.5,0.4-0.9,0.5-1.3c0-0.1,0-0.3,0-0.4l0,0
		c-0.3,0-0.6,0-0.9,0.3c-0.3,0.2-0.5,0.4-0.8,0.7c-0.3,0.4-0.5,0.7-0.7,1c-0.3,0.4-0.4,0.8-0.4,1.2L72,164.8L72,164.8L72,164.8z"/>
	<path class="st1" d="M91.7,147.4c0.6,0.5,0.9,1.1,1,1.7c0,0.5,0,1.1-0.3,1.8c-0.2,0.4-0.4,1-0.7,1.7c-0.7,1.3-1.6,2.7-2.7,4.3
		c-0.4,0.6-1,1.2-1.6,2l-1.6,1.9l-1.3,1.6c-0.5,0.6-1,1.1-1.2,1.6l-0.4,0.5l-0.4,0.5c0,0,0,0.2-0.1,0.3c0,0.2,0,0.3,0,0.3
		c-0.2,0-0.4,0-0.5-0.2l-0.3-0.2l-0.3-0.2c-0.4-0.3-0.4-0.5-0.4-0.8c0.1-0.3,0.4-0.6,0.5-0.9c0.3-0.4,0.7-0.9,1.1-1.5l1.2-1.5
		l1.6-1.9c0.5-0.7,1.1-1.4,1.5-1.9c1.1-1.5,2-2.8,2.7-4.1c0.8-1.4,1.3-2.6,1.4-3.5c0-0.5,0-1-0.1-1.3c0,0-0.1-0.1-0.2-0.1
		c-1.1-0.4-2.6-0.3-4.2,0.3c-1.6,0.4-3.1,1.2-4.3,2.2c-1.3,1.1-2,2.4-2,3.5c0,0.8,0.3,1.5,0.8,2.3c0.4,0.5,1,1.1,1.8,1.7
		c0,0,0,0,0.1,0h0.2c0.1,0.3,0.2,0.3,0.2,0.4c0,0,0,0-0.1,0l0,0h-0.2c-0.5-0.3-1.1-0.7-1.6-1.1c-0.8-0.6-1.3-1.3-1.8-1.9
		c-0.5-0.8-0.7-1.7-0.7-2.5c0.2-1.3,0.9-2.5,2.3-3.5c1.2-1,2.7-1.7,4.5-2.1s3.2-0.4,4.2,0c0.7,0.3,1.2,0.5,1.7,1.1V147.4z
		 M81.8,166.1L81.8,166.1c0.3,0.2,0.3,0.3,0.2,0.3c-0.2,0-0.4,0.2-0.4,0.4c0,0,0,0.2,0,0.4v1.1c0,0.3-0.1,0.5-0.2,0.7l0,0
		c-0.4,0-0.6-0.3-1-0.4v-0.1c-0.1,0-0.3-0.1-0.3-0.1c-0.1-0.1-0.2-0.2-0.2-0.3c0,0,0-0.2,0-0.3v-0.1v-0.1v-0.3V167v-0.3v-0.3
		c0-0.2,0-0.4,0.1-0.4c0.1-0.4,0.4-0.5,0.7-0.5c0.4,0,0.3,0,0.4,0.2h0.2c0,0.1,0.1,0.3,0.1,0.3s0,0,0.1,0L81.8,166.1z"/>
	<path class="st1" d="M81.9,124.6v0.3c-0.1,0-0.4,0.5-0.4,0.5c-0.3,0.4-0.4,0.9-0.6,1.2c-0.5,1.1-1,2-1.2,2.8c-1,2.3-1.2,3.7-1,4.2
		c1.2-0.3,2.5-1.4,3.7-3.3c0.4-0.2,0.6-0.2,0.4,0c-0.8,1.2-1.5,2.2-2.3,2.9c-1,0.9-1.8,1.1-2.4,0.9c-0.8-0.4-1.1-1.2-0.9-2.5
		c0-0.5,0.2-1.1,0.4-1.7l0.3-0.8c0-0.2,0.2-0.4,0.3-0.8c0,0-0.3,0.3-0.5,0.5c-0.1,0.2-0.3,0.3-0.4,0.4l-0.4,0.4
		c-0.6,0.8-1.2,1.4-1.8,1.9c-1.6,1.7-2.6,2.6-3,2.5c-0.3,0-0.5-0.2-0.8-0.4c-0.3-0.3-0.4-0.4-0.5-0.7c-0.2-0.4-0.2-0.7-0.1-1.2
		c0.3-1.6,1.1-3.4,2.7-5.6c1.9-2.4,3.5-3.3,5-2.8c0.5,0.2,1.1,0.5,1.5,1.1c0.2-0.2,0.4-0.5,0.5-1.1c0-0.1,0-0.2,0-0.3
		c0.2,0,0.5,0,0.9,0.4c0.4,0.3,0.5,0.5,0.4,0.7L81.9,124.6L81.9,124.6z M72.3,133.1c1.9-1.6,3.3-3.2,4.5-4.5l0.7-0.9l0.7-0.9
		c0.6-0.7,1.1-1.4,1.6-1.9c0-0.1-0.1-0.3-0.2-0.4c-0.1-0.2-0.3-0.3-0.4-0.4c-1.1-0.7-2.6,0.4-4.5,3.2c-0.7,1.1-1.3,2.1-1.9,3.3
		c-0.5,1.1-0.8,1.8-0.8,2.2v0.3L72.3,133.1z"/>
</g>
<g>
	<path class="st1" d="M143.2,212c0.5,0.3,0.6,0.5,0.6,0.6c-0.6,1.6-2.1,5.2-4.8,11c-3,6.4-5.2,11-6.8,13.8l0.8,0.4l0.7,0.4
		c0.6,0.2,1.1,0.4,1.6,0.5c1.1,0.2,2.2-0.2,3.2-0.9c0.1,0,0.4,0,0.8,0.4c0.5,0.4,0.6,0.6,0.6,0.6c-0.3,0.5-0.7,0.7-1.4,1
		c-0.6,0.2-1.1,0.3-1.8,0.2c-0.7,0-1.6-0.3-2.4-0.7c-0.3-0.1-0.6-0.4-1.2-0.6l-0.6-0.4l-0.6-0.4c-0.1,0.3-0.3,0.5-0.4,0.6l-0.4,0.7
		c-0.3,0.6-0.6,1-0.9,1.5c-0.8,1.1-1.6,1.9-2.4,2.2c-1,0.5-1.9,0.5-2.5,0c-0.7-0.5-1.1-0.9-1.2-1.5c0-0.2,0-0.5,0-0.7
		c0-0.3,0.1-0.5,0.2-0.7c0.6-1.4,1.6-2.3,2.9-2.9c1-0.4,2.1-0.5,3.2-0.2c1.9-3.4,3.5-6.8,5.1-10.1c-0.6,0.6-1,1.1-1.6,1.8
		c-0.7,0.7-1.5,1.4-2.1,2c-1.8,1.6-3.2,2.5-4.4,2.8c-0.6,0.1-1.1-0.2-1.7-0.9c-0.6-0.7-0.8-1.4-0.6-2c0-0.4,1.1-2.8,3.1-7
		c0.6-1.5,1.5-3.2,2.5-5.4c0.2-0.4,0.4-0.8,0.6-1.2l0.3-0.6l0.3-0.6c0.5-0.9,0.7-1.6,0.9-1.9c0.6-1.6,0.9-2.6,0.7-3.2v-0.2
		c0,0,0,0-0.1-0.1c-0.1,0-0.3-0.1-0.6-0.1c-0.5,0-1.1,0.2-1.9,0.5c-3.2,1.2-5.6,2.2-7.2,3c-2.7,1.2-4.9,2.4-6.9,3.7l-0.7,0.5
		l-0.7,0.5c-0.6,0.4-1.1,0.7-1.5,1.1c-1.1,0.9-1.9,1.8-2.4,2.8c-0.6,1-0.7,1.9-0.6,3c0,0.6,0.3,1,0.5,1.4c0.3,0.5,0.6,0.7,1.1,0.9
		c0.2,0,0.4,0.2,0.5,0.4l0,0l0.1,0.1l0,0c-1.2-0.4-2.1-1.1-2.7-2.4c-0.6-1.2-0.6-2.4,0-3.6c0.5-1.1,1.3-2.3,2.5-3.3
		c0.5-0.5,1-0.8,1.7-1.3c0.5-0.3,1-0.7,1.8-1.2c2.1-1.4,4.8-2.8,8.1-4.3c1.1-0.6,2.5-1.1,4.2-1.8l0.5-0.2l0.5-0.2
		c0.4-0.2,0.7-0.3,0.9-0.4c0.7-0.3,1.4-0.3,1.9-0.2c0.6,0.1,1.2,0.5,1.8,0.9c0.6,0.6,0.9,1.1,1,1.7c0,0.6,0,1.2-0.3,1.8
		c-0.6,1.5-1.9,4.2-3.7,8.1l-1.1,2.4l-1.1,2.4c-0.8,1.9-1.6,3.3-2,4.4c-0.1,0.4-0.3,0.8-0.3,1.6c1.5-0.2,3.5-1.6,6.1-3.9
		c1-0.9,1.9-1.9,2.9-2.9c0.8-0.9,1.5-1.6,1.9-2.1c0.4-0.7,1.1-2.4,2.3-5c1.1-2.4,2-4.5,2.9-6.6c0.1,0,0.4,0,0.8,0.3L143.2,212z
		 M130.2,237.3c-1.3,0-2.4,0.5-3.3,1.3c-0.9,0.9-1.4,2-1.3,3.3c0.4,0,0.8-0.2,1.5-0.6C128,240.7,129.1,239.4,130.2,237.3z"/>
	<path class="st1" d="M150,229.5c-0.1,0.1-0.3,0.3-0.5,0.6l-0.3,0.4l-0.4,0.5c-0.6,0.7-1.1,1.3-1.5,1.8c-1.2,1.4-2,2.1-2.3,2.1
		c-0.4,0-0.7-0.2-1.2-0.5c-0.5-0.4-0.6-0.7-0.5-1.1c0.2-0.5,0.8-2,2-4.6v-0.2v-0.2c0-0.1,0-0.2,0.1-0.2c0.2,0,0.5,0.1,0.7,0.4
		c0.3,0.2,0.5,0.4,0.6,0.6v0.1h0.1c0,0,0,0.1,0,0.2c-0.4,0.9-0.6,1.6-0.8,2l-0.3,0.5l-0.2,0.5c-0.4,0.6-0.6,1.1-0.6,1.2
		c0.6-0.1,1.9-1.5,3.7-4.1c0.6-0.9,1.4-2,2.2-3.1c0.5-0.7,0.9-1.4,1.3-2c0-0.1,0-0.2,0.1-0.4v-0.2v-0.2c0-0.1,0-0.2,0.1-0.2
		c0.2,0,0.5,0.1,0.7,0.4c0.3,0.2,0.5,0.4,0.6,0.6v0.1h0.1c0,0,0,0.1,0,0.2c-0.6,1.6-1.4,3.3-2.4,5.5c-0.2,0.4-0.4,0.7-0.6,1.2
		l-0.3,0.5l-0.2,0.5c-0.4,0.6-0.6,1.1-0.6,1.2c0.6-0.1,1.9-1.5,3.7-4.1c0.6-0.9,1.4-2,2.2-3.1c0.6-0.9,1.2-1.8,1.7-2.5l0.2-0.5
		c0,0,0.4,0,0.8,0.4c0.5,0.4,0.7,0.6,0.6,0.7c-0.1,0.3-0.3,0.6-0.5,1l-0.3,0.6l-0.3,0.6c-0.6,1-0.9,1.9-1.2,2.6
		c-0.9,2.2-1.4,3.8-1.3,4.9c1.1,0,2.4-1.1,3.9-3.5c0.5-0.1,0.6-0.1,0.5,0c-1.8,3.2-3.4,4.5-4.8,4c-0.8-0.3-1.1-1-1-2.1
		c0-0.5,0.1-0.9,0.3-1.6l0.3-0.7l0.3-0.7c-0.1,0.2-0.3,0.4-0.6,0.6l-0.3,0.4l-0.4,0.5c-0.6,0.7-1.1,1.3-1.5,1.8
		c-1.2,1.4-2,2.1-2.3,2.1c-0.4,0-0.7-0.2-1.2-0.5c-0.5-0.4-0.6-0.7-0.5-1.1c0.2-0.5,0.7-1.7,1.6-3.6L150,229.5z"/>
	<path class="st1" d="M161.2,232.2c0,0.7,0.3,1.2,0.7,1.4c1,0.5,2.1,0.5,3.5-0.1c1.5-0.6,2.6-1.5,3.5-2.9c0,0,0.1-0.2,0.3-0.2
		c0.1,0,0.2,0,0.3,0.2c-0.9,1.6-2.1,2.7-3.7,3.4c-1.5,0.6-2.9,0.8-4.2,0.5c-0.6-0.2-1.2-0.6-1.6-1.1c-0.5-0.6-0.6-1.5-0.5-2.5
		c0.3-1.9,1.2-3.7,2.8-5.5c1.8-2,3.4-2.7,5.1-1.9c0.4,0.2,0.7,0.4,0.9,0.6c0.3,0.4,0.5,0.6,0.5,1c0,1-0.3,1.9-0.7,2.8
		c-0.5,0.7-0.9,1.2-1.6,1.3c-0.4,0-0.8,0.1-1.5,0.2c-0.4,0-0.9,0.1-1.6,0.2c-1.2,0.1-1.9,0.2-1.9,0.3
		C161.2,230.7,161,231.4,161.2,232.2L161.2,232.2z M164.3,226c-0.4,0.4-0.7,0.8-1.2,1.4l-0.6,0.7l-0.5,0.7c1.4,0,2.7-0.2,3.7-0.3
		c1.1-0.1,1.7-0.8,1.9-2.1c0-0.5,0-0.9,0-1.3c0-0.4-0.2-0.6-0.3-0.6C166.4,224.6,165.4,225.1,164.3,226L164.3,226z"/>
	<path class="st1" d="M174.8,228c0-0.2,0.2-0.4,0.3-0.6c0.3-0.6,0.6-1.2,0.7-1.7c0.3-0.6,0.6-1.4,0.8-2v-0.3v-0.1
		c0.2,0,0.6,0.2,0.8,0.4c0.3,0.3,0.6,0.5,0.6,0.7c0,0.2,0,0.3,0,0.5c-0.4,0.7-0.8,1.9-1.5,3.1l-0.4,0.7l-0.4,0.7
		c-0.3,0.6-0.5,1-0.6,1.3c-0.8,1.9-0.9,3-0.4,3.3c1.1,0,2.4-1.1,3.9-3.5c0.5-0.1,0.6-0.1,0.5,0c-1.8,3.1-3.3,4.4-4.8,4
		c-0.8-0.3-1.3-0.8-1.5-1.6c0-0.6,0.2-1.7,0.7-3.1c0-0.1,0.1-0.3,0.2-0.4h-0.5c-0.6,0.2-1.1,0.3-1.7,0.4c-0.6,0-0.8,0-1,0
		c0,0,0,0,0,0.1l-2,4.6c0,0,0,0-0.3,0c-0.2,0-0.4-0.1-0.6-0.2s-0.4-0.2-0.6-0.3c-0.1-0.1-0.2-0.3-0.1-0.4c0.5-1,1.2-2.8,2.2-5.2
		c1.1-2.8,1.8-4.4,2-5.2v-0.1l0,0c0.3,0,0.6,0.2,0.9,0.5s0.6,0.6,0.5,0.7c-0.2,0.6-0.6,1.4-1,2.6c-0.3,0.6-0.5,1.1-0.7,1.8
		c0.6,0,1,0,1.6-0.1c0.4,0,0.6-0.1,0.8-0.2c0.4,0,0.6-0.3,0.9-0.6L174.8,228z"/>
	<path class="st1" d="M186.9,224c0,0,0-0.1,0.1-0.2l0.2-0.5c0,0,0.4,0,0.8,0.4c0.5,0.4,0.7,0.6,0.6,0.7c-0.1,0.3-0.3,0.6-0.5,1
		l-0.3,0.6l-0.3,0.6c-0.6,1-0.9,1.9-1.2,2.6c-0.9,2.2-1.4,3.8-1.3,4.9c1.1,0,2.4-1.1,3.9-3.5c0.5-0.1,0.6-0.1,0.5,0
		c-1.8,3.2-3.4,4.5-4.8,4c-0.8-0.3-1.1-1-1-2.1c0-0.5,0.1-0.9,0.3-1.6l0.3-0.7l0.3-0.7c-0.1,0.2-0.3,0.4-0.6,0.6l-0.3,0.4l-0.4,0.5
		c-0.6,0.7-1.1,1.3-1.5,1.8c-1.2,1.4-2,2.1-2.3,2.1c-0.4,0-0.7-0.2-1.2-0.5c-0.5-0.4-0.6-0.7-0.5-1.1c0.2-0.5,0.5-1,0.7-1.6
		c0.3-0.6,0.6-1.2,0.9-1.9v-0.2v-0.2c0-0.1,0-0.2,0.1-0.2c0.2,0,0.5,0.1,0.7,0.4c0.3,0.2,0.5,0.4,0.6,0.6v0.1h0.1c0,0,0,0.1,0,0.2
		c-0.5,0.6-0.8,1.3-1.1,1.9c-0.3,0.6-0.5,1-0.5,1.1c0.6-0.1,1.9-1.5,3.7-4.1c0.1-0.2,0.3-0.4,0.5-0.6c-0.6,0.4-1.2,0.5-1.6,0.3
		c-0.3-0.2-0.6-0.4-0.7-0.6c-0.3-0.3-0.4-0.6-0.3-0.8c0.3-1.2,1-2.3,2.2-3.2C184.5,223.4,185.8,223.3,186.9,224L186.9,224z
		 M184.8,227.1c0.2-0.3,0.4-0.6,0.6-0.8c0.5-0.6,0.9-1.3,1.3-1.9c-0.9,0.2-1.9,0.6-2.7,1.4c-0.9,0.7-1.5,1.8-1.9,2.9
		C182.9,228.5,183.9,228.1,184.8,227.1L184.8,227.1z"/>
	<path class="st1" d="M193.9,234c0,0.1-0.1,0.4-0.3,0.8c-0.2,0.4-0.4,0.6-0.5,0.8c-0.3,0.3-0.6,0.6-1.1,0.7c0,0,0,0-0.1,0
		c-0.1,0-0.1,0-0.2,0c-0.1,0-0.2,0-0.2,0h-0.1c-0.5,0.2-0.7,0.3-1,0.3c-0.3,0-0.3-0.1-0.3-0.4c0-0.3,0-0.2,0-0.2
		c0.8-0.2,1.4-0.5,1.9-0.9c0-0.1,0.2-0.3,0.4-0.6s0.2-0.5,0.2-0.6c0-0.2,0-0.5-0.1-0.9c0,0,0-0.2-0.1-0.3c0-0.1-0.1-0.2-0.1-0.3
		s0-0.2,0.1-0.4c0-0.2,0.2-0.2,0.2-0.2c0.1,0,0.3,0,0.6,0.1c0.3,0.1,0.4,0.2,0.5,0.3c0.2,0.6,0.4,1,0.4,1.4L193.9,234z"/>
	<path class="st1" d="M126.5,270.3c0.3-0.6,0.4-0.9,0.6-1c-1.2,0.1-2.4,0.6-3.6,1.4c-0.2,0.1-0.4,0.3-0.5,0.4l-0.3,0.6l-0.5,0.9
		c-0.4,0.7-0.6,1.4-0.7,2c0,0.1,0,0.2,0,0.2c-0.3,0-0.6-0.1-1-0.4c-0.5-0.3-0.6-0.6-0.6-0.7c0.6-1.2,1.3-3,2.3-5
		c1-2.1,1.8-3.7,2.3-4.9v-0.4c0.4,0,0.6,0.2,1.1,0.4c0.4,0.3,0.6,0.5,0.5,0.6c-0.1,0.3-0.3,0.7-0.6,1.2l-0.4,0.7l-0.4,0.8l-0.2,0.4
		l1.1-0.8l1.1-0.8c0.8-0.6,1.6-1.4,2-1.9c0,0,0.3,0,0.7,0.3c0.4,0.3,0.6,0.6,0.6,1.2c0,0.3-0.2,0.6-0.5,0.8
		c-0.3,0.3-0.5,0.4-0.6,0.3c-0.4-0.4-0.6-0.5-0.8-0.4v0.1c-0.1,0-0.4,0.1-0.4,0.1c-0.2,0.1-0.3,0.2-0.5,0.4
		c-0.5,0.3-0.9,0.6-1.4,0.9c-0.6,0.5-1.4,0.9-2.1,1.4v0.1c0.4-0.2,0.7-0.4,1.2-0.5c1.1-0.4,2.2-0.6,3.2-0.5c0.2,0,0.5,0.3,0.7,0.6
		c0.3,0.4,0.4,0.6,0.3,0.7l-0.5,0.8c-0.7,1.2-1.1,2.6-1.1,4c1.1,0,2.4-1.1,3.9-3.5c0.5-0.1,0.6-0.1,0.5,0c-0.8,1.5-1.6,2.5-2.4,3.2
		c-0.9,0.8-1.7,1.1-2.4,0.7c-0.8-0.5-1.2-1.2-1.1-2.1C126.3,271.8,126.4,270.9,126.5,270.3L126.5,270.3z"/>
	<path class="st1" d="M137,273.8c1.7-0.6,3-1.6,3.9-3c0,0,0.1-0.2,0.3-0.2c0.1,0,0.2,0,0.3,0.2c-0.9,1.6-2.2,2.8-3.9,3.4
		c-1.7,0.7-3.1,0.8-4.4,0.2c-0.9-0.5-1.4-1.2-1.6-2.3c-0.2-1.8,0.6-3.7,2.1-5.8c1.8-2.2,3.5-3.1,5.4-2.8c0.5,0,0.8,0.3,1.2,0.6
		c0.4,0.4,0.6,0.8,0.6,1.3c0,0.2-0.1,0.5-0.3,0.8c-0.1,0.4-0.3,0.6-0.5,0.9c-0.6,0.6-1,0.8-1.6,0.6c0,0,0,0-0.1,0h-0.2
		c-0.2-0.3-0.2-0.3-0.2-0.4l0,0l0,0c0.5,0,0.7-0.3,1-0.8c0.2-0.6,0.4-1.2,0.4-1.9c-1.8,0.1-3.3,1.3-4.7,3.3c-1.5,2.2-1.9,4.2-1.3,6
		c0.7,0.4,1.9,0.3,3.3-0.2H137z"/>
	<path class="st1" d="M150.4,268.9c0.1-0.3,0.3-0.6,0.4-0.8c-2.1,2-3.8,4.2-5.1,6.5c0,0.1-0.3,0-0.7-0.3c-0.4-0.4-0.6-0.6-0.6-0.9
		c0-0.6,0.5-1.8,1.3-3.6c0.3-0.6,0.6-1.3,1.1-2.1l0.3-0.5l0.2-0.5l0.4-0.7c-3.1,3.2-5.5,6.2-6.8,9c0,0.1-0.4,0-0.8-0.4
		c-0.5-0.4-0.6-0.6-0.6-0.8c0-0.2,0.3-0.6,0.5-0.9v-0.3c0.1,0,0.3-0.3,0.3-0.3l0.4-0.7c0.6-1.2,1.1-2.3,1.5-3.1
		c1.2-2.7,1.9-4.3,1.9-4.7c0,0,0-0.1,0.3,0c0.1,0,0.3,0.2,0.5,0.3s0.4,0.3,0.5,0.4c0.2,0.1,0.2,0.3,0.2,0.3
		c-0.5,1.2-1.2,2.9-2.3,5.2c0.3-0.4,0.7-0.8,1.3-1.6l1.3-1.6c1.1-1.3,1.9-2.3,2.7-3.1c0,0,0.2,0,0.4,0.1c0,0,0.1,0,0.2,0.1l0,0h0.1
		c0.6,0.5,0.6,1,0.4,1.7c-0.2,0.6-0.6,1.4-1.1,2.6l-0.6,1.4c-0.2,0.6-0.4,0.9-0.6,1.3c0.4-0.5,0.8-0.9,1.4-1.6l1.4-1.7
		c1.1-1.3,2.1-2.4,2.9-3.1c0,0,0.3,0,0.6,0.3c0.4,0.3,0.5,0.4,0.5,0.5c-0.4,0.6-0.6,1.2-0.9,1.8c-0.3,0.6-0.5,1-0.7,1.6
		c0,0.3-0.2,0.5-0.3,0.7c-0.7,1.9-1.1,3.6-1.1,5c1.1,0,2.4-1.1,3.9-3.5c0.5-0.1,0.6-0.1,0.5,0c-0.8,1.5-1.6,2.5-2.4,3.2
		c-0.9,0.8-1.7,1.1-2.4,0.7c-0.8-0.5-1.1-1.5-0.8-3.1c0-0.6,0.3-1.3,0.5-2c0-0.3,0.2-0.6,0.3-0.8L150.4,268.9z"/>
	<path class="st1" d="M165.6,264.8v0.3c-0.1,0-0.4,0.6-0.4,0.6c-0.3,0.5-0.5,0.9-0.6,1.3c-0.6,1.1-1,2.1-1.3,3c-1,2.4-1.3,3.9-1,4.4
		c1.3-0.3,2.6-1.5,3.9-3.5c0.5-0.2,0.6-0.2,0.5,0c-0.8,1.3-1.6,2.3-2.4,3.1c-1,0.9-1.9,1.2-2.5,0.9c-0.8-0.5-1.1-1.3-0.9-2.6
		c0-0.6,0.2-1.1,0.5-1.8l0.3-0.8c0-0.2,0.2-0.5,0.3-0.8c0,0-0.3,0.3-0.6,0.6c-0.1,0.2-0.3,0.3-0.4,0.5l-0.4,0.5
		c-0.6,0.8-1.3,1.5-1.9,2c-1.7,1.8-2.7,2.7-3.1,2.6c-0.3,0-0.6-0.2-0.8-0.5s-0.5-0.5-0.6-0.7c-0.2-0.4-0.2-0.7-0.1-1.3
		c0.3-1.7,1.2-3.6,2.9-5.8c1.9-2.5,3.7-3.5,5.3-3c0.6,0.2,1.1,0.6,1.6,1.2c0.2-0.2,0.4-0.6,0.6-1.1c0-0.1,0-0.2,0-0.3
		c0.2,0,0.6,0,0.9,0.4c0.4,0.3,0.6,0.6,0.5,0.7L165.6,264.8L165.6,264.8z M155.5,273.8c1.9-1.7,3.5-3.3,4.7-4.7l0.7-0.9l0.7-0.9
		c0.6-0.7,1.2-1.5,1.7-2c0-0.1-0.1-0.3-0.2-0.4c-0.1-0.2-0.3-0.3-0.4-0.4c-1.2-0.7-2.8,0.4-4.7,3.3c-0.7,1.1-1.4,2.2-1.9,3.4
		c-0.6,1.1-0.8,1.9-0.8,2.3v0.3H155.5z"/>
	<path class="st1" d="M175.6,268.9c0.1-0.3,0.3-0.6,0.4-0.8c-2.1,2-3.8,4.2-5.1,6.5c0,0.1-0.3,0-0.7-0.3c-0.4-0.4-0.6-0.6-0.6-0.9
		c0-0.6,0.5-1.8,1.3-3.6c0.3-0.6,0.6-1.3,1.1-2.1l0.3-0.5l0.2-0.5l0.4-0.7c-3.1,3.2-5.5,6.2-6.8,9c0,0.1-0.4,0-0.8-0.4
		c-0.5-0.4-0.6-0.6-0.6-0.8c0-0.2,0.3-0.6,0.5-0.9v-0.3c0.1,0,0.3-0.3,0.3-0.3l0.4-0.7c0.6-1.2,1.1-2.3,1.5-3.1
		c1.2-2.7,1.9-4.3,1.9-4.7c0,0,0-0.1,0.3,0c0.1,0,0.3,0.2,0.5,0.3s0.4,0.3,0.5,0.4c0.2,0.1,0.2,0.3,0.2,0.3
		c-0.5,1.2-1.2,2.9-2.3,5.2c0.3-0.4,0.7-0.8,1.3-1.6l1.3-1.6c1.1-1.3,1.9-2.3,2.7-3.1c0,0,0.2,0,0.4,0.1c0,0,0.1,0,0.2,0.1l0,0h0.1
		c0.6,0.5,0.6,1,0.4,1.7c-0.2,0.6-0.6,1.4-1.1,2.6l-0.6,1.4c-0.2,0.6-0.4,0.9-0.6,1.3c0.4-0.5,0.8-0.9,1.4-1.6l1.4-1.7
		c1.1-1.3,2.1-2.4,2.9-3.1c0,0,0.3,0,0.6,0.3c0.4,0.3,0.5,0.4,0.5,0.5c-0.4,0.6-0.6,1.2-0.9,1.8c-0.3,0.6-0.5,1-0.7,1.6
		c0,0.3-0.2,0.5-0.3,0.7c-0.7,1.9-1.1,3.6-1.1,5c1.1,0,2.4-1.1,3.9-3.5c0.5-0.1,0.6-0.1,0.5,0c-0.8,1.5-1.6,2.5-2.4,3.2
		c-0.9,0.8-1.7,1.1-2.4,0.7c-0.8-0.5-1.1-1.5-0.8-3.1c0-0.6,0.3-1.3,0.5-2c0-0.3,0.2-0.6,0.3-0.8L175.6,268.9z"/>
	<path class="st1" d="M189.3,265.7l-0.3,0.6l-0.3,0.6c-0.6,1-0.9,1.9-1.2,2.6c-0.9,2.2-1.4,3.8-1.3,4.9c1.1,0,2.4-1.1,3.9-3.5
		c0.5-0.1,0.6-0.1,0.5,0c-1.8,3.2-3.4,4.5-4.8,4c-0.8-0.3-1.1-1-1-2.1c0-0.5,0.1-0.9,0.3-1.6l0.3-0.7l0.3-0.7
		c-0.1,0.2-0.3,0.4-0.6,0.6l-0.3,0.4l-0.4,0.5c-0.6,0.7-1.1,1.3-1.5,1.8c-1.2,1.4-2,2.1-2.3,2.1c-0.4,0-0.7-0.2-1.2-0.5
		c-0.5-0.4-0.6-0.7-0.5-1.1c0.2-0.5,0.7-1.9,1.8-4.1c0.6-1.1,0.9-2,1.2-2.7c0.5-1,0.8-1.9,1.1-2.6v-0.2v-0.2c0-0.1,0-0.2,0.1-0.2
		c0.2,0,0.5,0.1,0.7,0.4c0.3,0.2,0.5,0.4,0.6,0.6v0.1h0.1c0,0,0,0.1,0,0.2c-0.6,1.6-1.4,3.3-2.4,5.5c-0.2,0.4-0.4,0.7-0.6,1.2
		l-0.3,0.5l-0.2,0.5c-0.4,0.6-0.6,1.1-0.6,1.2c0.6-0.1,1.9-1.5,3.7-4.1c0.6-0.9,1.4-2,2.2-3.1c0.6-0.9,1.2-1.8,1.7-2.5l0.2-0.5
		c0,0,0.4,0,0.8,0.4c0.5,0.4,0.7,0.6,0.6,0.7c-0.1,0.3-0.3,0.6-0.5,1L189.3,265.7z"/>
	<path class="st1" d="M195.1,274.2c0,0.1-0.1,0.4-0.3,0.8c-0.2,0.4-0.4,0.6-0.5,0.8c-0.3,0.3-0.6,0.6-1.1,0.7c0,0,0,0-0.1,0
		s-0.1,0-0.2,0c-0.1,0-0.2,0-0.2,0h-0.1c-0.5,0.2-0.7,0.3-1,0.3c-0.3,0-0.3-0.1-0.3-0.4s0-0.2,0-0.2c0.8-0.2,1.4-0.5,1.9-0.9
		c0-0.1,0.2-0.3,0.4-0.6c0.2-0.3,0.2-0.5,0.2-0.6c0-0.2,0-0.5-0.1-0.9c0,0,0-0.2-0.1-0.3c0-0.1-0.1-0.2-0.1-0.3s0-0.2,0.1-0.4
		c0-0.2,0.2-0.2,0.2-0.2c0.1,0,0.3,0,0.6,0.1s0.4,0.2,0.5,0.3c0.2,0.6,0.4,1,0.4,1.4L195.1,274.2z"/>
	<path class="st1" d="M161.1,305.2c0.1-0.3,0.3-0.6,0.4-0.8c-2.1,2-3.8,4.2-5.1,6.5c0,0.1-0.3,0-0.7-0.3c-0.4-0.4-0.6-0.6-0.6-0.9
		c0-0.6,0.5-1.8,1.3-3.6c0.3-0.6,0.6-1.3,1.1-2.1l0.3-0.5l0.2-0.5l0.4-0.7c-3.1,3.2-5.5,6.2-6.8,9c0,0.1-0.4,0-0.8-0.4
		c-0.5-0.4-0.6-0.6-0.6-0.8c0-0.2,0.3-0.6,0.5-0.9v-0.3c0.1,0,0.3-0.3,0.3-0.3l0.4-0.7c0.6-1.2,1.1-2.3,1.5-3.1
		c1.2-2.7,1.9-4.3,1.9-4.7c0,0,0-0.1,0.3,0c0.1,0,0.3,0.2,0.5,0.3c0.2,0.1,0.4,0.3,0.5,0.4c0.2,0.1,0.2,0.3,0.2,0.3
		c-0.5,1.2-1.2,2.9-2.3,5.2c0.3-0.4,0.7-0.8,1.3-1.6l1.3-1.6c1.1-1.3,1.9-2.3,2.7-3.1c0,0,0.2,0,0.4,0.1c0,0,0.1,0,0.2,0.1l0,0h0.1
		c0.6,0.5,0.6,1,0.4,1.7c-0.2,0.6-0.6,1.4-1.1,2.6l-0.6,1.4c-0.2,0.6-0.4,0.9-0.6,1.3c0.4-0.5,0.8-0.9,1.4-1.6l1.4-1.7
		c1.1-1.3,2.1-2.4,2.9-3.1c0,0,0.3,0,0.6,0.3c0.4,0.3,0.5,0.4,0.5,0.5c-0.4,0.6-0.6,1.2-0.9,1.8c-0.3,0.6-0.5,1-0.7,1.6
		c0,0.3-0.2,0.5-0.3,0.7c-0.7,1.9-1.1,3.6-1.1,5c1.1,0,2.4-1.1,3.9-3.5c0.5-0.1,0.6-0.1,0.5,0c-0.8,1.5-1.6,2.5-2.4,3.2
		c-0.9,0.8-1.7,1.1-2.4,0.7c-0.8-0.5-1.1-1.5-0.8-3.1c0-0.6,0.3-1.3,0.5-2c0-0.3,0.2-0.6,0.3-0.8L161.1,305.2z"/>
	<path class="st1" d="M167.4,310.2c-0.6,0.7-1.1,1.1-1.3,1.1c-0.4,0-0.7-0.2-1.2-0.5c-0.5-0.4-0.6-0.7-0.5-1.1
		c0.2-0.5,0.7-1.9,1.8-4.1c0.6-1.1,0.9-2,1.2-2.7c0.5-1,0.8-1.9,1.1-2.6v-0.2V300c0-0.1,0-0.2,0.1-0.2c0.2,0,0.5,0.1,0.7,0.4
		c0.3,0.2,0.5,0.4,0.6,0.6v0.1h0.1c0,0,0,0.1,0,0.2c-0.6,1.3-1.1,2.7-1.9,4.4c0.3,0.3,0.6,0.6,0.7,1.1c0,0.1,0,0.3,0,0.4
		c0.3-0.4,0.6-0.6,0.8-1.1c0.6-0.9,1.4-2,2.2-3.1c0.6-0.9,1.2-1.8,1.7-2.5l0.2-0.5c0,0,0.4,0,0.8,0.4c0.5,0.4,0.7,0.6,0.6,0.7
		c-0.1,0.3-0.3,0.6-0.5,1l-0.3,0.6l-0.3,0.6c-0.6,1-0.9,1.9-1.2,2.6c-0.9,2.2-1.4,3.8-1.3,4.9c1.1,0,2.4-1.1,3.9-3.5
		c0.5-0.1,0.6-0.1,0.5,0c-1.8,3.2-3.4,4.5-4.8,4c-0.8-0.3-1.1-1-1-2.1c0-0.5,0.1-0.9,0.3-1.6l0.3-0.7l0.3-0.7
		c-0.1,0.2-0.3,0.4-0.6,0.6l-0.3,0.4l-0.4,0.5c-0.6,0.7-1.1,1.3-1.5,1.8c-0.2,0.2-0.4,0.5-0.6,0.6s-0.3,0.4-0.4,0.5l0,0V310.2z
		 M167.9,306.2c0,0.1-0.1,0.3-0.2,0.4c-0.2,0.4-0.4,0.7-0.6,1.2l-0.3,0.5l-0.2,0.5c-0.4,0.6-0.6,1.1-0.6,1.2c0.1,0,0.3-0.1,0.6-0.3
		c0,0,0-0.1,0.1-0.2v-0.1c0.1,0,0.2-0.1,0.2-0.1c0.3-0.3,0.6-0.7,0.9-1.3c0.3-0.6,0.5-0.9,0.6-1.4c0-0.1,0-0.3,0-0.5l0,0
		C168.3,306.1,168.1,306.1,167.9,306.2L167.9,306.2z"/>
	<path class="st1" d="M179.4,309.4c0.2,0.2,0.3,0.5,0.3,0.6c0,0,0,0.2-0.1,0.4l-0.2,0.4l-0.2,0.4l-0.2,0.4c0,0-0.2,0-0.5-0.1l0,0
		c-0.1,0-0.3-0.1-0.3-0.1h-0.2c0-0.1,0-0.2,0-0.2l0,0c-0.2,0-0.3-0.1-0.4-0.2c-0.2-0.2-0.3-0.3-0.3-0.4l0.3-0.5l0.3-0.5v-0.1
		l0.1-0.1c0,0,0-0.2,0.1-0.2c0,0,0.3,0,0.6,0c0.2,0,0.5,0.2,0.6,0.4L179.4,309.4z"/>
	<path class="st1" d="M186,309.4c0.2,0.2,0.3,0.5,0.3,0.6c0,0,0,0.2-0.1,0.4l-0.2,0.4l-0.2,0.4l-0.2,0.4c0,0-0.2,0-0.5-0.1l0,0
		c-0.1,0-0.3-0.1-0.3-0.1h-0.2c0-0.1,0-0.2,0-0.2l0,0c-0.2,0-0.3-0.1-0.4-0.2c-0.2-0.2-0.3-0.3-0.3-0.4l0.3-0.5l0.3-0.5v-0.1
		l0.1-0.1c0,0,0-0.2,0.1-0.2c0,0,0.3,0,0.6,0c0.2,0,0.5,0.2,0.6,0.4L186,309.4z"/>
	<path class="st1" d="M192.7,309.4c0.2,0.2,0.3,0.5,0.3,0.6c0,0,0,0.2-0.1,0.4l-0.2,0.4l-0.2,0.4l-0.2,0.4c0,0-0.2,0-0.5-0.1l0,0
		c-0.1,0-0.3-0.1-0.3-0.1h-0.2c0-0.1,0-0.2,0-0.2l0,0c-0.2,0-0.3-0.1-0.4-0.2c-0.2-0.2-0.3-0.3-0.3-0.4l0.3-0.5l0.3-0.5v-0.1
		l0.1-0.1c0,0,0-0.2,0.1-0.2c0,0,0.3,0,0.6,0c0.2,0,0.5,0.2,0.6,0.4L192.7,309.4z"/>
</g>
<rect y="0" class="st2" width="104.5" height="312.6"/>
</svg>
